<svg width="55" height="55" viewBox="0 0 55 55" xmlns="http://www.w3.org/2000/svg" xmlns:xlink="http://www.w3.org/1999/xlink"><title>fullscreen</title><defs><path id="a" d="M.733 54.507h53.934V.573H.733v53.934z"/></defs><g fill="none" fill-rule="evenodd"><g transform="matrix(1 0 0 -1 .036 54.84)"><mask id="b" fill="#fff"><use xlink:href="#a"/></mask><path d="M0 28C0 13.105 12.075 1.03 26.97 1.03c14.894 0 26.969 12.075 26.969 26.97s-12.075 26.97-26.97 26.97C12.075 54.97 0 42.894 0 28" fill="#000" transform="translate(.729 -.463)" mask="url(#b)"/></g><path d="M24.496 29.177L14.3 39.372v-5.066a.964.964 0 1 0-1.928 0v7.392a.967.967 0 0 0 .964.964h7.393a.964.964 0 1 0 0-1.928h-5.066L25.858 30.54a.964.964 0 0 0-1.362-1.363M43.019 12.539a.96.96 0 0 0-.89-.596h-7.393a.964.964 0 1 0 0 1.928h5.067L29.608 24.065a.964.964 0 0 0 1.363 1.363l10.194-10.195V20.3a.964.964 0 1 0 1.928 0v-7.393a.95.95 0 0 0-.074-.368" fill="#FFF"/></g></svg>