<svg width="60" height="60" viewBox="0 0 60 60" xmlns="http://www.w3.org/2000/svg"><title>loader</title><g fill="none" fill-rule="evenodd"><path d="M.96 30.235C.96 14.01 14.11.86 30.333.86s29.375 13.15 29.375 29.374c0 16.222-13.152 29.373-29.375 29.373S.96 46.458.96 30.235" fill="#05B4DD"/><path d="M49.029 22.416l-3.223.008c-2.417-5.417-7.16-9.332-13.15-10.27-6.677-1.046-13.065 2.054-16.874 7.509-1.692 2.421 2.284 4.69 3.961 2.288 5.226-7.48 16.382-6.804 20.966.487l-2.978.006a.696.696 0 0 0-.597.299c-.2.213-.275.527-.067.85 1.89 2.933 3.782 5.866 5.67 8.8a.772.772 0 0 0 1.32-.006l5.626-8.827c.31-.486-.098-1.145-.654-1.144M40.94 38.518c-5.183 7.423-16.208 6.815-20.858-.316l2.854-.008a.694.694 0 0 0 .596-.297.66.66 0 0 0 .068-.85l-5.671-8.8a.772.772 0 0 0-1.319.005c-1.874 2.942-3.75 5.884-5.626 8.826-.311.487.098 1.146.654 1.144l3.323-.008c2.44 5.328 7.143 9.172 13.07 10.1 6.675 1.047 13.063-2.053 16.873-7.508 1.692-2.422-2.286-4.69-3.963-2.288" fill="#FFF"/></g></svg>