<svg xmlns="http://www.w3.org/2000/svg" viewBox="0 0 275 102.3"><path fill="#57F7D8" d="M117.7 13.8L93.6 60.3l50.3 1.8z"/><path fill="#15EDC3" d="M63.7 51l6.6 33.2 23.3-7.6z"/><path fill="#07DDE2" d="M272.3 71.5v-9.4l-9-12.9-14.7 10.7z"/><path fill="#6EF6F9" d="M238.6 35.7l10 24.2 14.7-10.7z"/><path fill="#72F7F3" d="M218.5 34.5l.2-.6 19.9 1.8 10 24.2z"/><path fill="#28EAF9" d="M272.3 71.5l-4 5.1-12.6-6.3z"/><path fill="#28EAF9" d="M268.3 76v1.5l3.8 2.7-3 3.7-7.8-10.8zM255.7 70.3l-7.1-10.4 23.7 11.6z"/><path fill="#4BECF9" d="M254.2 68l-21.5-2.9 4.8-14.5 11.1 9.3z"/><path fill="#13E4EA" d="M269.1 83.9l-8.7 2.9-41.9 1.3 42.8-15z"/><path fill="#00EAFC" d="M232.7 65.1l-14.2 23 49.8-15.7-12.6-2.1-1.5-2.3z"/><path fill="#03D3D8" d="M239.4 86.7l-4.8 8.8-9.4 4.2-6.7-11.6z"/><path fill="#11E4F4" d="M225.2 99.7l-13.5-1.5-6.7-24.1 13.5 14z"/><path fill="#00F9FF" d="M211.7 98.2l-9.1-9.9-5.5-6.1h10.1z"/><path fill="#06EFE3" d="M237.5 50.6L211.7 49l21 16.1z"/><path fill="#0ADDB4" d="M199.6 40.7L178 18.2l42.2 16.3 23 20.1-27.3 3.6z"/><path fill="#03D8DD" d="M215.1 48.7l3.4 39.4 14.2-23z"/><path fill="#2BF2F7" d="M215.1 48.7l-13.3 18.4 3.2 7 13.5 14z"/><path fill="#66EDED" d="M201.8 38.3l-.8 30.1 14.1-19.7z"/><path fill="#35F9F3" d="M201.8 67.1l-12.7-8.9 8 24h10.1l-2.2-8.1z"/><path fill="#40F0F4" d="M183.1 86.7l3.9-.3 3.6 2.2 1.9 1.8 2.7-.2 1.5-2.1 5.9.2-5.5-6.1-6.9-6.9z"/><path fill="#29E5DB" d="M189.1 58.2l8 24-19.2-16.5z"/><path fill="#7AF9E1" d="M201.9 38.6l-.1 28.5-12.7-8.9 12.7-19.9-12.7 19.9-5.4-37.7z"/><path fill="#00FFD4" d="M179.7 64.5l3.4 22.2 7.1-11.4z"/><path fill="#41F7DD" d="M189.1 58.2l-20.4 14.2 16.7-39.7z"/><path fill="#05E2B7" d="M183.1 86.7l-26.1.5 12.5-15.9 10.2-6.8z"/><path fill="#5FF9E6" d="M183.7 20.5L163.5 9.8l21.9 22.9z"/><path fill="#3BFFDE" d="M169.5 71.3l-10.2-37.4 26.1-1.2z"/><path fill="#14EDCD" d="M163.5 9.8l-4.2 24.1 26.1-1.2z"/><path fill="#00FFD4" d="M163.5 9.8L136 3.7l23.3 30.2z"/><path fill="#14EDC3" d="M169.5 71.3L157 87.2l-18.1-30.1z"/><path fill="#45E5C6" d="M138.9 57.1l20.4-23.2 10.2 37.4z"/><path fill="#7AF9E1" d="M136 3.7l-16.8 20.2 40.1 10z"/><path fill="#0AEFC3" d="M138.9 57.1l-19.7-33.2 40.1 10z"/><path fill="#05E2A3" d="M157 87.2l-34.9.4 16.8-30.5z"/><path fill="#26F9E4" d="M136 3.7l-18.5-1.1-20.3 1.1 22 20.2z"/><path fill="#1AFCC1" d="M101.1 55.9l27.6 19.7 10.2-18.5z"/><path fill="#14EFB0" d="M122.1 87.6l-21-31.7 27.6 19.7z"/><path fill="#0AF2C5" d="M101.1 55.9L89.5 23.1l29.7.8z"/><path fill="#14EFB0" d="M97.2 3.7L77.8 5.3l12 18.6h29.4z"/><path fill="#5BEFD3" d="M89.8 23.9l-20 1.6 31.3 30.4z"/><path fill="#2BF9D1" d="M77.8 5.3l-22.9 3 14.9 17.2 20-1.6z"/><path fill="#59F7D9" d="M69.8 25.5l31.3 30.4-22-2.3-2-.2-13-1.4z"/><path fill="#3AEFCC" d="M122.1 87.6l-21-31.7-17.3-1.8z"/><path fill="#3AEFCC" d="M83.8 54.1l3.2 20h19.7z"/><path fill="#28EAC4" d="M122.1 87.6l-34.1.5-1-14h19.7z"/><path fill="#3AEFCC" d="M64.1 52L87 74.1l-3.2-20z"/><path fill="#0CE2B8" d="M87 74.1L63.5 88.3l24.5-.2z"/><path fill="#15EDC3" d="M54.8 8.2L64.1 52l7.5-27.1z"/><path fill="#1AFCC1" d="M54.9 8.3l-9.8.5-14 1.9 5.6 2.5-.6 2.2-5.3 6.2z"/><path fill="#14EFB0" d="M30.8 21.6l9.6 6.1 21.5 13.7-7-33.1z"/><path fill="#10DD9E" d="M35.1 45.7l26.8-4.3-31.1-19.8z"/><path fill="#05E292" d="M30.8 21.6L17.6 37l17.5 8.7z"/><path fill="#14EDAF" d="M61.9 41.4L64 52l2.2 11.1-31.1-17.4z"/><path fill="#0AE8A3" d="M63.5 88.3l-6.1 7.3-9.3 4.1-7.7-17.5z"/><path fill="#0AE0B7" d="M66.2 63.1L40.4 82.2l23.1 6.1 7-4.2z"/><path fill="#0BD38B" d="M48.1 99.7l-11.6-1.9-9.8-9.7 13.7-5.9z"/><path fill="#0CE2A5" d="M35.1 45.7L49 75.9l17.2-12.8z"/><path fill="#0FEAA1" d="M17.6 37v20.1l17.5-11.4z"/><path fill="#0FEFA4" d="M49 75.9L17.6 57.1l17.5-11.4z"/><path fill="#1AE299" d="M17.6 57.1l9.1 31 13.7-5.9 8.6-6.3z"/><path fill="#0AE8A3" d="M17.6 37L7.9 47.1 4 53.5l13.6 3.6z"/><path fill="#05E298" d="M4 53.5l-1.3 9.6L4 72.6l13.6-15.5z"/><path fill="#07D88D" d="M26.7 88.1h-7.5l-6.3-5.9 7.9-14.1z"/><path fill="#21D889" d="M17.6 57.1l3.2 11-7.9 14.1-5.6-1-3.5-3.1.2-5.5z"/><path fill="none" d="M70 13.4h94.8v83.8H70z"/><text transform="translate(70.562 44.156)"><tspan x="0" y="0" fill="#FFF" font-family="'GothamPro-Medium'" font-size="42.189" letter-spacing="-1">NRG</tspan><tspan x="2.2" y="32.9" fill="#FFF" font-family="'GothamPro-Medium'" font-size="42.189" letter-spacing="1">cars</tspan></text><path fill="#FFF" stroke="#05AA8B" stroke-width="2" stroke-miterlimit="10" d="M163.5 49.6H68.9"/><path fill="#05AA8B" d="M60.3 56.3H65c3.6 0 6.6-3 6.6-6.6v-.5c0-3.6-3-6.6-6.6-6.6h-4.8v13.7z"/><path fill="#FFF" stroke="#05AA8B" stroke-width="2" stroke-miterlimit="10" d="M63.4 46.1H52M63.4 53.1H52"/></svg>