<svg id="Слой_1" xmlns="http://www.w3.org/2000/svg" viewBox="0 0 111.4 40.6"><style>.st0{fill:#57f7d8}.st1{fill:#15edc3}.st2{fill:#07dde2}.st3{fill:#6ef6f9}.st4{fill:#72f7f3}.st5{fill:#28eaf9}.st6{fill:#4becf9}.st7{fill:#13e4ea}.st8{fill:#00eafc}.st9{fill:#03d3d8}.st10{fill:#11e4f4}.st11{fill:#00f9ff}.st12{fill:#06efe3}.st13{fill:#0addb4}.st14{fill:#03d8dd}.st15{fill:#2bf2f7}.st16{fill:#66eded}.st17{fill:#35f9f3}.st18{fill:#40f0f4}.st19{fill:#29e5db}.st20{fill:#7af9e1}.st21{fill:#00ffd4}.st22{fill:#41f7dd}.st23{fill:#05e2b7}.st24{fill:#5ff9e6}.st25{fill:#3bffde}.st26{fill:#14edcd}.st27{fill:#14edc3}.st28{fill:#45e5c6}.st29{fill:#0aefc3}.st30{fill:#05e2a3}.st31{fill:#26f9e4}.st32{fill:#1afcc1}.st33{fill:#14efb0}.st34{fill:#0af2c5}.st35{fill:#5befd3}.st36{fill:#2bf9d1}.st37{fill:#59f7d9}.st38{fill:#3aefcc}.st39{fill:#28eac4}.st40{fill:#0ce2b8}.st41{fill:#10dd9e}.st42{fill:#05e292}.st43{fill:#14edaf}.st44{fill:#0ae8a3}.st45{fill:#0ae0b7}.st46{fill:#0bd38b}.st47{fill:#0ce2a5}.st48{fill:#0feaa1}.st49{fill:#0fefa4}.st50{fill:#1ae299}.st51{fill:#05e298}.st52{fill:#07d88d}.st53{fill:#21d889}.st54{fill:none}.st55{fill:#fff}.st56{font-family:&amp;apos;GothamPro-Medium&amp;apos;}.st57{font-size:16.5601}.st58{fill:#fff;stroke:#05aa8b;stroke-miterlimit:10}.st59{fill:#05aa8b}</style><path class="st0" d="M47.9 5.6l-9.4 18.3 19.7.7z"/><path class="st1" d="M26.7 20.2l2.6 13 9.2-2.9z"/><path class="st2" d="M108.6 28.3v-3.7l-3.6-5.1-5.7 4.2z"/><path class="st3" d="M95.3 14.2l4 9.5 5.7-4.2z"/><path class="st4" d="M87.5 13.8v-.3l7.8.7 4 9.5z"/><path class="st5" d="M108.6 28.3l-1.6 2-4.9-2.5z"/><path class="st5" d="M107 30v.6l1.5 1.1-1.2 1.4-3-4.2zM102.1 27.8l-2.8-4.1 9.3 4.6z"/><path class="st6" d="M101.5 26.9l-8.4-1.1 1.8-5.8 5.1 3.5z"/><path class="st7" d="M107.3 33.1l-3.4 1.2-16.4.5 16.8-5.9z"/><path class="st8" d="M93.1 25.8l-5.6 9 18.9-6.3-4.3-.7-.6-.9z"/><path class="st9" d="M95.7 34.2l-1.9 3.5-3.7 1.6-2.6-4.5z"/><path class="st10" d="M90.1 39.3l-5.3-.6-2.6-9.4 5.3 5.5z"/><path class="st11" d="M84.8 38.7l-3.6-3.8-2.1-2.5H83z"/><path class="st12" d="M94.9 20l-8.6-.5 6.8 8z"/><path class="st13" d="M87.9 13.8l.2-.1-6.4-1.7-10.1-4.7L86.8 21l10.4.6-9.1-7.9"/><path class="st14" d="M86.1 19.3l1.4 15.5 5.6-9z"/><path class="st15" d="M86.1 19.3l-5.2 7.3 1.3 2.7 5.3 5.5z"/><path class="st16" d="M80.9 15.2v11.4l5.2-7.3z"/><path class="st17" d="M80.9 26.6l-5-3.6 3.2 9.4H83l-.8-3.1z"/><path class="st18" d="M73.6 34.2l1.5-.1 1.4.9.8.7 1-.1.6-.8 2.3.1-2.1-2.5-2.7-2.7z"/><path class="st19" d="M75.9 23l3.2 9.4-7.6-6.4z"/><path class="st20" d="M81 15.3l-.1 11.3-5-3.6 5-7.8-5 7.8-2.1-14.8z"/><path class="st21" d="M72.2 25.5l1.4 8.7 2.8-4.5z"/><path class="st22" d="M78.4 24.1l-10.2 4.1L74.5 13z"/><path class="st23" d="M73.6 34.2l-10.3.2 4.9-6.2 4-2.7z"/><path class="st24" d="M73.8 8.2l-7.9-4.1 8.6 8.9z"/><path class="st25" d="M68.2 28.2l-3.9-14.7 10.2-.5z"/><path class="st26" d="M65.9 4.1l-1.6 9.4 10.2-.5z"/><path class="st21" d="M65.9 4.1L55.1 1.7l9.2 11.8z"/><path class="st27" d="M68.2 28.2l-4.9 6.2-7.1-11.8z"/><path class="st28" d="M56.2 22.6l8.1-9.1 3.9 14.7z"/><path class="st20" d="M55.1 1.7l-6.6 7.9 15.8 3.9z"/><path class="st29" d="M56.2 22.6l-7.7-13 15.8 3.9z"/><path class="st30" d="M63.3 34.4l-13.7.2 6.6-12z"/><path class="st31" d="M55.1 1.7l-7.3-.5-7.9.5 8.6 7.9z"/><path class="st32" d="M41.4 22.1l10.8 7.8 4-7.3z"/><path class="st33" d="M49.6 34.6l-8.2-12.5 10.8 7.8z"/><path class="st34" d="M41.4 22.1L36.8 9.3l11.7.3z"/><path class="st33" d="M39.9 1.7l-7.7.6 4.7 7.3h11.6z"/><path class="st35" d="M36.9 9.6l-7.8.6 12.3 11.9z"/><path class="st36" d="M32.2 2.3l-9 1.1 5.9 6.8 7.8-.6z"/><path class="st37" d="M29.1 10.2l12.3 11.9-8.6-.9-.8-.1-5.1-.5z"/><path class="st38" d="M49.6 34.6l-8.2-12.5-6.8-.7z"/><path class="st38" d="M34.6 21.4l1.3 7.9h7.7z"/><path class="st39" d="M49.6 34.6l-13.4.2-.3-5.5h7.7z"/><path class="st38" d="M26.9 20.6l9 8.7-1.3-7.9z"/><path class="st40" d="M35.9 29.3l-9.3 5.6 9.6-.1z"/><path class="st1" d="M23.2 3.4l3.7 17.2L29.8 10z"/><path class="st32" d="M23.2 3.4l-3.8.2-5.5.8 2.2 1-.2.8-2.1 2.5z"/><path class="st33" d="M13.8 8.7l3.8 2.4 8.4 5.4-2.8-13.1z"/><path class="st41" d="M15.5 18.1L26 16.5 13.8 8.7z"/><path class="st42" d="M13.8 8.7l-5.2 6 6.9 3.4z"/><path class="st43" d="M26 16.5l.8 4.1.9 4.4-12.2-6.9z"/><path class="st44" d="M26.6 34.9l-2.4 2.8-3.6 1.6-3-6.9z"/><path class="st45" d="M27.7 25l-10.1 7.4 9 2.5 2.8-1.7z"/><path class="st46" d="M20.6 39.3l-4.6-.7-3.8-3.8 5.4-2.4z"/><path class="st47" d="M15.5 18.1L20.9 30l6.8-5z"/><path class="st48" d="M8.6 14.7v7.9l6.9-4.5z"/><path class="st49" d="M20.9 30L8.6 22.6l6.9-4.5z"/><path class="st50" d="M8.6 22.6l3.6 12.2 5.4-2.4 3.3-2.4z"/><path class="st44" d="M8.6 14.7l-3.8 4-1.5 2.5 5.3 1.4z"/><path class="st51" d="M3.3 21.2L2.8 25l.5 3.7 5.3-6.1z"/><path class="st52" d="M12.2 34.8h-3l-2.4-2.4 3.1-5.5z"/><path class="st53" d="M8.6 22.6l1.3 4.3-3.1 5.5-2.2-.3-1.4-1.3.1-2.1z"/><path class="st54" d="M29.2 5.4h37.2v32.9H29.2z"/><text id="NRG_car_1_" transform="translate(29.4 17.528)"><tspan x="0" y="0" class="st55 st56 st57">NRG</tspan><tspan x=".8" y="12.9" class="st55 st56 st57">cars</tspan></text><path class="st58" d="M65.9 19.6H28.7"/><path class="st59" d="M25.4 22.3h1.9c1.4 0 2.6-1.2 2.6-2.6v-.2c0-1.4-1.2-2.6-2.6-2.6h-1.9v5.4z"/><path class="st58" d="M26.6 18.3h-4.5M26.6 21h-4.5"/></svg>