<svg xmlns="http://www.w3.org/2000/svg" viewBox="0 0 148.468 54.0816" height="54.082" width="148.468"><defs><clipPath id="a"><path d="M0 40.561h111.351V0H0z"/></clipPath></defs><path d="M63.872 7.494L51.267 31.838l26.328.943z" fill="#57f7d8"/><path d="M35.613 26.963l3.443 17.346 12.21-3.957z" fill="#15edc3"/><path d="M144.763 37.701v-4.958l-4.706-6.746-7.662 5.626z" fill="#07dde2"/><path d="M127.125 18.958l5.27 12.664 7.661-5.624z" fill="#6ef6f9"/><path d="M116.644 18.341l.07-.32 10.412.938 5.269 12.664z" fill="#72f7f3"/><path d="M144.763 37.701l-2.077 2.651-6.57-3.29z" fill="#28eaf9"/><path d="M142.686 40.028v.797l2.012 1.43-1.595 1.942-4.068-5.652zM136.115 37.063l-3.72-5.44 12.368 6.079z" fill="#28eaf9"/><path d="M135.294 35.863l-11.22-1.52 2.518-7.614 5.802 4.894z" fill="#4becf9"/><path d="M143.103 44.197L138.58 45.7l-21.934.662 22.39-7.816z" fill="#13e4ea"/><path d="M124.074 34.343l-7.43 12.019 22.391-7.816-2.92-1.483-.821-1.2z" fill="#00eafc"/><path d="M127.586 45.646l-2.552 4.579-4.92 2.22-3.47-6.084z" fill="#03d3d8"/><path d="M120.113 52.445l-7.021-.78-3.54-12.601 7.092 7.297z" fill="#11e4f4"/><path d="M113.093 51.665l-4.784-5.19-2.898-3.211h5.322z" fill="#00f9ff"/><path d="M126.592 26.73l-11.459-.732 8.94 8.345z" fill="#06efe3"/><path d="M117.523 18.31l12.052 10.551-13.883-.885-8.797-6.927 10.28-2.628.348-.11-8.593-2.303L95.407 9.78l11.488 11.27z" fill="#0addb4"/><path d="M114.833 25.762l1.812 20.6 7.43-12.019z" fill="#03d8dd"/><path d="M114.833 25.762l-6.962 9.641 1.682 3.66 7.092 7.299z" fill="#2bf2f7"/><path d="M107.872 20.281v15.122l6.961-9.642z" fill="#66eded"/><path d="M107.872 35.403l-6.641-4.7 4.181 12.561h5.32l-1.18-4.2z" fill="#35f9f3"/><path d="M98.077 45.646l2.07-.164 1.854 1.13 1.016.964 1.415-.111.76-1.104 3.117.115-2.897-3.212-3.61-3.611z" fill="#40f0f4"/><path d="M101.231 30.703l4.18 12.56-10.056-8.6z" fill="#29e5db"/><path d="M107.952 20.461l-.08 14.942-6.641-4.7 6.641-10.422-6.641 10.422-2.84-19.723z" fill="#7af9e1"/><path d="M96.31 34.023l1.767 11.624 3.724-5.993z" fill="#00ffd4"/><path d="M101.231 30.703l-10.241 6.88 8.323-20.202z" fill="#41f7dd"/><path d="M98.077 45.646l-13.648.25 6.561-8.312 5.32-3.562z" fill="#05e2b7"/><path d="M98.39 10.98L87.829 5.407 99.312 17.38z" fill="#5ff9e6"/><path d="M90.99 37.583l-5.32-19.562 13.643-.64z" fill="#3bffde"/><path d="M87.829 5.407l-2.16 12.614 13.644-.64z" fill="#14edcd"/><path d="M87.829 5.407l-14.355-3.2L85.67 18.02z" fill="#00ffd4"/><path d="M90.99 37.583l-6.561 8.314-9.44-15.727z" fill="#14edc3"/><path d="M74.988 30.17L85.67 18.022l5.32 19.563z" fill="#45e5c6"/><path d="M73.474 2.207L64.667 12.78l21.003 5.241z" fill="#7af9e1"/><path d="M74.988 30.17L64.667 12.78l21.002 5.241z" fill="#0aefc3"/><path d="M84.43 45.897l-18.264.228 8.822-15.955z" fill="#05e2a3"/><path d="M73.474 2.207l-9.708-.571-10.62.57 11.52 10.574z" fill="#26f9e4"/><path d="M55.186 29.522l14.459 10.312 5.344-9.664z" fill="#1afcc1"/><path d="M66.166 46.125l-10.98-16.602 14.459 10.312z" fill="#14efb0"/><path d="M55.186 29.522l-6.081-17.18 15.562.44z" fill="#0af2c5"/><path d="M53.146 2.207l-10.15.836 6.264 9.737h15.407z" fill="#14efb0"/><path d="M49.26 12.78l-10.477.84 16.403 15.902z" fill="#5befd3"/><path d="M42.996 3.043l-12 1.548 7.788 9.03 10.477-.84z" fill="#2bf9d1"/><path d="M38.784 13.62l16.401 15.902-11.51-1.212-1.068-.113-6.783-.715z" fill="#59f7d9"/><path d="M66.166 46.125l-10.98-16.602-9.048-.954z" fill="#3aefcc"/><path d="M46.138 28.569l1.686 10.495H58.11z" fill="#3aefcc"/><path d="M66.166 46.125l-17.861.223-.48-7.284H58.11z" fill="#28eac4"/><path d="M35.824 27.482l12 11.581-1.686-10.494z" fill="#3aefcc"/><path d="M47.825 39.063l-12.333 7.41 12.813-.124z" fill="#0ce2b8"/><path d="M30.965 4.553L35.8 27.488l3.945-14.217z" fill="#15edc3"/><path d="M30.996 4.59l-5.121.266-7.343 1.01 2.946 1.33-.292 1.136-2.774 3.223z" fill="#1afcc1"/><path d="M18.412 11.555l5.001 3.2 11.244 7.196-3.661-17.36z" fill="#14efb0"/><path d="M20.622 24.182l14.036-2.23-16.246-10.397z" fill="#10dd9e"/><path d="M18.412 11.555l-6.924 8.055 9.133 4.572z" fill="#05e292"/><path d="M34.657 21.951l1.119 5.54 1.168 5.782-16.323-9.091z" fill="#14edaf"/><path d="M35.492 46.473l-3.177 3.832-4.892 2.14-4.001-9.182z" fill="#0ae8a3"/><path d="M36.944 33.273l-13.522 9.99 12.07 3.21 3.665-2.202z" fill="#0ae0b7"/><path d="M27.423 52.445l-6.034-.999-5.13-5.085 7.164-3.097z" fill="#0bd38b"/><path d="M20.622 24.182l7.272 15.778 9.05-6.688z" fill="#0ce2a5"/><path d="M11.488 19.61v10.56l9.134-5.989z" fill="#0feaa1"/><path d="M27.894 39.96l-16.406-9.79 9.134-5.989z" fill="#0fefa4"/><path d="M11.488 30.17l4.771 16.191 7.163-3.097 4.472-3.304z" fill="#1ae299"/><path d="M11.488 19.61l-5.07 5.28-2.032 3.35 7.102 1.93z" fill="#0ae8a3"/><path d="M4.386 28.24l-.681 5.033.637 4.983 7.147-8.085z" fill="#05e298"/><path d="M16.258 46.361l-3.957-.013-3.27-3.084 4.14-7.383z" fill="#07d88d"/><path d="M11.488 30.17l1.683 5.711-4.139 7.383-2.953-.496-1.84-1.647.104-2.865z" fill="#21d889"/><text style="-inkscape-font-specification:GothamPro-Medium" transform="matrix(1.33333 0 0 1.33333 39.202 23.371)" font-weight="400" font-size="16.56" font-family="Gotham Pro Medium" fill="#fff"><tspan y="0" x="0 12.552556 23.995584">NRG</tspan><tspan y="12.9" x="0.84456509 10.913106 21.246609 28.698654">cars</tspan></text><path d="M38.311 26.198H87.83z" fill="#fff"/><path d="M87.829 26.198H38.31" fill="none" stroke="#05aa8b" stroke-miterlimit="10" stroke-width="1.33333"/><g clip-path="url(#a)" transform="matrix(1.33333 0 0 -1.33333 0 54.082)"><path d="M25.359 18.248h1.87a2.589 2.589 0 0 1 2.58 2.581v.215a2.59 2.59 0 0 1-2.58 2.581h-1.87z" fill="#05aa8b"/><path d="M26.572 22.263h-4.445M26.572 19.539h-4.445" fill="#fff" stroke="#05aa8b" stroke-miterlimit="10"/></g></svg>