<svg width="259" height="94" viewBox="0 0 259 94" xmlns="http://www.w3.org/2000/svg"><title>Untitled 2</title><g fill="none" fill-rule="evenodd"><path d="M110.3 10.74L87.19 55.37l48.27 1.73-25.16-46.36z" fill="#57F7D8"/><path d="M58.5 46.43l6.31 31.8 17.78-8.81L58.5 46.43z" fill="#15EDC3"/><path d="M258.6 66.12v-9.09l-8.63-12.37-14.05 10.31 22.68 11.15z" fill="#07DDE2"/><path d="M226.26 31.75l9.66 23.22 14.05-10.31-23.71-12.91z" fill="#6EF6F9"/><path d="M207.05 30.62l.12-.58 19.09 1.71 9.66 23.22-28.87-24.35z" fill="#72F7F3"/><path d="M258.6 66.12l-3.81 4.86-12.05-6.03 15.86 1.17z" fill="#28EAF9"/><path d="M254.79 70.38v1.46l3.69 2.62-2.93 3.57-7.45-10.37 6.69 2.72zM242.74 64.95l-6.82-9.98 22.68 11.15-15.86-1.17z" fill="#28EAF9"/><path d="M241.24 62.75l-20.57-2.79L225.28 46l10.64 8.97 5.32 7.78z" fill="#4BECF9"/><path d="M255.55 78.03l-8.29 2.75-40.21 1.21 41.05-14.33 7.45 10.37z" fill="#13E4EA"/><path d="M220.67 59.96l-13.62 22.03 42.92-14.65-7.23-2.39-1.5-2.2-20.57-2.79z" fill="#00EAFC"/><path d="M227.11 80.68l-4.68 8.4-9.02 4.07-6.36-11.16 20.06-1.31z" fill="#03D3D8"/><path d="M213.41 93.15l-12.87-1.43-6.5-23.11 13.01 13.38 6.36 11.16z" fill="#11E4F4"/><path d="M200.54 91.72l-8.77-9.52-5.31-5.89h9.75l4.33 15.41z" fill="#00F9FF"/><path d="M225.28 46l-22.69-1.34 18.08 15.3L225.28 46z" fill="#06EFE3"/><path d="M208.32 30.24l-15.41-3.89-24.8-11.42 21.4 19.83 18.81-4.52 22.43 19.67-25.45-1.62-15.79-13.53" fill="#0ADDB4"/><path d="M203.73 44.23l3.32 37.76 13.62-22.03-16.94-15.73z" fill="#03D8DD"/><path d="M203.73 44.23L190.97 61.9l3.07 6.71 13.01 13.38-3.32-37.76z" fill="#2BF2F7"/><path d="M190.97 61.9l-12.18-8.61 7.67 23.02h9.75l-2.17-7.7-3.07-6.71z" fill="#35F9F3"/><path d="M173.01 80.68l3.79-.3 3.4 2.07 1.86 1.77 2.6-.2 1.39-2.03 5.72.21-5.31-5.89-6.62-6.62-6.83 10.99z" fill="#40F0F4"/><path d="M178.79 53.29l7.67 23.02-18.44-15.77 10.77-7.25z" fill="#29E5DB"/><path d="M191.11 34.51l-.14 27.39-12.18-8.61 12.18-19.11-12.18 19.11-5.21-36.16 17.53 17.38z" fill="#7AF9E1"/><path d="M169.77 59.37l3.24 21.31 6.83-10.99-10.07-10.32z" fill="#00FFD4"/><path d="M181.76 55.39L160.02 65.9l15.25-37.04 6.49 26.53z" fill="#41F7DD"/><path d="M173.01 80.68l-25.02.46 12.03-15.24 9.75-6.53 3.24 21.31z" fill="#05E2B7"/><path d="M173.58 17.13L154.22 6.91l21.05 21.95-1.69-11.73z" fill="#5FF9E6"/><path d="M160.02 65.9l-9.76-35.86 25.01-1.18-15.25 37.04z" fill="#3BFFDE"/><path d="M154.22 6.91l-3.96 23.13 25.01-1.18-21.05-21.95z" fill="#14EDCD"/><path d="M154.22 6.91L127.9 1.04l22.36 29 3.96-23.13z" fill="#00FFD4"/><path d="M160.02 65.9l-12.03 15.24-17.31-28.83 29.34 13.59z" fill="#14EDC3"/><path d="M130.68 52.31l19.58-22.27 9.76 35.86-29.34-13.59z" fill="#45E5C6"/><path d="M127.9 1.04l-16.14 19.39 38.5 9.61-22.36-29z" fill="#7AF9E1"/><path d="M130.68 52.31l-18.92-31.88 38.5 9.61-19.58 22.27z" fill="#0AEFC3"/><path d="M147.99 81.14l-33.48.42 16.17-29.25 17.31 28.83z" fill="#05E2A3"/><path d="M127.9 1.04L110.11 0 90.64 1.04l21.12 19.39L127.9 1.04z" fill="#26F9E4"/><path d="M94.38 51.12l26.5 18.91 9.8-17.72-36.3-1.19z" fill="#1AFCC1"/><path d="M114.51 81.56L94.38 51.12l26.5 18.91-6.37 11.53z" fill="#14EFB0"/><path d="M94.38 51.12l-11.15-31.5 28.53.81-17.38 30.69z" fill="#0AF2C5"/><path d="M90.64 1.04L72.03 2.58l11.49 17.85h28.24L90.64 1.04z" fill="#14EFB0"/><path d="M83.52 20.43l-19.21 1.54 30.07 29.15-10.86-30.69z" fill="#5BEFD3"/><path d="M72.03 2.58l-22 2.84 14.28 16.55 19.21-1.54L72.03 2.58z" fill="#2BF9D1"/><path d="M62.98 20.43l31.4 30.69-21.1-2.22-1.97-.21-12.43-1.31 4.1-26.95z" fill="#59F7D9"/><path d="M114.51 81.56L94.38 51.12l-16.59-1.75 36.72 32.19z" fill="#3AEFCC"/><path d="M77.79 49.37l3.09 19.24h18.86L77.79 49.37z" fill="#3AEFCC"/><path d="M114.51 81.56l-32.75.41-.88-13.36h18.86l14.77 12.95z" fill="#28EAC4"/><path d="M58.88 47.38l22 21.23-3.09-19.24-18.91-1.99z" fill="#3AEFCC"/><path d="M80.88 68.61L58.27 82.2l23.49-.23-.88-13.36z" fill="#0CE2B8"/><path d="M49.97 5.35l9.1 43.42 5.21-26.84L49.97 5.35z" fill="#15EDC3"/><path d="M50.03 5.42l-9.39.48-13.46 1.85 5.4 2.44-.53 2.08-5.09 5.91L50.03 5.42z" fill="#1AFCC1"/><path d="M26.96 18.18l9.17 5.87 20.61 13.19-6.71-31.82-23.07 12.76z" fill="#14EFB0"/><path d="M31.01 41.33l25.73-4.09-29.78-19.06 4.05 23.15z" fill="#10DD9E"/><path d="M26.96 18.18L14.27 32.95l16.74 8.38-4.05-23.15z" fill="#05E292"/><path d="M56.74 37.24l2.05 10.16L60.94 58 31.01 41.33l25.73-4.09z" fill="#14EDAF"/><path d="M58.27 82.2l-5.82 7.02-8.97 3.93-7.33-16.84 22.12 5.89z" fill="#0AE8A3"/><path d="M60.94 58L36.15 76.31l22.12 5.89 6.72-4.04L60.94 58z" fill="#0AE0B7"/><path d="M43.48 93.15l-11.06-1.84-9.41-9.32 13.14-5.68 7.33 16.84z" fill="#0BD38B"/><path d="M31.01 41.33l13.33 28.93L60.94 58 31.01 41.33z" fill="#0CE2A5"/><path d="M14.27 32.95v19.36l16.74-10.98-16.74-8.38z" fill="#0FEAA1"/><path d="M44.34 70.26L14.27 52.31l16.74-10.98 13.33 28.93z" fill="#0FEFA4"/><path d="M14.27 52.31l8.74 29.68 13.14-5.68 8.19-6.05-30.07-17.95z" fill="#1AE299"/><path d="M14.27 32.95l-9.3 9.68-3.72 6.14 13.02 3.54V32.95z" fill="#0AE8A3"/><path d="M1.25 48.77L0 58l1.17 9.13 13.1-14.82-13.02-3.54z" fill="#05E298"/><path d="M23.01 81.99l-7.25-.02-5.99-5.66 7.58-13.53 5.66 19.21z" fill="#07D88D"/><path d="M14.27 52.31l3.08 10.47-7.58 13.53-5.42-.9-3.37-3.02.19-5.26 13.1-14.82z" fill="#21D889"/><path d="M190.89 34.29l.08 27.61 12.76-17.67-12.84-9.94z" fill="#66EDED"/></g></svg>