<svg xmlns="http://www.w3.org/2000/svg" viewBox="0 0 258.6 93.15"><defs><style>.cls-1{fill:#57f7d8}.cls-2{fill:#15edc3}.cls-3{fill:#07dde2}.cls-4{fill:#6ef6f9}.cls-5{fill:#72f7f3}.cls-6{fill:#28eaf9}.cls-7{fill:#4becf9}.cls-8{fill:#13e4ea}.cls-9{fill:#00eafc}.cls-10{fill:#03d3d8}.cls-11{fill:#11e4f4}.cls-12{fill:#00f9ff}.cls-13{fill:#06efe3}.cls-14{fill:#0addb4}.cls-15{fill:#03d8dd}.cls-16{fill:#2bf2f7}.cls-17{fill:#35f9f3}.cls-18{fill:#40f0f4}.cls-19{fill:#29e5db}.cls-20{fill:#7af9e1}.cls-21{fill:#00ffd4}.cls-22{fill:#41f7dd}.cls-23{fill:#05e2b7}.cls-24{fill:#5ff9e6}.cls-25{fill:#3bffde}.cls-26{fill:#14edcd}.cls-27{fill:#14edc3}.cls-28{fill:#45e5c6}.cls-29{fill:#0aefc3}.cls-30{fill:#05e2a3}.cls-31{fill:#26f9e4}.cls-32{fill:#1afcc1}.cls-33{fill:#14efb0}.cls-34{fill:#0af2c5}.cls-35{fill:#5befd3}.cls-36{fill:#2bf9d1}.cls-37{fill:#59f7d9}.cls-38{fill:#3aefcc}.cls-39{fill:#28eac4}.cls-40{fill:#0ce2b8}.cls-41{fill:#10dd9e}.cls-42{fill:#05e292}.cls-43{fill:#14edaf}.cls-44{fill:#0ae8a3}.cls-45{fill:#0ae0b7}.cls-46{fill:#0bd38b}.cls-47{fill:#0ce2a5}.cls-48{fill:#0feaa1}.cls-49{fill:#0fefa4}.cls-50{fill:#1ae299}.cls-51{fill:#05e298}.cls-52{fill:#07d88d}.cls-53{fill:#21d889}.cls-54{fill:#66eded}</style></defs><title>Ресурс 2</title><g id="Слой_2" data-name="Слой 2"><g id="_1920" data-name="1920"><g id="header"><path class="cls-1" d="M110.3 10.74L87.19 55.37l48.27 1.73-25.16-46.36z"/><path class="cls-2" d="M58.5 46.43l6.31 31.8 17.78-8.81L58.5 46.43z"/><path class="cls-3" d="M258.6 66.12v-9.09l-8.63-12.37-14.05 10.31 22.68 11.15z"/><path class="cls-4" d="M226.26 31.75l9.66 23.22 14.05-10.31-23.71-12.91z"/><path class="cls-5" d="M207.05 30.62l.12-.58 19.09 1.71 9.66 23.22-28.87-24.35z"/><path class="cls-6" d="M258.6 66.12l-3.81 4.86-12.05-6.03 15.86 1.17z"/><path class="cls-6" d="M254.79 70.38v1.46l3.69 2.62-2.93 3.57-7.45-10.37 6.69 2.72zM242.74 64.95l-6.82-9.98 22.68 11.15-15.86-1.17z"/><path class="cls-7" d="M241.24 62.75l-20.57-2.79L225.28 46l10.64 8.97 5.32 7.78z"/><path class="cls-8" d="M255.55 78.03l-8.29 2.75-40.21 1.21 41.05-14.33 7.45 10.37z"/><path class="cls-9" d="M220.67 59.96l-13.62 22.03 42.92-14.65-7.23-2.39-1.5-2.2-20.57-2.79z"/><path class="cls-10" d="M227.11 80.68l-4.68 8.4-9.02 4.07-6.36-11.16 20.06-1.31z"/><path class="cls-11" d="M213.41 93.15l-12.87-1.43-6.5-23.11 13.01 13.38 6.36 11.16z"/><path class="cls-12" d="M200.54 91.72l-8.77-9.52-5.31-5.89h9.75l4.33 15.41z"/><path class="cls-13" d="M225.28 46l-22.69-1.34 18.08 15.3L225.28 46z"/><path class="cls-14" d="M208.32 30.24l-15.41-3.89-24.8-11.42 21.4 19.83 18.81-4.52 22.43 19.67-25.45-1.62-15.79-13.53"/><path class="cls-15" d="M203.73 44.23l3.32 37.76 13.62-22.03-16.94-15.73z"/><path class="cls-16" d="M203.73 44.23L190.97 61.9l3.07 6.71 13.01 13.38-3.32-37.76z"/><path class="cls-17" d="M190.97 61.9l-12.18-8.61 7.67 23.02h9.75l-2.17-7.7-3.07-6.71z"/><path class="cls-18" d="M173.01 80.68l3.79-.3 3.4 2.07 1.86 1.77 2.6-.2 1.39-2.03 5.72.21-5.31-5.89-6.62-6.62-6.83 10.99z"/><path class="cls-19" d="M178.79 53.29l7.67 23.02-18.44-15.77 10.77-7.25z"/><path class="cls-20" d="M191.11 34.51l-.14 27.39-12.18-8.61 12.18-19.11-12.18 19.11-5.21-36.16 17.53 17.38z"/><path class="cls-21" d="M169.77 59.37l3.24 21.31 6.83-10.99-10.07-10.32z"/><path class="cls-22" d="M181.76 55.39L160.02 65.9l15.25-37.04 6.49 26.53z"/><path class="cls-23" d="M173.01 80.68l-25.02.46 12.03-15.24 9.75-6.53 3.24 21.31z"/><path class="cls-24" d="M173.58 17.13L154.22 6.91l21.05 21.95-1.69-11.73z"/><path class="cls-25" d="M160.02 65.9l-9.76-35.86 25.01-1.18-15.25 37.04z"/><path class="cls-26" d="M154.22 6.91l-3.96 23.13 25.01-1.18-21.05-21.95z"/><path class="cls-21" d="M154.22 6.91L127.9 1.04l22.36 29 3.96-23.13z"/><path class="cls-27" d="M160.02 65.9l-12.03 15.24-17.31-28.83 29.34 13.59z"/><path class="cls-28" d="M130.68 52.31l19.58-22.27 9.76 35.86-29.34-13.59z"/><path class="cls-20" d="M127.9 1.04l-16.14 19.39 38.5 9.61-22.36-29z"/><path class="cls-29" d="M130.68 52.31l-18.92-31.88 38.5 9.61-19.58 22.27z"/><path class="cls-30" d="M147.99 81.14l-33.48.42 16.17-29.25 17.31 28.83z"/><path class="cls-31" d="M127.9 1.04L110.11 0 90.64 1.04l21.12 19.39L127.9 1.04z"/><path class="cls-32" d="M94.38 51.12l26.5 18.91 9.8-17.72-36.3-1.19z"/><path class="cls-33" d="M114.51 81.56L94.38 51.12l26.5 18.91-6.37 11.53z"/><path class="cls-34" d="M94.38 51.12l-11.15-31.5 28.53.81-17.38 30.69z"/><path class="cls-33" d="M90.64 1.04L72.03 2.58l11.49 17.85h28.24L90.64 1.04z"/><path class="cls-35" d="M83.52 20.43l-19.21 1.54 30.07 29.15-10.86-30.69z"/><path class="cls-36" d="M72.03 2.58l-22 2.84 14.28 16.55 19.21-1.54L72.03 2.58z"/><path class="cls-37" d="M62.98 20.43l31.4 30.69-21.1-2.22-1.97-.21-12.43-1.31 4.1-26.95z"/><path class="cls-38" d="M114.51 81.56L94.38 51.12l-16.59-1.75 36.72 32.19z"/><path class="cls-38" d="M77.79 49.37l3.09 19.24h18.86L77.79 49.37z"/><path class="cls-39" d="M114.51 81.56l-32.75.41-.88-13.36h18.86l14.77 12.95z"/><path class="cls-38" d="M58.88 47.38l22 21.23-3.09-19.24-18.91-1.99z"/><path class="cls-40" d="M80.88 68.61L58.27 82.2l23.49-.23-.88-13.36z"/><path class="cls-2" d="M49.97 5.35l9.1 43.42 5.21-26.84L49.97 5.35z"/><path class="cls-32" d="M50.03 5.42l-9.39.48-13.46 1.85 5.4 2.44-.53 2.08-5.09 5.91L50.03 5.42z"/><path class="cls-33" d="M26.96 18.18l9.17 5.87 20.61 13.19-6.71-31.82-23.07 12.76z"/><path class="cls-41" d="M31.01 41.33l25.73-4.09-29.78-19.06 4.05 23.15z"/><path class="cls-42" d="M26.96 18.18L14.27 32.95l16.74 8.38-4.05-23.15z"/><path class="cls-43" d="M56.74 37.24l2.05 10.16L60.94 58 31.01 41.33l25.73-4.09z"/><path class="cls-44" d="M58.27 82.2l-5.82 7.02-8.97 3.93-7.33-16.84 22.12 5.89z"/><path class="cls-45" d="M60.94 58L36.15 76.31l22.12 5.89 6.72-4.04L60.94 58z"/><path class="cls-46" d="M43.48 93.15l-11.06-1.84-9.41-9.32 13.14-5.68 7.33 16.84z"/><path class="cls-47" d="M31.01 41.33l13.33 28.93L60.94 58 31.01 41.33z"/><path class="cls-48" d="M14.27 32.95v19.36l16.74-10.98-16.74-8.38z"/><path class="cls-49" d="M44.34 70.26L14.27 52.31l16.74-10.98 13.33 28.93z"/><path class="cls-50" d="M14.27 52.31l8.74 29.68 13.14-5.68 8.19-6.05-30.07-17.95z"/><path class="cls-44" d="M14.27 32.95l-9.3 9.68-3.72 6.14 13.02 3.54V32.95z"/><path class="cls-51" d="M1.25 48.77L0 58l1.17 9.13 13.1-14.82-13.02-3.54z"/><path class="cls-52" d="M23.01 81.99l-7.25-.02-5.99-5.66 7.58-13.53 5.66 19.21z"/><path class="cls-53" d="M14.27 52.31l3.08 10.47-7.58 13.53-5.42-.9-3.37-3.02.19-5.26 13.1-14.82z"/><path class="cls-54" d="M190.89 34.29l.08 27.61 12.76-17.67-12.84-9.94z"/></g></g></g></svg>