<svg xmlns="http://www.w3.org/2000/svg" viewBox="0 0 23.28 21.68"><defs><style>.cls-1{fill:#fff}</style></defs><title>Ресурс 3</title><g id="Слой_2" data-name="Слой 2"><g id="_1920" data-name="1920"><g id="header"><path class="cls-1" d="M22.89 9.8l-3.53-3.53V2.19a1.33 1.33 0 0 0-2.67 0V3.6L14.07 1a3.51 3.51 0 0 0-4.86 0L.39 9.8a1.33 1.33 0 0 0 1.89 1.89l8.82-8.83a.79.79 0 0 1 1.08 0L21 11.69a1.33 1.33 0 1 0 1.89-1.89z"/><path class="cls-1" d="M12.11 5.4a.66.66 0 0 0-.93 0l-7.76 7.75a.66.66 0 0 0-.19.46v5.66a2.4 2.4 0 0 0 2.4 2.4h3.84v-6h4.34v6h3.84a2.4 2.4 0 0 0 2.4-2.4v-5.65a.65.65 0 0 0-.19-.46z"/></g></g></g></svg>