<svg xmlns="http://www.w3.org/2000/svg" viewBox="0 0 36 36"><defs><style>.cls-1{fill:#fff}</style></defs><title>Ресурс 8</title><g id="Слой_2" data-name="Слой 2"><g id="_1280" data-name="1280"><path class="cls-1" d="M18 0a18 18 0 1 0 18 18A18 18 0 0 0 18 0zm9.13 19.95a34.23 34.23 0 0 1 2.48 2.49 7.07 7.07 0 0 1 .89 1.28c.34.66 0 1.39-.56 1.43h-3.69a2.85 2.85 0 0 1-2.35-1c-.51-.52-1-1.07-1.47-1.61a3.45 3.45 0 0 0-.66-.59.77.77 0 0 0-1.23.3 3.86 3.86 0 0 0-.39 1.75c0 .87-.3 1.1-1.17 1.14A9.44 9.44 0 0 1 13.69 24a11.65 11.65 0 0 1-3.55-3.32 44.8 44.8 0 0 1-4.67-8.33c-.29-.66-.08-1 .65-1h3.61a1.06 1.06 0 0 1 1 .75 22.41 22.41 0 0 0 2.45 4.53 3.88 3.88 0 0 0 .93 1 .56.56 0 0 0 1-.28 3.09 3.09 0 0 0 .21-1 14.21 14.21 0 0 0-.06-3.33A1.39 1.39 0 0 0 14 11.8c-.35-.07-.3-.2-.13-.4a1.33 1.33 0 0 1 1.13-.56h4.17c.66.13.8.42.89 1.08v4.63c0 .26.13 1 .59 1.18s.61-.17.83-.41a14.4 14.4 0 0 0 2.35-3.61c.28-.57.52-1.16.76-1.75a.9.9 0 0 1 .94-.65h4a2.09 2.09 0 0 1 .36 0c.68.12.86.41.65 1.07a10 10 0 0 1-1.54 2.8c-.67.93-1.39 1.82-2 2.75s-.63 1.28.13 2.02z" id="Футер"/></g></g></svg>