<svg xmlns="http://www.w3.org/2000/svg" xmlns:xlink="http://www.w3.org/1999/xlink" viewBox="0 0 433.33 805.78"><defs><style>.cls-1,.cls-10,.cls-100,.cls-101,.cls-102,.cls-103,.cls-104,.cls-105,.cls-106,.cls-107,.cls-108,.cls-109,.cls-11,.cls-110,.cls-12,.cls-13,.cls-14,.cls-15,.cls-16,.cls-17,.cls-18,.cls-19,.cls-20,.cls-21,.cls-22,.cls-23,.cls-24,.cls-25,.cls-26,.cls-27,.cls-28,.cls-29,.cls-30,.cls-31,.cls-32,.cls-33,.cls-34,.cls-35,.cls-36,.cls-37,.cls-38,.cls-39,.cls-40,.cls-41,.cls-42,.cls-43,.cls-44,.cls-45,.cls-46,.cls-47,.cls-48,.cls-49,.cls-5,.cls-50,.cls-51,.cls-52,.cls-53,.cls-54,.cls-55,.cls-56,.cls-57,.cls-58,.cls-59,.cls-6,.cls-60,.cls-61,.cls-62,.cls-63,.cls-64,.cls-65,.cls-66,.cls-67,.cls-68,.cls-69,.cls-7,.cls-70,.cls-71,.cls-72,.cls-73,.cls-74,.cls-75,.cls-76,.cls-77,.cls-78,.cls-79,.cls-8,.cls-80,.cls-81,.cls-82,.cls-83,.cls-84,.cls-85,.cls-86,.cls-87,.cls-88,.cls-89,.cls-9,.cls-90,.cls-91,.cls-92,.cls-93,.cls-94,.cls-95,.cls-96,.cls-97,.cls-98,.cls-99{fill:none}.cls-2{clip-path:url(#clip-path)}.cls-10,.cls-100,.cls-101,.cls-102,.cls-103,.cls-104,.cls-105,.cls-106,.cls-107,.cls-108,.cls-109,.cls-11,.cls-110,.cls-111,.cls-112,.cls-12,.cls-13,.cls-14,.cls-15,.cls-16,.cls-17,.cls-18,.cls-19,.cls-20,.cls-21,.cls-22,.cls-23,.cls-24,.cls-25,.cls-26,.cls-27,.cls-28,.cls-29,.cls-3,.cls-30,.cls-31,.cls-32,.cls-33,.cls-34,.cls-35,.cls-36,.cls-37,.cls-38,.cls-39,.cls-4,.cls-40,.cls-41,.cls-42,.cls-43,.cls-44,.cls-45,.cls-46,.cls-47,.cls-48,.cls-49,.cls-5,.cls-50,.cls-51,.cls-52,.cls-53,.cls-54,.cls-55,.cls-56,.cls-57,.cls-58,.cls-59,.cls-6,.cls-60,.cls-61,.cls-62,.cls-63,.cls-64,.cls-65,.cls-66,.cls-67,.cls-68,.cls-69,.cls-7,.cls-70,.cls-71,.cls-72,.cls-73,.cls-74,.cls-75,.cls-76,.cls-77,.cls-78,.cls-79,.cls-8,.cls-80,.cls-81,.cls-82,.cls-83,.cls-84,.cls-85,.cls-86,.cls-87,.cls-88,.cls-89,.cls-9,.cls-90,.cls-91,.cls-92,.cls-93,.cls-94,.cls-95,.cls-96,.cls-97,.cls-98,.cls-99{stroke-miterlimit:10}.cls-111,.cls-3{stroke:url(#Безымянный_градиент_14)}.cls-4{stroke:url(#Безымянный_градиент_14-2)}.cls-5{stroke:url(#Безымянный_градиент_14-3)}.cls-6{stroke:url(#Безымянный_градиент_14-4)}.cls-7{stroke:url(#Безымянный_градиент_14-5)}.cls-8{stroke:url(#Безымянный_градиент_14-6)}.cls-9{stroke:url(#Безымянный_градиент_14-7)}.cls-10{stroke:url(#Безымянный_градиент_14-8)}.cls-11{stroke:url(#Безымянный_градиент_14-9)}.cls-12{stroke:url(#Безымянный_градиент_14-10)}.cls-13{stroke:url(#Безымянный_градиент_14-11)}.cls-14{stroke:url(#Безымянный_градиент_14-12)}.cls-15{stroke:url(#Безымянный_градиент_14-13)}.cls-16{stroke:url(#Безымянный_градиент_14-14)}.cls-17{stroke:url(#Безымянный_градиент_14-15)}.cls-18{stroke:url(#Безымянный_градиент_14-16)}.cls-19{stroke:url(#Безымянный_градиент_14-17)}.cls-20{stroke:url(#Безымянный_градиент_14-18)}.cls-21{stroke:url(#Безымянный_градиент_14-19)}.cls-22{stroke:url(#Безымянный_градиент_14-20)}.cls-23{stroke:url(#Безымянный_градиент_14-21)}.cls-24{stroke:url(#Безымянный_градиент_14-22)}.cls-25{stroke:url(#Безымянный_градиент_14-23)}.cls-26{stroke:url(#Безымянный_градиент_14-24)}.cls-27{stroke:url(#Безымянный_градиент_14-25)}.cls-28{stroke:url(#Безымянный_градиент_14-26)}.cls-29{stroke:url(#Безымянный_градиент_14-27)}.cls-30{stroke:url(#Безымянный_градиент_14-28)}.cls-31{stroke:url(#Безымянный_градиент_14-29)}.cls-32{stroke:url(#Безымянный_градиент_14-30)}.cls-33{stroke:url(#Безымянный_градиент_14-31)}.cls-34{stroke:url(#Безымянный_градиент_14-32)}.cls-35{stroke:url(#Безымянный_градиент_14-33)}.cls-36{stroke:url(#Безымянный_градиент_14-34)}.cls-37{stroke:url(#Безымянный_градиент_14-35)}.cls-38{stroke:url(#Безымянный_градиент_14-36)}.cls-39{stroke:url(#Безымянный_градиент_14-37)}.cls-40{stroke:url(#Безымянный_градиент_14-38)}.cls-41{stroke:url(#Безымянный_градиент_14-39)}.cls-42{stroke:url(#Безымянный_градиент_14-40)}.cls-43{stroke:url(#Безымянный_градиент_14-41)}.cls-44{stroke:url(#Безымянный_градиент_14-42)}.cls-45{stroke:url(#Безымянный_градиент_14-43)}.cls-46{stroke:url(#Безымянный_градиент_14-44)}.cls-47{stroke:url(#Безымянный_градиент_14-45)}.cls-48{stroke:url(#Безымянный_градиент_14-46)}.cls-49{stroke:url(#Безымянный_градиент_14-47)}.cls-50{stroke:url(#Безымянный_градиент_14-48)}.cls-51{stroke:url(#Безымянный_градиент_14-49)}.cls-52{stroke:url(#Безымянный_градиент_14-50)}.cls-53{stroke:url(#Безымянный_градиент_14-51)}.cls-54{stroke:url(#Безымянный_градиент_14-52)}.cls-55{stroke:url(#Безымянный_градиент_14-53)}.cls-56{stroke:url(#Безымянный_градиент_14-54)}.cls-57{stroke:url(#Безымянный_градиент_14-55)}.cls-58{stroke:url(#Безымянный_градиент_14-56)}.cls-59{stroke:url(#Безымянный_градиент_14-57)}.cls-60{stroke:url(#Безымянный_градиент_14-58)}.cls-61{stroke:url(#Безымянный_градиент_14-59)}.cls-62{stroke:url(#Безымянный_градиент_14-60)}.cls-63{stroke:url(#Безымянный_градиент_14-61)}.cls-64{stroke:url(#Безымянный_градиент_14-62)}.cls-65{stroke:url(#Безымянный_градиент_14-63)}.cls-66{stroke:url(#Безымянный_градиент_14-64)}.cls-67{stroke:url(#Безымянный_градиент_14-65)}.cls-68{stroke:url(#Безымянный_градиент_14-66)}.cls-69{stroke:url(#Безымянный_градиент_14-67)}.cls-70{stroke:url(#Безымянный_градиент_14-68)}.cls-71{stroke:url(#Безымянный_градиент_14-69)}.cls-72{stroke:url(#Безымянный_градиент_14-70)}.cls-73{stroke:url(#Безымянный_градиент_14-71)}.cls-74{stroke:url(#Безымянный_градиент_14-72)}.cls-75{stroke:url(#Безымянный_градиент_14-73)}.cls-76{stroke:url(#Безымянный_градиент_14-74)}.cls-77{stroke:url(#Безымянный_градиент_14-75)}.cls-78{stroke:url(#Безымянный_градиент_14-76)}.cls-79{stroke:url(#Безымянный_градиент_14-77)}.cls-80{stroke:url(#Безымянный_градиент_14-78)}.cls-81{stroke:url(#Безымянный_градиент_14-79)}.cls-82{stroke:url(#Безымянный_градиент_14-80)}.cls-83{stroke:url(#Безымянный_градиент_14-81)}.cls-84{stroke:url(#Безымянный_градиент_14-82)}.cls-85{stroke:url(#Безымянный_градиент_14-83)}.cls-86{stroke:url(#Безымянный_градиент_14-84)}.cls-87{stroke:url(#Безымянный_градиент_14-85)}.cls-88{stroke:url(#Безымянный_градиент_14-86)}.cls-89{stroke:url(#Безымянный_градиент_14-87)}.cls-90{stroke:url(#Безымянный_градиент_14-88)}.cls-91{stroke:url(#Безымянный_градиент_14-89)}.cls-92{stroke:url(#Безымянный_градиент_14-90)}.cls-93{stroke:url(#Безымянный_градиент_14-91)}.cls-94{stroke:url(#Безымянный_градиент_14-92)}.cls-95{stroke:url(#Безымянный_градиент_14-93)}.cls-96{stroke:url(#Безымянный_градиент_14-94)}.cls-97{stroke:url(#Безымянный_градиент_14-95)}.cls-98{stroke:url(#Безымянный_градиент_14-96)}.cls-99{stroke:url(#Безымянный_градиент_14-97)}.cls-100{stroke:url(#Безымянный_градиент_14-98)}.cls-101{stroke:url(#Безымянный_градиент_14-99)}.cls-102{stroke:url(#Безымянный_градиент_14-100)}.cls-103{stroke:url(#Безымянный_градиент_14-101)}.cls-104{stroke:url(#Безымянный_градиент_14-102)}.cls-105{stroke:url(#Безымянный_градиент_14-103)}.cls-106{stroke:url(#Безымянный_градиент_14-104)}.cls-107{stroke:url(#Безымянный_градиент_14-105)}.cls-108{stroke:url(#Безымянный_градиент_14-106)}.cls-109{stroke:url(#Безымянный_градиент_14-107)}.cls-110{stroke:url(#Безымянный_градиент_14-108)}.cls-111{opacity:.59;fill:url(#linear-gradient)}.cls-112{fill:url(#Безымянный_градиент_14-111);stroke:url(#Безымянный_градиент_14-112)}</style><clipPath id="clip-path"><path class="cls-1" d="M217.36 8.85H450.5v788.21H217.36z"/></clipPath><linearGradient id="Безымянный_градиент_14" x1="427.77" y1="401.93" x2="5.46" y2="401.93" gradientUnits="userSpaceOnUse"><stop offset="0" stop-color="#fff"/><stop offset="1" stop-color="#3f91ff"/></linearGradient><linearGradient id="Безымянный_градиент_14-2" x1="31.69" y1="713.15" x2="8.44" y2="713.15" xlink:href="#Безымянный_градиент_14"/><linearGradient id="Безымянный_градиент_14-3" x1="160.25" y1="643.48" x2="87.8" y2="643.48" xlink:href="#Безымянный_градиент_14"/><linearGradient id="Безымянный_градиент_14-4" x1="286.09" y1="378.38" x2="217.96" y2="378.38" xlink:href="#Безымянный_градиент_14"/><linearGradient id="Безымянный_градиент_14-5" x1="119.95" y1="705.43" x2="64.5" y2="705.43" xlink:href="#Безымянный_градиент_14"/><linearGradient id="Безымянный_градиент_14-6" x1="237.95" y1="354.65" x2="175.59" y2="354.65" xlink:href="#Безымянный_градиент_14"/><linearGradient id="Безымянный_градиент_14-7" x1="159.75" y1="705.18" x2="89.03" y2="705.18" xlink:href="#Безымянный_градиент_14"/><linearGradient id="Безымянный_градиент_14-8" x1="211.51" y1="194.82" x2="114.28" y2="194.82" xlink:href="#Безымянный_градиент_14"/><linearGradient id="Безымянный_градиент_14-9" x1="295.42" y1="489.78" x2="227.43" y2="489.78" xlink:href="#Безымянный_градиент_14"/><linearGradient id="Безымянный_градиент_14-10" x1="202.85" y1="617.11" x2="159.39" y2="617.11" xlink:href="#Безымянный_градиент_14"/><linearGradient id="Безымянный_градиент_14-11" x1="295.4" y1="460.48" x2="227.43" y2="460.48" xlink:href="#Безымянный_градиент_14"/><linearGradient id="Безымянный_градиент_14-12" x1="167.13" y1="616.27" x2="132.02" y2="616.27" xlink:href="#Безымянный_градиент_14"/><linearGradient id="Безымянный_градиент_14-13" x1="265.68" y1="608.72" x2="202.84" y2="608.72" xlink:href="#Безымянный_градиент_14"/><linearGradient id="Безымянный_градиент_14-14" x1="295.41" y1="531.82" x2="166.93" y2="531.82" xlink:href="#Безымянный_градиент_14"/><linearGradient id="Безымянный_градиент_14-15" x1="202.43" y1="705.46" x2="120.36" y2="705.46" xlink:href="#Безымянный_градиент_14"/><linearGradient id="Безымянный_градиент_14-16" x1="98.01" y1="618.56" x2="60.66" y2="618.56" xlink:href="#Безымянный_градиент_14"/><linearGradient id="Безымянный_градиент_14-17" x1="341.64" y1="187.92" x2="274.01" y2="187.92" xlink:href="#Безымянный_градиент_14"/><linearGradient id="Безымянный_градиент_14-18" x1="354.71" y1="239.19" x2="272.53" y2="239.19" xlink:href="#Безымянный_градиент_14"/><linearGradient id="Безымянный_градиент_14-19" x1="354.56" y1="273.56" x2="272.8" y2="273.56" xlink:href="#Безымянный_градиент_14"/><linearGradient id="Безымянный_градиент_14-20" x1="379.82" y1="182.59" x2="333.19" y2="182.59" xlink:href="#Безымянный_градиент_14"/><linearGradient id="Безымянный_градиент_14-21" x1="191.39" y1="264.17" x2="121.37" y2="264.17" xlink:href="#Безымянный_градиент_14"/><linearGradient id="Безымянный_градиент_14-22" x1="271.52" y1="234.77" x2="191.38" y2="234.77" xlink:href="#Безымянный_градиент_14"/><linearGradient id="Безымянный_градиент_14-23" x1="244.72" y1="695.54" x2="194.57" y2="695.54" xlink:href="#Безымянный_градиент_14"/><linearGradient id="Безымянный_градиент_14-24" x1="325.31" y1="596.24" x2="241.24" y2="596.24" xlink:href="#Безымянный_градиент_14"/><linearGradient id="Безымянный_градиент_14-25" x1="265.65" y1="678.29" x2="202.84" y2="678.29" xlink:href="#Безымянный_градиент_14"/><linearGradient id="Безымянный_градиент_14-26" x1="325.31" y1="528.74" x2="242.63" y2="528.74" xlink:href="#Безымянный_градиент_14"/><linearGradient id="Безымянный_градиент_14-27" x1="335.91" y1="377.95" x2="237.94" y2="377.95" xlink:href="#Безымянный_градиент_14"/><linearGradient id="Безымянный_градиент_14-28" x1="335.62" y1="362.23" x2="237.08" y2="362.23" xlink:href="#Безымянный_градиент_14"/><linearGradient id="Безымянный_градиент_14-29" x1="300.39" y1="273.33" x2="237.9" y2="273.33" xlink:href="#Безымянный_градиент_14"/><linearGradient id="Безымянный_градиент_14-30" x1="202.88" y1="705.25" x2="119.94" y2="705.25" xlink:href="#Безымянный_градиент_14"/><linearGradient id="Безымянный_градиент_14-31" x1="342.37" y1="445.45" x2="285.07" y2="445.45" xlink:href="#Безымянный_градиент_14"/><linearGradient id="Безымянный_градиент_14-32" x1="292.75" y1="105.24" x2="238.23" y2="105.24" xlink:href="#Безымянный_градиент_14"/><linearGradient id="Безымянный_градиент_14-33" x1="333.11" y1="163.05" x2="213.36" y2="163.05" xlink:href="#Безымянный_градиент_14"/><linearGradient id="Безымянный_градиент_14-34" x1="381.8" y1="452.36" x2="335.87" y2="452.36" xlink:href="#Безымянный_градиент_14"/><linearGradient id="Безымянный_градиент_14-35" x1="343.69" y1="700.93" x2="244.7" y2="700.93" xlink:href="#Безымянный_градиент_14"/><linearGradient id="Безымянный_градиент_14-36" x1="357.36" y1="679.48" x2="299.05" y2="679.48" xlink:href="#Безымянный_градиент_14"/><linearGradient id="Безымянный_градиент_14-37" x1="167.23" y1="577.45" x2="98.33" y2="577.45" xlink:href="#Безымянный_градиент_14"/><linearGradient id="Безымянный_градиент_14-38" x1="98.79" y1="628.42" x2="6.62" y2="628.42" xlink:href="#Безымянный_градиент_14"/><linearGradient id="Безымянный_градиент_14-39" x1="119.9" y1="227.93" x2="65.9" y2="227.93" xlink:href="#Безымянный_градиент_14"/><linearGradient id="Безымянный_градиент_14-40" x1="332.26" y1="211.06" x2="156.3" y2="211.06" xlink:href="#Безымянный_градиент_14"/><linearGradient id="Безымянный_градиент_14-41" x1="67.13" y1="220.68" x2="65.44" y2="220.68" xlink:href="#Безымянный_градиент_14"/><linearGradient id="Безымянный_градиент_14-42" x1="264.17" y1="105.62" x2="176.51" y2="105.62" xlink:href="#Безымянный_градиент_14"/><linearGradient id="Безымянный_градиент_14-43" x1="357.17" y1="655.18" x2="265.63" y2="655.18" xlink:href="#Безымянный_градиент_14"/><linearGradient id="Безымянный_градиент_14-44" x1="227.33" y1="425.37" x2="188.06" y2="425.37" xlink:href="#Безымянный_градиент_14"/><linearGradient id="Безымянный_градиент_14-45" x1="299.06" y1="678.29" x2="244.71" y2="678.29" xlink:href="#Безымянный_градиент_14"/><linearGradient id="Безымянный_градиент_14-46" x1="203.53" y1="663.49" x2="201.39" y2="663.49" xlink:href="#Безымянный_градиент_14"/><linearGradient id="Безымянный_градиент_14-47" x1="284.78" y1="424.29" x2="217.97" y2="424.29" xlink:href="#Безымянный_градиент_14"/><linearGradient id="Безымянный_градиент_14-48" x1="204.27" y1="519.95" x2="147.56" y2="519.95" xlink:href="#Безымянный_градиент_14"/><linearGradient id="Безымянный_градиент_14-49" x1="188.27" y1="500.86" x2="126.34" y2="500.86" xlink:href="#Безымянный_градиент_14"/><linearGradient id="Безымянный_градиент_14-50" x1="245.39" y1="493.97" x2="187.76" y2="493.97" xlink:href="#Безымянный_градиент_14"/><linearGradient id="Безымянный_градиент_14-51" x1="148.21" y1="530.25" x2="97.76" y2="530.25" xlink:href="#Безымянный_градиент_14"/><linearGradient id="Безымянный_градиент_14-52" x1="126.35" y1="487.94" x2="124.64" y2="487.94" xlink:href="#Безымянный_градиент_14"/><linearGradient id="Безымянный_градиент_14-53" x1="241.93" y1="607.4" x2="166.95" y2="607.4" xlink:href="#Безымянный_градиент_14"/><linearGradient id="Безымянный_градиент_14-54" x1="217.98" y1="425.5" x2="148.54" y2="425.5" xlink:href="#Безымянный_градиент_14"/><linearGradient id="Безымянный_градиент_14-55" x1="187.82" y1="456.58" x2="125.42" y2="456.58" xlink:href="#Безымянный_градиент_14"/><linearGradient id="Безымянный_градиент_14-56" x1="132.03" y1="617.5" x2="88.7" y2="617.5" xlink:href="#Безымянный_градиент_14"/><linearGradient id="Безымянный_градиент_14-57" x1="349.24" y1="86.63" x2="264.15" y2="86.63" xlink:href="#Безымянный_градиент_14"/><linearGradient id="Безымянный_градиент_14-58" x1="349.23" y1="105.22" x2="292.63" y2="105.22" xlink:href="#Безымянный_градиент_14"/><linearGradient id="Безымянный_градиент_14-59" x1="381.86" y1="161.44" x2="332.94" y2="161.44" xlink:href="#Безымянный_градиент_14"/><linearGradient id="Безымянный_градиент_14-60" x1="290.09" y1="41.36" x2="235.6" y2="41.36" xlink:href="#Безымянный_градиент_14"/><linearGradient id="Безымянный_градиент_14-61" x1="264.18" y1="123.79" x2="173.95" y2="123.79" xlink:href="#Безымянный_градиент_14"/><linearGradient id="Безымянный_градиент_14-62" x1="151.61" y1="184.39" x2="83.67" y2="184.39" xlink:href="#Безымянный_градиент_14"/><linearGradient id="Безымянный_градиент_14-63" x1="356.27" y1="334.15" x2="300.38" y2="334.15" xlink:href="#Безымянный_градиент_14"/><linearGradient id="Безымянный_градиент_14-64" x1="391.77" y1="490.32" x2="349.97" y2="490.32" xlink:href="#Безымянный_градиент_14"/><linearGradient id="Безымянный_градиент_14-65" x1="391.78" y1="535.64" x2="325.3" y2="535.64" xlink:href="#Безымянный_градиент_14"/><linearGradient id="Безымянный_градиент_14-66" x1="349.9" y1="503.72" x2="295.39" y2="503.72" xlink:href="#Безымянный_градиент_14"/><linearGradient id="Безымянный_градиент_14-67" x1="381.8" y1="335.55" x2="335.6" y2="335.55" xlink:href="#Безымянный_градиент_14"/><linearGradient id="Безымянный_градиент_14-68" x1="381.8" y1="389.82" x2="335.8" y2="389.82" xlink:href="#Безымянный_градиент_14"/><linearGradient id="Безымянный_градиент_14-69" x1="213.66" y1="145.27" x2="151.17" y2="145.27" xlink:href="#Безымянный_градиент_14"/><linearGradient id="Безымянный_градиент_14-70" x1="84.39" y1="163.29" x2="15.08" y2="163.29" xlink:href="#Безымянный_градиент_14"/><linearGradient id="Безымянный_градиент_14-71" x1="148.57" y1="394" x2="52.14" y2="394" xlink:href="#Безымянный_градиент_14"/><linearGradient id="Безымянный_градиент_14-72" x1="144.9" y1="342.29" x2="86.04" y2="342.29" xlink:href="#Безымянный_градиент_14"/><linearGradient id="Безымянный_градиент_14-73" x1="120.27" y1="267.48" x2="30.21" y2="267.48" xlink:href="#Безымянный_градиент_14"/><linearGradient id="Безымянный_градиент_14-74" x1="97.41" y1="449.43" x2="30.88" y2="449.43" xlink:href="#Безымянный_градиент_14"/><linearGradient id="Безымянный_градиент_14-75" x1="61.13" y1="509.2" x2="6.62" y2="509.2" xlink:href="#Безымянный_градиент_14"/><linearGradient id="Безымянный_градиент_14-76" x1="126.19" y1="106.88" x2="55.47" y2="106.88" xlink:href="#Безымянный_градиент_14"/><linearGradient id="Безымянный_градиент_14-77" x1="173.46" y1="126.81" x2="127.05" y2="126.81" xlink:href="#Безымянный_градиент_14"/><linearGradient id="Безымянный_градиент_14-78" x1="150.19" y1="137.59" x2="84.05" y2="137.59" xlink:href="#Безымянный_градиент_14"/><linearGradient id="Безымянный_градиент_14-79" x1="65.45" y1="213.7" x2="17.49" y2="213.7" xlink:href="#Безымянный_градиент_14"/><linearGradient id="Безымянный_градиент_14-80" x1="17.5" y1="155.54" x2="15.09" y2="155.54" xlink:href="#Безымянный_градиент_14"/><linearGradient id="Безымянный_градиент_14-81" x1="357.64" y1="602.16" x2="265.58" y2="602.16" xlink:href="#Безымянный_градиент_14"/><linearGradient id="Безымянный_градиент_14-82" x1="65.44" y1="183" x2="17.09" y2="183" xlink:href="#Безымянный_градиент_14"/><linearGradient id="Безымянный_градиент_14-83" x1="235.62" y1="44.65" x2="175.76" y2="44.65" xlink:href="#Безымянный_градиент_14"/><linearGradient id="Безымянный_градиент_14-84" x1="148.52" y1="454.46" x2="97.39" y2="454.46" xlink:href="#Безымянный_градиент_14"/><linearGradient id="Безымянный_градиент_14-85" x1="151.04" y1="393.92" x2="86.03" y2="393.92" xlink:href="#Безымянный_градиент_14"/><linearGradient id="Безымянный_градиент_14-86" x1="217.99" y1="397.18" x2="145.04" y2="397.18" xlink:href="#Безымянный_градиент_14"/><linearGradient id="Безымянный_градиент_14-87" x1="88.71" y1="672.4" x2="31.18" y2="672.4" xlink:href="#Безымянный_градиент_14"/><linearGradient id="Безымянный_градиент_14-88" x1="124.65" y1="529.64" x2="61.11" y2="529.64" xlink:href="#Безымянный_градиент_14"/><linearGradient id="Безымянный_градиент_14-89" x1="98.89" y1="557.32" x2="29.21" y2="557.32" xlink:href="#Безымянный_градиент_14"/><linearGradient id="Безымянный_градиент_14-90" x1="125.48" y1="467.33" x2="61.11" y2="467.33" xlink:href="#Безымянный_градиент_14"/><linearGradient id="Безымянный_градиент_14-91" x1="121.38" y1="310.48" x2="119.9" y2="310.48" xlink:href="#Безымянный_градиент_14"/><linearGradient id="Безымянный_градиент_14-92" x1="122.06" y1="311.78" x2="120.27" y2="311.78" xlink:href="#Безымянный_градиент_14"/><linearGradient id="Безымянный_градиент_14-93" x1="395.07" y1="679.29" x2="343.67" y2="679.29" xlink:href="#Безымянный_градиент_14"/><linearGradient id="Безымянный_градиент_14-94" x1="155.33" y1="263.28" x2="114.29" y2="263.28" xlink:href="#Безымянный_градиент_14"/><linearGradient id="Безымянный_градиент_14-95" x1="123.4" y1="313.77" x2="120.26" y2="313.77" xlink:href="#Безымянный_градиент_14"/><linearGradient id="Безымянный_градиент_14-96" x1="272.51" y1="285.66" x2="122.05" y2="285.66" xlink:href="#Безымянный_градиент_14"/><linearGradient id="Безымянный_градиент_14-97" x1="217.99" y1="348.38" x2="123.37" y2="348.38" xlink:href="#Безымянный_градиент_14"/><linearGradient id="Безымянный_градиент_14-98" x1="364.62" y1="762.3" x2="297.36" y2="762.3" xlink:href="#Безымянный_градиент_14"/><linearGradient id="Безымянный_градиент_14-99" x1="297.37" y1="757.91" x2="237.1" y2="757.91" xlink:href="#Безымянный_градиент_14"/><linearGradient id="Безымянный_градиент_14-100" x1="343.69" y1="750.07" x2="244.7" y2="750.07" xlink:href="#Безымянный_градиент_14"/><linearGradient id="Безымянный_градиент_14-101" x1="395.75" y1="728.27" x2="343.66" y2="728.27" xlink:href="#Безымянный_градиент_14"/><linearGradient id="Безымянный_градиент_14-102" x1="418.75" y1="619.71" x2="392.43" y2="619.71" xlink:href="#Безымянный_градиент_14"/><linearGradient id="Безымянный_градиент_14-103" x1="244.72" y1="757.91" x2="189.51" y2="757.91" xlink:href="#Безымянный_градиент_14"/><linearGradient id="Безымянный_градиент_14-104" x1="194.58" y1="750.44" x2="120.35" y2="750.44" xlink:href="#Безымянный_градиент_14"/><linearGradient id="Безымянный_градиент_14-105" x1="121.21" y1="750.69" x2="29.62" y2="750.69" xlink:href="#Безымянный_градиент_14"/><linearGradient id="Безымянный_градиент_14-106" x1="189.55" y1="770.14" x2="103.24" y2="770.14" xlink:href="#Безымянный_градиент_14"/><linearGradient id="Безымянный_градиент_14-107" x1="244.73" y1="744.12" x2="189.52" y2="744.12" xlink:href="#Безымянный_градиент_14"/><linearGradient id="Безымянный_градиент_14-108" x1="395.76" y1="622.01" x2="357.63" y2="622.01" xlink:href="#Безымянный_градиент_14"/><linearGradient id="linear-gradient" x1="3369.74" y1="4079.53" x2="4166.87" y2="4079.53" gradientTransform="rotate(90 3831.16 465.01)" gradientUnits="userSpaceOnUse"><stop offset="0" stop-color="#50504e"/><stop offset=".04" stop-color="#626261"/><stop offset=".19" stop-color="#a5a5a4"/><stop offset=".32" stop-color="#d6d6d5"/><stop offset=".42" stop-color="#f4f4f4"/><stop offset=".48" stop-color="#fff"/><stop offset="1"/></linearGradient><linearGradient id="Безымянный_градиент_14-111" x1="432.83" y1="402.89" x2=".5" y2="402.89" xlink:href="#Безымянный_градиент_14"/><linearGradient id="Безымянный_градиент_14-112" x1="433.33" y1="402.89" x2="0" y2="402.89" xlink:href="#Безымянный_градиент_14"/></defs><title>Ресурс 3 1</title><g id="Слой_2" data-name="Слой 2"><g id="_1920" data-name="1920"><g class="cls-2" id="header"><path class="cls-3" d="M6.17 652l-.13.27 24.77 33.41c.8 1 5.74 4.71 33 23.46l-35 65.35-11.34 23.67.9.42 11.53-23.86 72.67 18-.13.34.56-.06-2.49 6.22.93.36 2.75-6.87 83.89-20.12-22.68 25.5.75.65 23.45-26.37 47 27.22v.39l60.63-15.77.19.24.2-.25 67.7 15.8-20.81-73.55L395 758l-30.12 38.72.79.6 29.4-37.8-3.77 41.07 1 .09 3.91-42.62.25-.32-.23-.14.06-62 23-72.6-26.35-79.29-.05-2.44-35.3 91.23-31.61-68 66.79-25.08-.53-.41-9.94-97.52.09-.2-.1-.1V340.65l43.88 100.67-33 99.79.95.31 33.07-100.14-45-103.13L399.82 261l-16.46-65.06 13.46-183.18-1-.07-13.45 183.25v.06l16.44 65-17.14 75.6-26.58-65.36 27.24-80.09L349.78 52l39.7-42.83-.74-.67L349.32 51 324.41 8.6l-.86.49 24.94 42.48L265 75.43l26.09-70.17-55.4 37.88-34.88-39.55-25.21 80-42.68-62.79c7.59-5.33 18.88-13.11 19.91-13.45l-.32-.94c-1.52.5-18.62 12.49-20.57 13.86l-.4.28 43.49 64-.69.35-.62-1.9-.72 2.54-47.08 23.65L102 68.54a.63.63 0 0 0 0-.2l28.66-44.94-.84-.53L101.65 67c-1-2.57-4.69-9.49-16.79-29.37C76 23.17 67 8.73 66.86 8.59l-.86.52c13.63 21.59 33.58 54.16 34.93 58.75-6.29-1.67-61.48-20-68.5-22.29l31.88-34.42-.74-.67L30.66 46l.73.24c2.58.86 60.14 20 68.86 22.42l-44.56 35.45-22.18-56-.93.36 22.33 56.4-39 47.63L31.54 48.33v-.16L9.55 8.61l-.87.48 21.85 39.26-15.88 105.43-.4.1.32.43-.24 1.58.74-.91 1.93 2.59 12 111.28.94-.1-.18.25-.35.47 90.07 44-33.8 49.41-34.34 26.61.08.06-20.05 22.3-.65-138.15 53.56 87.8.85-.51-55.42-90.86.67 142.87-.06.07v.14l-24.23 105v.12l22.58 87zm1 .16l22.43-46.53 68.57-33.56-.62 1C94.09 579 76.72 608 60.56 635l-29-28.82-.71.69 29.18 29c-13.72 23-26.45 44.33-28.88 48.56zm60.2-431l-1-1.59.19-.84 17.16-69 30 72.5 5.48 83.43L68 222.18l43.95.31v-1zm-1.26-.16l.12.2h-.17zm264.16-60.61l-56.67 57-2.18 1.2-58.72-12.65L191.24 262l-34-45.37 3-.43 52.39-11.06-.1.27zm-92.48-26.27l-.08.17L177.76 87l85.59-10.19zm26.45-56.88l27.71 44-52.85 12.36zm-25.78 57.65l-.11-.09 54.39-12.8c2.27.94 24.48 22 39.46 36.57l-118 45.18zm103.38 308.17l-46.11 49.13-10.11-63.67 49.92-30.08zm-5.27-44.41l44.63 42.84c-11 23.83-27.43 58.68-30.94 64.45-1-8.57-7.33-62.2-7.4-62.77l-.12-1.06zm-36.78 278l56.9-41.86-13.35 89.44zm42.66 48.09l-96.39-8.55L299 677.21zm-43.33-48.82l-32.36-35.36c3.16 0 13.09-.6 45-2.89 18.61-1.33 37.38-2.74 43.66-3.2zm-.8.59l-52.75 38.81L265.89 641zm-172.23-187.3l21.49 43.71-48.84 37.59 26.3-81zm-.67-.83l.11-.33.12.25zm.6-4.12l22.74-58.86c3.37 3.11 23.78 26.87 38.18 43.85-6 1.61-32.42 9.92-60.33 18.75l-.64-1.31.43-1.33.06-.18zm25.18-60.72h.39v-.19l65.49-40.88-29.27 86.3c-3-3.54-10.7-12.6-18.41-21.55-14-16.22-18.42-21.09-20-22.5zm16.43 147.16l73.2-17.93.58 2-38.58 106.43zm35.13 93.06h-.31l.21-.22zm15.79-281.48l65.35 45.53-56.32 38.73c-1.9-4.66-6.36-51.98-9.03-84.25zM244.7 512l-40.1 8.17-15.4-49.66-.09-.17-.32-.38 38.32-2.16zm-23.43-88.11c3.12 32.42 4.58 40.71 5.36 42.95l-37.87 2.13 28.9-85.22c.53 6.09 1.98 23.13 3.61 40.1zm-17.56 96.71l-35.95 47.84v-.17l-.6.88-18.89-36-.15-.29.13-.19c.1-.15 10.31-15.58 20.32-31 14.06-21.61 18.31-28.6 19.53-31l.16.19zm-55.79 10.76L127 488.91c29.25-9.26 55.39-17.47 60.26-18.78-2.71 5.39-24.34 38.54-39.34 61.23zM166.49 570h-.2l.11.29-34.22 50.41-.07.07L99 571.54l48.68-37.45zm-7.16 93.09c-31 .77-67.68 1.74-70.3 1.81h-.38l.46-.86 42.84-41.69zm-.23-2.09l-26.44-39.33.25-.24L166.47 572zm8.3-88.08l34.72 89.24c-4 0-21.79.43-42.18.93zm74.48-16.43c8.37 29.38 22.29 78.62 23.23 83.28l-61.43 22.08zm0-3.71l-.2-.69-.13-.46-73.36 18 36.38-48.42 40.28-8.2-3.43 38.51 1 .09 3.46-38.8h.22v-.08l47.65-18.15zm3.81-41l-17.35-43.57L294 493.27zm-17.17-44.57l56.12-38.59 10.16 64zm-9.63-85.82l.52-.33-.74-.1L238 329.28l46.82 98zm-1.14-.79l-.34-.24-40.74-27.94 60.44-23.47zm-86.35 241l-42 40.92 9.17-89 .08-.77zm-43.09 41.04l-27-26.86c15.26-25.54 31.57-52.8 36-60.19zm.14 2.6l30.46 80.28c-12.8-8.69-35-23.79-53.77-36.72zm1.29.6c5.33-.14 39.72-1 69.2-1.78l-39 81.5zm70.32-1.84c19.75-.49 37.08-.9 41.62-.93L120.54 747l-.06-.16zm41.7.42l-7.64 64.33L121.94 747zm1.06-.5v.09l.15-.4 40.85 52.61-48.7 12.27zm.83-1.09l61.26-22-20.41 74.61zM265.88 639c-.87-3.94-5.06-19.66-23.42-84.11l.19-.52-.38-.13-.34-1.19 82.46 11.59zm-22.25-86.72l51.62-58 29.26 69.41zm42.27-125l-46.68-97.69 96 67.86v.08zM238.68 328c26.27.28 57 .54 61.4.32l34.18 67.24zm-.09-1l34-106.31 27.16 106.61c-5.11.18-44.75-.19-61.16-.37zm35-106.47l80.18 50.89-53.13 55.41zm-.47-1.47l.23-.73 67.18-10.69L354 270.31zm68-12.58l-.28.12-65.35 10.4 57.16-57.5.22-.22zm-7.19-46.87L378.78 191 342 206zM270.1 219.3L192.33 262l21-54.9zm-79.42 43.64l-68.39 48.33-.39-1 33.8-93.39.39-.05zm-30.6-47.67l-3.55.5-1-1.34L155 216l-39.64 5.54 36-53.37 58.86 36.54zm-9.36-48l-36.32 53.85-30.21-73 .22-.9 66.58 19zm-35.9 55.31l39.76-5.58-33.28 92-.91-1.48zm5.9 87.35l.12.32-.23.63-.08-1.26zm.74 1.91l-.18.13.11-.31zm.37 1l.52 1.34-1.21-.85zm.83-.59l69-48.75 79.92-43.85.29.06-34.59 108.03-61 23.7 15.59-85.21 44.67 59.19.8-.59-46-61-16 87.55-51.46-36.19zm51.91 39.87l.73.5.67.47 40 27.45-70.72-9.68-20.82-54zm42 29.49l-65.11 40.64-5.82-50.35zM144.62 372l5.88 50.86-1.91 1.2-61.13-60.1 57.08 7.82zm-19.19 111l-27.49-57.72.07-.15c5.56 0 23 .14 35.9.14 6.49 0 11.82 0 13.88-.1zm-.49 1.28l-.55 1.43.51 1-.64 2C100 496.42 75.17 504.36 62 508.56l35.4-82.07zm-1.06 5.6l-25.68 79-36.33-59.3c17.13-5.41 40.23-12.76 62-19.66zm-25.64 81l-.16.12-68 33.28 31.19-93.76zM31.81 685.34c1.51-2.7 14.7-24.83 29-48.68l27.33 27.16-23.81 44.41C47.54 696.68 33.62 687 31.81 685.34zm71.12 106.49l-72.57-18 34.31-64.13 10.49 7.2c22 15.06 44.27 30.19 44.49 30.34l.36.24-.06.15-.47.48.25.09zm1.12-.13l16.62-43.19 67.09 23.12zm85-20.66L122.1 748l71.9-18.18zm5.95-41.48l48.07-12.11-52.91 52.89zm-4.7 42l53.76-53.74-7.42 80.62zm47.33 27l7.43-80.81 51.42 65.51zm59.71-15.82l-51.56-65.69 96.91 8.6zm66.53 15.8l-65.66-15.31 45.22-56.94zM395.2 757l-50.52-31.67 50.58-25.92zm23-134l-22 69.5-3.2-145.35zM392 546.37l3.27 149.21v2.74l-37.07-64.58zM357.66 635v-.12l36.65 63.85-50.06 25.65zm-.78-1.68c-29.33 2.21-82.71 6.12-90.25 6.26l58.55-74.42.13.3v-.05zm-31.57-70.4L296.25 494l49.2 12.88.26-1L296.33 493 342 444.34c.95 8 6.93 58.93 7.38 62.65zm.91.4l23.88-55.49 40.66 31.25zm64.93-25.18L350.66 507c1.26-1.72 4.7-8.23 16.17-32.48 6.29-13.28 12.53-26.72 14.65-31.31zm-9.85-97.94l-45-43.15v-.13l45-57.24zm-.07-102l-44.82 57 19.48-119.35zm-25.75-63.32l-.42-.07-19.7 120.65L301 327.84l53.39-55.68zM349.33 54.5l31.95 136.6-26.53 78-11.68-57.05-.88-5 38.63-15.79-47.06-33 .45-.45-.71.27zm-16.78 103c-9.58-9.29-34.83-33.63-39.26-36.3 2.22-4.09 33.45-41.82 55.17-67.69zm15.26-104.71c-3.54 4.22-15.62 18.64-27.5 33-20.57 24.91-26.2 32.28-27.65 34.64l-27.74-44zM289.07 7.84L264 75.23l-27.65-31.34zm-87.84-2.27l33.64 38.14-58.2 39.79zm-26.29 80.11l-.08.25 1.17-.8.47-.23v-.06l59.07-40.39 27.6 31.35-87.89 10.46 62 49-23.62 67-39-116.43zm-1.12.74l39.31 117.35-.46 1.29-60.92-37.82zm-1.14.39L151 166.21l-23.29-56.72v-.07zM127 110.49l22.29 54.26-64.64-18.46.17-.7zM101.19 69.2l24.35 41.25-41.06 34.14L56.15 105zm-85.25 85.28l.71-.17.14 1.32zm.47-1.13l39-47.63 28.39 39.69-.15.6-1.65-.47 1.11 2.68-17.45 70.31-.06.27-9.13-74.54-.49.06-.12-.48zm1.22.72l37.91-9.14 9.18 74.94L18 157.2zm.55 5.07l46.64 62.53L30 268.69zM31 269.11l34.44-46.61.24.32.15-.66h1l52.57 85.64.31 4.67zm88.9 45.66l.06.94.59-1.63 2.46 1.73 21.15 54.87-57.22-7.84zM86 363.87l61.37 60.33c-6 .17-36.9 0-49.53-.07L53 389.49zm-33.79 26.29l44.25 34.15h-.07l.45.95-35.65 82.68-29.75-94.68zM7.14 518.23L31 415l29.64 94.3-.36.83h.11l-31.11 93.38z"/><path class="cls-4" d="M31.1 767.19c-.21-1-21.16-102.45-21.16-108.38h-1c0 6 20.32 104.39 21.18 108.58z"/><path class="cls-5" d="M88.65 664.88H89c2.62-.07 39.27-1 70.3-1.81l-27.38-40.73L89.11 664z"/><path class="cls-6" d="M218.65 380.88l.74.1-.52.32 65.95 45.96L238 329.28l-19.35 51.6z"/><path class="cls-7" d="M118.92 745.52l-30.47-80.28-23.3 43.56c18.8 12.93 40.97 28.04 53.77 36.72z"/><path class="cls-8" d="M217.39 380.28v-.01l.34.24 19.36-51.64-60.44 23.47 40.74 27.94z"/><path class="cls-9" d="M158.95 664.06c-29.48.73-63.87 1.64-69.2 1.78L120 745.55z"/><path class="cls-10" d="M115.32 221.52l39.64-5.54.57-1.56 1 1.34 3.55-.49 50.11-10.58-58.87-36.54-36 53.37z"/><path class="cls-11" d="M228.32 468.11l17.35 43.58 48.34-18.42-65.69-25.16z"/><path class="cls-12" d="M167.4 572.87L159.93 663c20.39-.51 38.23-.92 42.18-.93z"/><path class="cls-13" d="M284.61 428.53l-56.11 38.59 66.27 25.38-10.16-63.97z"/><path class="cls-14" d="M132.92 621.38l-.25.24 26.43 39.33 7.37-88.98-33.55 49.41z"/><path class="cls-15" d="M241.87 556.44l-38.2 105.35 61.43-22.08c-.94-4.65-14.86-53.88-23.23-83.27z"/><path class="cls-16" d="M246 512.6v.08h-.22l-3.46 38.8-1-.09 3.43-38.51-40.28 8.2-36.38 48.42 73.36-18 .13.46.2.69 51.83-58.28z"/><path class="cls-17" d="M201.76 664.45L121.94 747l72.18-18.2z"/><path class="cls-18" d="M88.31 662.64l9-87.05c-4.42 7.38-20.74 34.65-36 60.19z"/><path class="cls-19" d="M332.6 159.44l-57.16 57.5 65.36-10.41.28-.11-8.26-47.21-.22.23z"/><path class="cls-20" d="M340.54 207.57l-67.18 10.7-.23.73 80.85 51.31-13.44-62.74z"/><path class="cls-21" d="M273.6 220.47l27.04 106.29 53.13-55.41-80.17-50.88z"/><path class="cls-22" d="M378.78 191.01l-44.89-31.46 8.13 46.48 36.76-15.02z"/><path class="cls-23" d="M155.7 216.87l-33.8 93.39.39 1.01 68.39-48.33-34.6-46.12-.38.05z"/><path class="cls-24" d="M270.1 219.3l-56.76-12.23-21.01 54.9 77.77-42.67z"/><path class="cls-25" d="M203 663.63l-.15.4v-.09l-7.67 64.57 48.7-12.27z"/><path class="cls-26" d="M241.93 553l.34 1.19.38.13-.19.52C260.82 619.29 265 635 265.88 639l58.51-74.37z"/><path class="cls-27" d="M264.92 640.83l-61.27 22.02 40.85 52.59 20.42-74.61z"/><path class="cls-28" d="M295.24 494.19l-51.61 58.04 80.88 11.37-29.27-69.41z"/><path class="cls-29" d="M239.22 329.51l46.68 97.69 49.36-29.75-.04-.08-96-67.86z"/><path class="cls-30" d="M238.68 327.92l95.58 67.56-34.18-67.24c-4.4.22-35.13-.04-61.4-.32z"/><path class="cls-31" d="M299.75 327.3l-27.14-106.68-34 106.31c16.39.18 56.03.55 61.14.37z"/><path class="cls-32" d="M201.69 663.1c-4.54 0-21.87.44-41.62.93l-39.58 82.81.06.16z"/><path class="cls-33" d="M285.62 428.52l10.11 63.67 46.11-49.13-6.31-44.62-49.91 30.08z"/><path class="cls-34" d="M264.24 77.23L239.1 133.6l52.85-12.42-27.71-43.95z"/><path class="cls-35" d="M332.2 158.58C317.21 144 295 122.94 292.74 122l-54.39 12.78.11.09-24.27 68.89z"/><path class="cls-36" d="M342.74 442.11l.12 1.06c.07.58 6.37 54.2 7.4 62.77 3.5-5.76 19.92-40.62 30.94-64.45l-44.63-42.84 6.15 43.47z"/><path class="cls-37" d="M246.06 716.16l96.39 8.55-43.46-47.5-52.93 38.95z"/><path class="cls-38" d="M356.69 634.76l-56.9 41.86 43.55 47.59 13.35-89.45z"/><path class="cls-39" d="M132.11 620.78l.07-.07 34.22-50.4-.11-.29.2-.05-18.8-35.88-48.68 37.45 33.1 49.24z"/><path class="cls-40" d="M30.86 606.93l.71-.69 29 28.82C76.72 608 94.09 579 97.58 573.16l.62-1-68.6 33.47-22.4 46.54 24 32.31c2.43-4.23 15.16-25.59 28.88-48.56z"/><path class="cls-41" d="M68.01 222.18l51.26 83.52-5.47-83.43-30.01-72.5-17.16 68.99-.2.84.98 1.59 44.56.31-.01.99-43.95-.31z"/><path class="cls-42" d="M160.25 216.24l-3.04.42 34.03 45.37 21.47-56.1 58.71 12.65 2.18-1.2 56.67-57.01-117.73 45.08.1-.27-52.39 11.06z"/><path class="cls-43" d="M66.11 220.98l-.05.2h.17l-.12-.2z"/><path class="cls-44" d="M237.71 134.28l.07-.17 25.57-57.34-85.59 10.18 59.95 47.33z"/><path class="cls-45" d="M266.76 640.53l32.36 35.36 56.35-41.46c-6.28.47-25.06 1.87-43.66 3.2-31.96 2.3-41.88 2.89-45.05 2.9z"/><path class="cls-46" d="M188.77 468.93l37.87-2.13c-.78-2.24-2.24-10.53-5.36-42.95-1.64-17-3.09-34-3.6-40.14z"/><path class="cls-47" d="M245.57 715.29l52.75-38.81-32.43-35.44-20.32 74.25z"/><path class="cls-48" d="M202.76 663.77l-.1-.25-.21.21.31.04z"/><path class="cls-49" d="M218.55 382.29c2.67 32.27 7.13 79.59 9 84.26l56.32-38.73z"/><path class="cls-50" d="M188.12 470.66c-1.22 2.4-5.47 9.39-19.53 31-10 15.39-20.22 30.81-20.32 31l-.13.19.15.29 18.89 36 .6-.88v.17l35.95-47.84-15.43-49.75z"/><path class="cls-51" d="M147.92 531.36c15-22.69 36.64-55.84 39.39-61.23-4.87 1.31-31 9.52-60.26 18.78z"/><path class="cls-52" d="M189.11 470.29l.09.17 15.4 49.66 40.1-8.12-17.6-44.2-38.32 2.16z"/><path class="cls-53" d="M98.74 570.51l48.84-37.58-21.49-43.71-1 .33z"/><path class="cls-54" d="M125.42 488.39l.23-.07-.12-.25z"/><path class="cls-55" d="M241.41 554.81l-.58-2-73.2 17.93 35.2 90.49z"/><path class="cls-56" d="M169.38 447.18c7.71 9 15.41 18 18.41 21.55l29.27-86.3-65.49 40.88v.19h-.39l-1.82 1.13c1.64 1.46 6.05 6.37 20.02 22.55z"/><path class="cls-57" d="M126 486.71l.64 1.31c27.9-8.84 54.38-17.14 60.33-18.75-14.4-17-34.8-40.74-38.18-43.85L126 484.27l.44.92-.06.18z"/><path class="cls-58" d="M98.5 573.46l-9.16 88.95 42.04-40.92-32.8-48.8-.08.77z"/><path class="cls-59" d="M292.67 120.46c1.45-2.37 7.07-9.74 27.65-34.64 11.88-14.38 24-28.8 27.5-33l-82.89 23.65z"/><path class="cls-60" d="M332.56 157.55l15.91-104c-21.72 25.88-53 63.6-55.17 67.69 4.43 2.68 29.7 27.02 39.26 36.31z"/><path class="cls-61" d="M333.51 158.07l.71-.26-.45.45 47.06 32.98-38.63 15.79.88 5.03 11.67 57.05 26.53-78.01-31.95-136.6-15.84 103.56.02.01z"/><path class="cls-62" d="M289.07 7.84l-52.72 36.05 27.63 31.34 25.09-67.39z"/><path class="cls-63" d="M237.29 135.21l-62.01-48.95 87.89-10.46-27.64-31.35-59.07 40.39.03.06-.46.24-1.17.8.08-.26-.27.14 39 116.43 23.62-67.04z"/><path class="cls-64" d="M84.19 148.14l30.21 72.98 36.32-53.85.28-1.02-66.58-19.01-.23.9z"/><path class="cls-65" d="M300.98 327.84l34.38 67.62 19.69-120.67.43.07-1.1-2.71-53.4 55.69z"/><path class="cls-66" d="M350.66 507l40.49 31.13-9.67-94.92c-2.13 4.59-8.36 18-14.65 31.31-11.47 24.28-14.91 30.79-16.17 32.48z"/><path class="cls-67" d="M326.22 563.34l64.54-24.24-40.66-31.25-23.88 55.49z"/><path class="cls-68" d="M342 444.34L296.33 493l49.38 12.93-.26 1-49.2-12.93 29.06 68.94L349.38 507c-.45-3.73-6.43-54.61-7.38-62.66z"/><path class="cls-69" d="M381.23 338.18l-25.34-62.31-19.48 119.35 44.82-57.04z"/><path class="cls-70" d="M336.35 397.07l44.95 43.15V339.69l-44.97 57.24.02.14z"/><path class="cls-71" d="M212.68 205.07l.45-1.29-39.31-117.35-22.07 80.82 60.93 37.82z"/><path class="cls-72" d="M55.97 144.32l.5-.06 9.12 74.55.07-.28 17.48-70.31-1.11-2.68 1.66.47.15-.6-28.39-39.69-39.04 47.63 39.44-9.5.12.47z"/><path class="cls-73" d="M147.38 424.21L86 363.87l-33 25.62 44.89 34.65c12.59.08 43.45.24 49.49.07z"/><path class="cls-74" d="M122.98 315.81l-2.46-1.73-.59 1.62-.06-.94-32.96 48.08 57.22 7.83-21.15-54.86z"/><path class="cls-75" d="M119.41 307.81l-52.57-85.64-1-.01-.16.66-.24-.32-34.47 46.61 88.75 43.37-.31-4.67z"/><path class="cls-76" d="M96.84 425.3l-.45-.95.07-.03-44.25-34.16-20.77 23.1 29.75 94.68 35.65-82.64z"/><path class="cls-77" d="M60.34 510.13l-.11.04.36-.83-29.64-94.31-23.81 103.2 22.14 85.28 31.06-93.38z"/><path class="cls-78" d="M125.54 110.45L101.19 69.2l-45.04 35.81 28.33 39.58 41.06-34.14z"/><path class="cls-79" d="M151.01 166.21l21.67-79.39-45 22.6.03.07 23.3 56.72z"/><path class="cls-80" d="M84.65 146.29l64.68 18.46-22.28-54.26-42.22 35.09-.18.71z"/><path class="cls-81" d="M18.18 159.14l11.86 109.55 34.78-47.02-46.64-62.53z"/><path class="cls-82" d="M15.94 154.48l.86 1.15-.14-1.32-.72.17z"/><path class="cls-83" d="M325.3 565.48l-.13-.3-58.54 74.42c7.54-.14 60.92-4.06 90.25-6.26l-31.56-67.91z"/><path class="cls-84" d="M55.54 144.93l-37.91 9.14.34 3.13 46.75 62.67-9.18-74.94z"/><path class="cls-85" d="M201.23 5.57L176.67 83.5l58.2-39.8-33.64-38.13z"/><path class="cls-86" d="M98 425.13l-.07.15 27.5 57.72 22.35-57.87c-2.06.08-7.39.1-13.88.1-12.9.04-30.34-.07-35.9-.1z"/><path class="cls-87" d="M148.59 424.01l1.91-1.2-5.88-50.86-.09-.23-57.08-7.81 61.14 60.1z"/><path class="cls-88" d="M216.55 381.58l-70.93-9.71 5.82 50.36 65.11-40.65z"/><path class="cls-89" d="M88.09 663.81l-27.33-27.16c-14.25 23.86-27.45 46-29 48.68 1.81 1.64 15.73 11.34 32.52 22.9z"/><path class="cls-90" d="M98.2 568.94l25.68-79c-21.78 6.9-44.88 14.26-62 19.73z"/><path class="cls-91" d="M30.07 604.3l68-33.28.16-.12-36.97-60.36-31.19 93.76z"/><path class="cls-92" d="M62 508.56c13.16-4.2 38-12.14 62.24-19.81l.64-2-.51-1 .55-1.43-27.51-57.83z"/><path class="cls-93" d="M120.84 310.26l-.12-.32-.19-.31.08 1.26.23-.63z"/><path class="cls-94" d="M121.46 311.85l-.07-.17-.11.3.18-.13z"/><path class="cls-95" d="M394.37 698.78l-36.65-63.85-.05.12-.01-.03-13.35 89.41 50.06-25.65z"/><path class="cls-96" d="M154.58 217.03l-39.76 5.56 5.57 84.93.91 1.48 33.28-91.97z"/><path class="cls-97" d="M121.82 312.81l-.69.49 1.21.85-.52-1.34z"/><path class="cls-98" d="M191.26 263.82l46.05 61.01-.8.59-44.67-59.2-15.59 85.21 61.03-23.69 34.58-108.06-.28-.06-79.92 43.84-69 48.76 1.13 2.95 51.46 36.19 16.01-87.54z"/><path class="cls-99" d="M215.97 380.51l-40.02-27.45v.01l-.67-.48-.73-.5h.01l-50.13-35.26 20.82 54 70.72 9.68z"/><path class="cls-100" d="M298.24 783.32l65.66 15.3-20.44-72.24-45.22 56.94z"/><path class="cls-101" d="M237.66 798.64l58.85-15.31-51.42-65.51-7.43 80.82z"/><path class="cls-102" d="M245.81 717.13l51.56 65.69 45.35-57.1-96.91-8.59z"/><path class="cls-103" d="M395.2 757.02l.05-57.58-50.57 25.91 50.52 31.67z"/><path class="cls-104" d="M418.23 623.07L393 547.15l3.19 145.42 22.04-69.5z"/><path class="cls-105" d="M190.33 771.6l46.35 26.88 7.41-80.62-53.76 53.74z"/><path class="cls-106" d="M122.1 748l67 23.08 4.9-41.21z"/><path class="cls-107" d="M119.48 748.09l.47-.48.06-.15-.36-.24c-.22-.15-22.52-15.28-44.49-30.34l-10.49-7.2-34.3 64.14 72.57 18 16.79-43.65z"/><path class="cls-108" d="M104.05 791.7l83.71-20.08-67.09-23.12-16.62 43.2z"/><path class="cls-109" d="M195 729.56l-4.84 40.78 52.91-52.89z"/><path class="cls-110" d="M395.25 695.58l-3.26-149.21-33.81 87.36 37.07 64.59v-2.74z"/><path class="cls-111" d="M6.17 652l-.13.27 24.77 33.41c.8 1 5.74 4.71 33 23.46l-35 65.35-11.34 23.67.9.42 11.53-23.86 72.67 18-.13.34.56-.06-2.49 6.22.93.36 2.75-6.87 83.89-20.12-22.68 25.5.75.65 23.45-26.37 47 27.22v.39l60.63-15.77.19.24.2-.25 67.7 15.8-20.81-73.55L395 758l-30.12 38.72.79.6 29.4-37.8-3.77 41.07 1 .09 3.91-42.62.25-.32-.23-.14.06-62 23-72.6-26.35-79.29-.05-2.44-35.3 91.23-31.61-68 66.79-25.08-.53-.41-9.94-97.52.09-.2-.1-.1V340.65l43.88 100.67-33 99.79.95.31 33.07-100.14-45-103.13L399.82 261l-16.46-65.06 13.46-183.18-1-.07-13.45 183.25v.06l16.44 65-17.14 75.6-26.58-65.36 27.24-80.09L349.78 52l39.7-42.83-.74-.67L349.32 51 324.41 8.6l-.86.49 24.94 42.48L265 75.43l26.09-70.17-55.4 37.88-34.88-39.55-25.21 80-42.68-62.79c7.59-5.33 18.88-13.11 19.91-13.45l-.32-.94c-1.52.5-18.62 12.49-20.57 13.86l-.4.28 43.49 64-.69.35-.62-1.9-.72 2.54-47.08 23.65L102 68.54a.63.63 0 0 0 0-.2l28.66-44.94-.84-.53L101.65 67c-1-2.57-4.69-9.49-16.79-29.37C76 23.17 67 8.73 66.86 8.59l-.86.52c13.63 21.59 33.58 54.16 34.93 58.75-6.29-1.67-61.48-20-68.5-22.29l31.88-34.42-.74-.67L30.66 46l.73.24c2.58.86 60.14 20 68.86 22.42l-44.56 35.45-22.18-56-.93.36 22.33 56.4-39 47.63L31.54 48.33v-.16L9.55 8.61l-.87.48 21.85 39.26-15.88 105.43-.4.1.32.43-.24 1.58.74-.91 1.93 2.59 12 111.28.94-.1-.18.25-.35.47 90.07 44-33.8 49.41-34.34 26.61.08.06-20.05 22.3-.65-138.15 53.56 87.8.85-.51-55.42-90.86.67 142.87-.06.07v.14l-24.23 105v.12l22.58 87zm1 .16l22.43-46.53 68.57-33.56-.62 1C94.09 579 76.72 608 60.56 635l-29-28.82-.71.69 29.18 29c-13.72 23-26.45 44.33-28.88 48.56zm60.2-431l-1-1.59.19-.84 17.16-69 30 72.5 5.48 83.43L68 222.18l43.95.31v-1zm-1.26-.16l.12.2h-.17zm264.16-60.61l-56.67 57-2.18 1.2-58.72-12.65L191.24 262l-34-45.37 3-.43 52.39-11.06-.1.27zm-92.48-26.27l-.08.17L177.76 87l85.59-10.19zm26.45-56.88l27.71 44-52.85 12.36zm-25.78 57.65l-.11-.09 54.39-12.8c2.27.94 24.48 22 39.46 36.57l-118 45.18zm103.38 308.17l-46.11 49.13-10.11-63.67 49.92-30.08zm-5.27-44.41l44.63 42.84c-11 23.83-27.43 58.68-30.94 64.45-1-8.57-7.33-62.2-7.4-62.77l-.12-1.06zm-36.78 278l56.9-41.86-13.35 89.44zm42.66 48.09l-96.39-8.55L299 677.21zm-43.33-48.82l-32.36-35.36c3.16 0 13.09-.6 45-2.89 18.61-1.33 37.38-2.74 43.66-3.2zm-.8.59l-52.75 38.81L265.89 641zm-172.23-187.3l21.49 43.71-48.84 37.59 26.3-81zm-.67-.83l.11-.33.12.25zm.6-4.12l22.74-58.86c3.37 3.11 23.78 26.87 38.18 43.85-6 1.61-32.42 9.92-60.33 18.75l-.64-1.31.43-1.33.06-.18zm25.18-60.72h.39v-.19l65.49-40.88-29.27 86.3c-3-3.54-10.7-12.6-18.41-21.55-14-16.22-18.42-21.09-20-22.5zm16.43 147.16l73.2-17.93.58 2-38.58 106.43zm35.13 93.06h-.31l.21-.22zm15.79-281.48l65.35 45.53-56.32 38.73c-1.9-4.66-6.36-51.98-9.03-84.25zM244.7 512l-40.1 8.17-15.4-49.66-.09-.17-.32-.38 38.32-2.16zm-23.43-88.11c3.12 32.42 4.58 40.71 5.36 42.95l-37.87 2.13 28.9-85.22c.53 6.09 1.98 23.13 3.61 40.1zm-17.56 96.71l-35.95 47.84v-.17l-.6.88-18.89-36-.15-.29.13-.19c.1-.15 10.31-15.58 20.32-31 14.06-21.61 18.31-28.6 19.53-31l.16.19zm-55.79 10.76L127 488.91c29.25-9.26 55.39-17.47 60.26-18.78-2.71 5.39-24.34 38.54-39.34 61.23zM166.49 570h-.2l.11.29-34.22 50.41-.07.07L99 571.54l48.68-37.45zm-7.16 93.09c-31 .77-67.68 1.74-70.3 1.81h-.38l.46-.86 42.84-41.69zm-.23-2.09l-26.44-39.33.25-.24L166.47 572zm8.3-88.08l34.72 89.24c-4 0-21.79.43-42.18.93zm74.48-16.43c8.37 29.38 22.29 78.62 23.23 83.28l-61.43 22.08zm0-3.71l-.2-.69-.13-.46-73.36 18 36.38-48.42 40.28-8.2-3.43 38.51 1 .09 3.46-38.8h.22v-.08l47.65-18.15zm3.81-41l-17.35-43.57L294 493.27zm-17.17-44.57l56.12-38.59 10.16 64zm-9.63-85.82l.52-.33-.74-.1L238 329.28l46.82 98zm-1.14-.79l-.34-.24-40.74-27.94 60.44-23.47zm-86.35 241l-42 40.92 9.17-89 .08-.77zm-43.09 41.04l-27-26.86c15.26-25.54 31.57-52.8 36-60.19zm.14 2.6l30.46 80.28c-12.8-8.69-35-23.79-53.77-36.72zm1.29.6c5.33-.14 39.72-1 69.2-1.78l-39 81.5zm70.32-1.84c19.75-.49 37.08-.9 41.62-.93L120.54 747l-.06-.16zm41.7.42l-7.64 64.33L121.94 747zm1.06-.5v.09l.15-.4 40.85 52.61-48.7 12.27zm.83-1.09l61.26-22-20.41 74.61zM265.88 639c-.87-3.94-5.06-19.66-23.42-84.11l.19-.52-.38-.13-.34-1.19 82.46 11.59zm-22.25-86.72l51.62-58 29.26 69.41zm42.27-125l-46.68-97.69 96 67.86v.08zM238.68 328c26.27.28 57 .54 61.4.32l34.18 67.24zm-.09-1l34-106.31 27.16 106.61c-5.11.18-44.75-.19-61.16-.37zm35-106.47l80.18 50.89-53.13 55.41zm-.47-1.47l.23-.73 67.18-10.69L354 270.31zm68-12.58l-.28.12-65.35 10.4 57.16-57.5.22-.22zm-7.19-46.87L378.78 191 342 206zM270.1 219.3L192.33 262l21-54.9zm-79.42 43.64l-68.39 48.33-.39-1 33.8-93.39.39-.05zm-30.6-47.67l-3.55.5-1-1.34L155 216l-39.64 5.54 36-53.37 58.86 36.54zm-9.36-48l-36.32 53.85-30.21-73 .22-.9 66.58 19zm-35.9 55.31l39.76-5.58-33.28 92-.91-1.48zm5.9 87.35l.12.32-.23.63-.08-1.26zm.74 1.91l-.18.13.11-.31zm.37 1l.52 1.34-1.21-.85zm.83-.59l69-48.75 79.92-43.85.29.06-34.59 108.03-61 23.7 15.59-85.21 44.67 59.19.8-.59-46-61-16 87.55-51.46-36.19zm51.91 39.87l.73.5.67.47 40 27.45-70.72-9.68-20.82-54zm42 29.49l-65.11 40.64-5.82-50.35zM144.62 372l5.88 50.86-1.91 1.2-61.13-60.1 57.08 7.82zm-19.19 111l-27.49-57.72.07-.15c5.56 0 23 .14 35.9.14 6.49 0 11.82 0 13.88-.1zm-.49 1.28l-.55 1.43.51 1-.64 2C100 496.42 75.17 504.36 62 508.56l35.4-82.07zm-1.06 5.6l-25.68 79-36.33-59.3c17.13-5.41 40.23-12.76 62-19.66zm-25.64 81l-.16.12-68 33.28 31.19-93.76zM31.81 685.34c1.51-2.7 14.7-24.83 29-48.68l27.33 27.16-23.81 44.41C47.54 696.68 33.62 687 31.81 685.34zm71.12 106.49l-72.57-18 34.31-64.13 10.49 7.2c22 15.06 44.27 30.19 44.49 30.34l.36.24-.06.15-.47.48.25.09zm1.12-.13l16.62-43.19 67.09 23.12zm85-20.66L122.1 748l71.9-18.18zm5.95-41.48l48.07-12.11-52.91 52.89zm-4.7 42l53.76-53.74-7.42 80.62zm47.33 27l7.43-80.81 51.42 65.51zm59.71-15.82l-51.56-65.69 96.91 8.6zm66.53 15.8l-65.66-15.31 45.22-56.94zM395.2 757l-50.52-31.67 50.58-25.92zm23-134l-22 69.5-3.2-145.35zM392 546.37l3.27 149.21v2.74l-37.07-64.58zM357.66 635v-.12l36.65 63.85-50.06 25.65zm-.78-1.68c-29.33 2.21-82.71 6.12-90.25 6.26l58.55-74.42.13.3v-.05zm-31.57-70.4L296.25 494l49.2 12.88.26-1L296.33 493 342 444.34c.95 8 6.93 58.93 7.38 62.65zm.91.4l23.88-55.49 40.66 31.25zm64.93-25.18L350.66 507c1.26-1.72 4.7-8.23 16.17-32.48 6.29-13.28 12.53-26.72 14.65-31.31zm-9.85-97.94l-45-43.15v-.13l45-57.24zm-.07-102l-44.82 57 19.48-119.35zm-25.75-63.32l-.42-.07-19.7 120.65L301 327.84l53.39-55.68zM349.33 54.5l31.95 136.6-26.53 78-11.68-57.05-.88-5 38.63-15.79-47.06-33 .45-.45-.71.27zm-16.78 103c-9.58-9.29-34.83-33.63-39.26-36.3 2.22-4.09 33.45-41.82 55.17-67.69zm15.26-104.71c-3.54 4.22-15.62 18.64-27.5 33-20.57 24.91-26.2 32.28-27.65 34.64l-27.74-44zM289.07 7.84L264 75.23l-27.65-31.34zm-87.84-2.27l33.64 38.14-58.2 39.79zm-26.29 80.11l-.08.25 1.17-.8.47-.23v-.06l59.07-40.39 27.6 31.35-87.89 10.46 62 49-23.62 67-39-116.43zm-1.12.74l39.31 117.35-.46 1.29-60.92-37.82zm-1.14.39L151 166.21l-23.29-56.72v-.07zM127 110.49l22.29 54.26-64.64-18.46.17-.7zM101.19 69.2l24.35 41.25-41.06 34.14L56.15 105zm-85.25 85.28l.71-.17.14 1.32zm.47-1.13l39-47.63 28.39 39.69-.15.6-1.65-.47 1.11 2.68-17.45 70.31-.06.27-9.13-74.54-.49.06-.12-.48zm1.22.72l37.91-9.14 9.18 74.94L18 157.2zm.55 5.07l46.64 62.53L30 268.69zM31 269.11l34.44-46.61.24.32.15-.66h1l52.57 85.64.31 4.67zm88.9 45.66l.06.94.59-1.63 2.46 1.73 21.15 54.87-57.22-7.84zM86 363.87l61.37 60.33c-6 .17-36.9 0-49.53-.07L53 389.49zm-33.79 26.29l44.25 34.15h-.07l.45.95-35.65 82.68-29.75-94.68zM7.14 518.23L31 415l29.64 94.3-.36.83h.11l-31.11 93.38z"/><path class="cls-4" d="M31.1 767.19c-.21-1-21.16-102.45-21.16-108.38h-1c0 6 20.32 104.39 21.18 108.58z"/><path class="cls-112" d="M356.69 797.52a6.12 6.12 0 1 1 6.12 6.05 6.09 6.09 0 0 1-6.12-6.05zm40.2-33.94a6.05 6.05 0 1 0-6.12-6.05 6.09 6.09 0 0 0 6.12 6.05zm-53.11-32a6.05 6.05 0 1 0-6.12-6.05 6.09 6.09 0 0 0 6.11 6.09zm-43.26 58.27a6.05 6.05 0 1 0-6.12-6.05 6.09 6.09 0 0 0 6.12 6.09zm-57-66.83a6.05 6.05 0 1 0-6.12-6.05 6.09 6.09 0 0 0 6.15 6.09zm54.74-40a6.05 6.05 0 1 0-6.12-6.05 6.09 6.09 0 0 0 6.15 6.03zm-32.61-36.92a6.05 6.05 0 1 0-6.12-6.05 6.09 6.09 0 0 0 6.12 6.05zm91-5.79a6.05 6.05 0 1 0-6.12-6.05 6.09 6.09 0 0 0 6.16 6.05zm39.13 63.28a6.05 6.05 0 1 0-6.12-6.05 6.09 6.09 0 0 0 6.16 6.05zm22.93-74.48a6.05 6.05 0 1 0-6.12-6.05 6.09 6.09 0 0 0 6.16 6.05zm-25.06-81.8a6.05 6.05 0 1 0-6.12-6.05 6.09 6.09 0 0 0 6.16 6.05zm-69.22 21.57a6.05 6.05 0 1 0-6.12-6.05 6.09 6.09 0 0 0 6.17 6.05zm-83.3-10.65a6.05 6.05 0 1 0-6.12-6.05 6.09 6.09 0 0 0 6.17 6.05zm53-59.33a6.05 6.05 0 1 0-6.12-6.05 6.09 6.09 0 0 0 6.12 6.05zm55.77 14.22a6.05 6.05 0 1 0-6.12-6.05 6.09 6.09 0 0 0 6.12 6.05zm31.9-65.68a6.05 6.05 0 1 0-6.12-6.05 6.09 6.09 0 0 0 6.12 6.04zm-47.19-46a6.05 6.05 0 1 0-6.12-6.05 6.09 6.09 0 0 0 6.12 6.06zm6.65 51.89a6.05 6.05 0 1 0-6.12-6.05 6.09 6.09 0 0 0 6.12 6.07zm-55.16-19a6.05 6.05 0 1 0-6.12-6.05 6.09 6.09 0 0 0 6.11 6.02zm-69.78-46.64a6.05 6.05 0 1 0-6.12-6.05 6.09 6.09 0 0 0 6.11 6.02zm20-53.27a6.05 6.05 0 1 0-6.12-6.05 6.09 6.09 0 0 0 6.08 6.02zm65.13-2a6.05 6.05 0 1 0-6.12-6.05 6.09 6.09 0 0 0 6.09 6.05zm80.38 11.89a6.05 6.05 0 1 0-6.12-6.05 6.09 6.09 0 0 0 6.09 6.05zm16.83-75.91a6.05 6.05 0 1 0-6.12-6.05 6.09 6.09 0 0 0 6.09 6.05zm28.08 178.95a6.05 6.05 0 1 0-6.12-6.05 6.09 6.09 0 0 0 6.09 6.05zm-72.19-168.07a6.05 6.05 0 1 0-6.12-6.05 6.09 6.09 0 0 0 6.12 6.05zm27.25-82.11a6.05 6.05 0 1 0-6.12-6.05 6.09 6.09 0 0 0 6.12 6.06zM332.62 165a6.05 6.05 0 1 0-6.12-6.05 6.09 6.09 0 0 0 6.12 6.05zm8.32 48.07a6.05 6.05 0 1 0-6.12-6.05 6.09 6.09 0 0 0 6.11 6.04zM274 223.71a6.05 6.05 0 1 0-6.12-6.05 6.09 6.09 0 0 0 6.12 6.05zm-60.65-13.05a6.05 6.05 0 1 0-6.12-6.05 6.09 6.09 0 0 0 6.14 6.05zm-22 58.44a6.05 6.05 0 1 0-6.12-6.05 6.09 6.09 0 0 0 6.15 6.05zm-34.89-45a6.05 6.05 0 1 0-6.12-6.05 6.09 6.09 0 0 0 6.15 6.06zm-6.31-52.55a6.05 6.05 0 1 0-6.12-6.05 6.09 6.09 0 0 0 6.15 6.06zm23.93-78.82a6.05 6.05 0 1 0-6.08-6.04 6.09 6.09 0 0 0 6.11 6.05zm64.14 47.62a6.05 6.05 0 1 0-6.12-6.05 6.09 6.09 0 0 0 6.14 6.06zm54.5-12.81a6.05 6.05 0 1 0-6.12-6.05 6.09 6.09 0 0 0 6.14 6.06zm54.5-69.63a6.05 6.05 0 1 0-6.12-6.05 6.09 6.09 0 0 0 6.14 6.07zm48.52-43a6.05 6.05 0 1 0-6.12-6.05 6.09 6.09 0 0 0 6.13 6.04zM290.08 12.6a6.09 6.09 0 0 0 6.12-6.05 6.12 6.12 0 0 0-12.25 0 6.09 6.09 0 0 0 6.13 6.05zm-24.59 68.31a6.05 6.05 0 1 0-6.12-6.05 6.09 6.09 0 0 0 6.12 6.05zm-30.57-29.55a6.05 6.05 0 1 0-6.12-6.05 6.09 6.09 0 0 0 6.12 6.05zm-34.56-37.44a6.05 6.05 0 1 0-6.12-6.05 6.09 6.09 0 0 0 6.12 6.05zm-68.13 12.8a6.05 6.05 0 1 0-6.12-6.05 6.09 6.09 0 0 0 6.12 6.05zM102 73a6.05 6.05 0 1 0-6.13-6 6.09 6.09 0 0 0 6.13 6zm27.25 43.35a6.05 6.05 0 1 0-6.12-6.05 6.09 6.09 0 0 0 6.11 6.08zm-42.87 36.49a6.05 6.05 0 1 0-6.12-6.05 6.09 6.09 0 0 0 6.12 6.05zM56.3 112.28a6.05 6.05 0 1 0-6.12-6.05 6.09 6.09 0 0 0 6.12 6.05zm.5 36a6.05 6.05 0 1 0-6.12-6.05 6.09 6.09 0 0 0 6.12 6.01zM31.55 51.85a6.05 6.05 0 1 0-6.12-6.05 6.09 6.09 0 0 0 6.12 6.05zM68.1 14.9A6.05 6.05 0 1 0 62 8.85a6.09 6.09 0 0 0 6.1 6.05zM14.93 160.06A6.05 6.05 0 1 0 8.81 154a6.09 6.09 0 0 0 6.12 6.06zm99.69 66.34a6.05 6.05 0 1 0-6.12-6.05 6.09 6.09 0 0 0 6.12 6.06zm-84.4 48.94a6.05 6.05 0 1 0-6.12-6.05 6.09 6.09 0 0 0 6.12 6.05zm90.05 44a6.05 6.05 0 1 0-6.12-6.05 6.09 6.09 0 0 0 6.12 6.06zm56.49 36.13a6.05 6.05 0 1 0-6.12-6.05 6.09 6.09 0 0 0 6.12 6.06zm-89.39 11.17a6.05 6.05 0 1 0-6.12-6.05 6.09 6.09 0 0 0 6.12 6.05zm57.16 10.51a6.05 6.05 0 1 0-6.12-6.05 6.09 6.09 0 0 0 6.12 6.05zm4 53.53a6.05 6.05 0 1 0-6.12-6.05 6.09 6.09 0 0 0 6.11 6.05zM98.67 429a6.05 6.05 0 1 0-6.12-6 6.09 6.09 0 0 0 6.12 6zm-47.52-34.44a6.05 6.05 0 1 0-6.15-6.05 6.09 6.09 0 0 0 6.15 6.05zm-22.93 24.63a6.05 6.05 0 1 0-6.12-6.05 6.09 6.09 0 0 0 6.12 6.05zm30.24 96.23a6.05 6.05 0 1 0-6.12-6.05 6.09 6.09 0 0 0 6.12 6.05zm65.46-22.66a6.05 6.05 0 1 0-6.12-6.05 6.09 6.09 0 0 0 6.13 6.04zm64.13-17.24a6.05 6.05 0 1 0-6.12-6.05 6.09 6.09 0 0 0 6.13 6.04zm38.88-3.78a6.05 6.05 0 1 0-6.12-6.05 6.09 6.09 0 0 0 6.13 6.05zm16 46a6.05 6.05 0 1 0-6.12-6.05 6.09 6.09 0 0 0 6.08 6.02zm-41.21 7.88a6.05 6.05 0 1 0-6.12-6.05 6.09 6.09 0 0 0 6.09 6.03zM167 576.41a6.05 6.05 0 1 0-6.12-6.05 6.09 6.09 0 0 0 6.12 6.05zM145.19 540a6.05 6.05 0 1 0-6.12-6.05 6.09 6.09 0 0 0 6.12 6.05zM100 576.17a6.05 6.05 0 1 0-6.12-6.05 6.09 6.09 0 0 0 6.12 6.05zm-69.12 35.14a6.05 6.05 0 1 0-6.12-6.05 6.09 6.09 0 0 0 6.12 6.05zm59.48 58.46a6.05 6.05 0 1 0-6.12-6.05 6.09 6.09 0 0 0 6.12 6.05zm70.78-1.31a6.05 6.05 0 1 0-6.12-6.05 6.09 6.09 0 0 0 6.13 6.05zm43.36.21a6.05 6.05 0 1 0-6.12-6.05 6.09 6.09 0 0 0 6.13 6.05zm-73.1-41.39a6.05 6.05 0 1 0-6.12-6.05 6.09 6.09 0 0 0 6.12 6.05zm-122 31.53a6.05 6.05 0 1 0-6.12-6.05 6.09 6.09 0 0 0 6.16 6.05zm52-19.58a6.05 6.05 0 1 0-6.12-6.05 6.09 6.09 0 0 0 6.17 6.05zm2 76.19a6.05 6.05 0 1 0-6.12-6.05 6.09 6.09 0 0 0 6.17 6.06zm56.49 37.44a6.05 6.05 0 1 0-6.12-6.05 6.09 6.09 0 0 0 6.17 6.06zm71.38 24.82a6.05 6.05 0 1 0-6.12-6.05 6.09 6.09 0 0 0 6.17 6.06zm47.58 27.59a6.05 6.05 0 1 0-6.12-6.05 6.09 6.09 0 0 0 6.16 6.06zm-137.5-8.21a6.05 6.05 0 1 0-6.08-6.06 6.09 6.09 0 0 0 6.13 6.06zm-70.12-107a6.05 6.05 0 1 0-6.07-6.06 6.09 6.09 0 0 0 6.12 6.07zm-.66 89.33a6.05 6.05 0 1 0-6.12-6.05 6.09 6.09 0 0 0 6.16 6.06zm-24-255.11a6.05 6.05 0 1 0 0-12.1 6.05 6.05 0 1 0 0 12.1zm59-298.37a6.05 6.05 0 1 0-6.12-6.05 6.09 6.09 0 0 0 6.16 6.05z"/></g></g></g></svg>