<svg xmlns="http://www.w3.org/2000/svg" viewBox="0 0 68.21 74.56"><defs><style>.cls-1{fill:#60d4f8}.cls-2,.cls-3,.cls-4,.cls-5,.cls-6{fill:none;stroke:#fff}.cls-2,.cls-4,.cls-5,.cls-6{stroke-miterlimit:10}.cls-2,.cls-3{stroke-width:2px}.cls-3{stroke-linejoin:round}.cls-4,.cls-5{stroke-width:3px}.cls-5{stroke-dasharray:13.11 4.37}</style></defs><title>Ресурс 4</title><g id="Слой_2" data-name="Слой 2"><g id="_1920" data-name="1920"><g id="header"><path class="cls-1" d="M4.7 32C-3 48.57 1.8 59.24 10.31 63.22s19.49 1.54 27.24-15S45.81 0 45.81 0 12.45 15.45 4.7 32z"/><path class="cls-2" d="M10.31 63.22l21.73-44.03M5.24 60.8l16.99-34.43"/><path class="cls-3" d="M2.02 56.32l10.14-20.54-.58-5.26"/><circle class="cls-2" cx="11.6" cy="28.47" r="1.85" transform="rotate(-45.01 11.59 28.472)"/><circle class="cls-2" cx="23.24" cy="25.17" r="1.85" transform="rotate(-45.01 23.24 25.168)"/><path class="cls-2" d="M19.38 57.47l16.99-34.44"/><circle class="cls-2" cx="37.38" cy="21.84" r="1.85" transform="rotate(-45.01 37.387 21.839)"/><circle class="cls-2" cx="33.03" cy="17.19" r="1.85" transform="rotate(-62.39 33.029 17.189)"/><path d="M16.12 37.3C0 45.94-2.49 57.39 2 65.67s14.7 12.89 30.81 4.25 35.4-33.69 35.4-33.69-35.98-7.56-52.09 1.07z"/><path class="cls-4" d="M1.2 62.45c1.53-1.06 3.2-2.16 5-3.28"/><path class="cls-5" d="M10 57a104.07 104.07 0 0 1 10.19-5 119.85 119.85 0 0 1 19.14-6l1.33-.32"/><path class="cls-4" d="M42.79 45.23c2.29-.51 4.27-.9 5.88-1.19"/></g></g></g></svg>