<svg xmlns="http://www.w3.org/2000/svg" xmlns:xlink="http://www.w3.org/1999/xlink" viewBox="0 0 433.66 809.12"><defs><style>.cls-1,.cls-10,.cls-100,.cls-101,.cls-102,.cls-103,.cls-104,.cls-105,.cls-106,.cls-107,.cls-108,.cls-109,.cls-11,.cls-12,.cls-13,.cls-14,.cls-15,.cls-16,.cls-17,.cls-18,.cls-19,.cls-20,.cls-21,.cls-22,.cls-23,.cls-24,.cls-25,.cls-26,.cls-27,.cls-28,.cls-29,.cls-30,.cls-31,.cls-32,.cls-33,.cls-34,.cls-35,.cls-36,.cls-37,.cls-38,.cls-39,.cls-4,.cls-40,.cls-41,.cls-42,.cls-43,.cls-44,.cls-45,.cls-46,.cls-47,.cls-48,.cls-49,.cls-5,.cls-50,.cls-51,.cls-52,.cls-53,.cls-54,.cls-55,.cls-56,.cls-57,.cls-58,.cls-59,.cls-6,.cls-60,.cls-61,.cls-62,.cls-63,.cls-64,.cls-65,.cls-66,.cls-67,.cls-68,.cls-69,.cls-7,.cls-70,.cls-71,.cls-72,.cls-73,.cls-74,.cls-75,.cls-76,.cls-77,.cls-78,.cls-79,.cls-8,.cls-80,.cls-81,.cls-82,.cls-83,.cls-84,.cls-85,.cls-86,.cls-87,.cls-88,.cls-89,.cls-9,.cls-90,.cls-91,.cls-92,.cls-93,.cls-94,.cls-95,.cls-96,.cls-97,.cls-98,.cls-99{fill:none}.cls-2{clip-path:url(#clip-path)}.cls-10,.cls-100,.cls-101,.cls-102,.cls-103,.cls-104,.cls-105,.cls-106,.cls-107,.cls-108,.cls-109,.cls-11,.cls-110,.cls-12,.cls-13,.cls-14,.cls-15,.cls-16,.cls-17,.cls-18,.cls-19,.cls-20,.cls-21,.cls-22,.cls-23,.cls-24,.cls-25,.cls-26,.cls-27,.cls-28,.cls-29,.cls-3,.cls-30,.cls-31,.cls-32,.cls-33,.cls-34,.cls-35,.cls-36,.cls-37,.cls-38,.cls-39,.cls-4,.cls-40,.cls-41,.cls-42,.cls-43,.cls-44,.cls-45,.cls-46,.cls-47,.cls-48,.cls-49,.cls-5,.cls-50,.cls-51,.cls-52,.cls-53,.cls-54,.cls-55,.cls-56,.cls-57,.cls-58,.cls-59,.cls-6,.cls-60,.cls-61,.cls-62,.cls-63,.cls-64,.cls-65,.cls-66,.cls-67,.cls-68,.cls-69,.cls-7,.cls-70,.cls-71,.cls-72,.cls-73,.cls-74,.cls-75,.cls-76,.cls-77,.cls-78,.cls-79,.cls-8,.cls-80,.cls-81,.cls-82,.cls-83,.cls-84,.cls-85,.cls-86,.cls-87,.cls-88,.cls-89,.cls-9,.cls-90,.cls-91,.cls-92,.cls-93,.cls-94,.cls-95,.cls-96,.cls-97,.cls-98,.cls-99{stroke-miterlimit:10}.cls-110,.cls-3{stroke:url(#Безымянный_градиент_12)}.cls-4{stroke:url(#Безымянный_градиент_12-2)}.cls-5{stroke:url(#Безымянный_градиент_12-3)}.cls-6{stroke:url(#Безымянный_градиент_12-4)}.cls-7{stroke:url(#Безымянный_градиент_12-5)}.cls-8{stroke:url(#Безымянный_градиент_12-6)}.cls-9{stroke:url(#Безымянный_градиент_12-7)}.cls-10{stroke:url(#Безымянный_градиент_12-8)}.cls-11{stroke:url(#Безымянный_градиент_12-9)}.cls-12{stroke:url(#Безымянный_градиент_12-10)}.cls-13{stroke:url(#Безымянный_градиент_12-11)}.cls-14{stroke:url(#Безымянный_градиент_12-12)}.cls-15{stroke:url(#Безымянный_градиент_12-13)}.cls-16{stroke:url(#Безымянный_градиент_12-14)}.cls-17{stroke:url(#Безымянный_градиент_12-15)}.cls-18{stroke:url(#Безымянный_градиент_12-16)}.cls-19{stroke:url(#Безымянный_градиент_12-17)}.cls-20{stroke:url(#Безымянный_градиент_12-18)}.cls-21{stroke:url(#Безымянный_градиент_12-19)}.cls-22{stroke:url(#Безымянный_градиент_12-20)}.cls-23{stroke:url(#Безымянный_градиент_12-21)}.cls-24{stroke:url(#Безымянный_градиент_12-22)}.cls-25{stroke:url(#Безымянный_градиент_12-23)}.cls-26{stroke:url(#Безымянный_градиент_12-24)}.cls-27{stroke:url(#Безымянный_градиент_12-25)}.cls-28{stroke:url(#Безымянный_градиент_12-26)}.cls-29{stroke:url(#Безымянный_градиент_12-27)}.cls-30{stroke:url(#Безымянный_градиент_12-28)}.cls-31{stroke:url(#Безымянный_градиент_12-29)}.cls-32{stroke:url(#Безымянный_градиент_12-30)}.cls-33{stroke:url(#Безымянный_градиент_12-31)}.cls-34{stroke:url(#Безымянный_градиент_12-32)}.cls-35{stroke:url(#Безымянный_градиент_12-33)}.cls-36{stroke:url(#Безымянный_градиент_12-34)}.cls-37{stroke:url(#Безымянный_градиент_12-35)}.cls-38{stroke:url(#Безымянный_градиент_12-36)}.cls-39{stroke:url(#Безымянный_градиент_12-37)}.cls-40{stroke:url(#Безымянный_градиент_12-38)}.cls-41{stroke:url(#Безымянный_градиент_12-39)}.cls-42{stroke:url(#Безымянный_градиент_12-40)}.cls-43{stroke:url(#Безымянный_градиент_12-41)}.cls-44{stroke:url(#Безымянный_градиент_12-42)}.cls-45{stroke:url(#Безымянный_градиент_12-43)}.cls-46{stroke:url(#Безымянный_градиент_12-44)}.cls-47{stroke:url(#Безымянный_градиент_12-45)}.cls-48{stroke:url(#Безымянный_градиент_12-46)}.cls-49{stroke:url(#Безымянный_градиент_12-47)}.cls-50{stroke:url(#Безымянный_градиент_12-48)}.cls-51{stroke:url(#Безымянный_градиент_12-49)}.cls-52{stroke:url(#Безымянный_градиент_12-50)}.cls-53{stroke:url(#Безымянный_градиент_12-51)}.cls-54{stroke:url(#Безымянный_градиент_12-52)}.cls-55{stroke:url(#Безымянный_градиент_12-53)}.cls-56{stroke:url(#Безымянный_градиент_12-54)}.cls-57{stroke:url(#Безымянный_градиент_12-55)}.cls-58{stroke:url(#Безымянный_градиент_12-56)}.cls-59{stroke:url(#Безымянный_градиент_12-57)}.cls-60{stroke:url(#Безымянный_градиент_12-58)}.cls-61{stroke:url(#Безымянный_градиент_12-59)}.cls-62{stroke:url(#Безымянный_градиент_12-60)}.cls-63{stroke:url(#Безымянный_градиент_12-61)}.cls-64{stroke:url(#Безымянный_градиент_12-62)}.cls-65{stroke:url(#Безымянный_градиент_12-63)}.cls-66{stroke:url(#Безымянный_градиент_12-64)}.cls-67{stroke:url(#Безымянный_градиент_12-65)}.cls-68{stroke:url(#Безымянный_градиент_12-66)}.cls-69{stroke:url(#Безымянный_градиент_12-67)}.cls-70{stroke:url(#Безымянный_градиент_12-68)}.cls-71{stroke:url(#Безымянный_градиент_12-69)}.cls-72{stroke:url(#Безымянный_градиент_12-70)}.cls-73{stroke:url(#Безымянный_градиент_12-71)}.cls-74{stroke:url(#Безымянный_градиент_12-72)}.cls-75{stroke:url(#Безымянный_градиент_12-73)}.cls-76{stroke:url(#Безымянный_градиент_12-74)}.cls-77{stroke:url(#Безымянный_градиент_12-75)}.cls-78{stroke:url(#Безымянный_градиент_12-76)}.cls-79{stroke:url(#Безымянный_градиент_12-77)}.cls-80{stroke:url(#Безымянный_градиент_12-78)}.cls-81{stroke:url(#Безымянный_градиент_12-79)}.cls-82{stroke:url(#Безымянный_градиент_12-80)}.cls-83{stroke:url(#Безымянный_градиент_12-81)}.cls-84{stroke:url(#Безымянный_градиент_12-82)}.cls-85{stroke:url(#Безымянный_градиент_12-83)}.cls-86{stroke:url(#Безымянный_градиент_12-84)}.cls-87{stroke:url(#Безымянный_градиент_12-85)}.cls-88{stroke:url(#Безымянный_градиент_12-86)}.cls-89{stroke:url(#Безымянный_градиент_12-87)}.cls-90{stroke:url(#Безымянный_градиент_12-88)}.cls-91{stroke:url(#Безымянный_градиент_12-89)}.cls-92{stroke:url(#Безымянный_градиент_12-90)}.cls-93{stroke:url(#Безымянный_градиент_12-91)}.cls-94{stroke:url(#Безымянный_градиент_12-92)}.cls-95{stroke:url(#Безымянный_градиент_12-93)}.cls-96{stroke:url(#Безымянный_градиент_12-94)}.cls-97{stroke:url(#Безымянный_градиент_12-95)}.cls-98{stroke:url(#Безымянный_градиент_12-96)}.cls-99{stroke:url(#Безымянный_градиент_12-97)}.cls-100{stroke:url(#Безымянный_градиент_12-98)}.cls-101{stroke:url(#Безымянный_градиент_12-99)}.cls-102{stroke:url(#Безымянный_градиент_12-100)}.cls-103{stroke:url(#Безымянный_градиент_12-101)}.cls-104{stroke:url(#Безымянный_градиент_12-102)}.cls-105{stroke:url(#Безымянный_градиент_12-103)}.cls-106{stroke:url(#Безымянный_градиент_12-104)}.cls-107{stroke:url(#Безымянный_градиент_12-105)}.cls-108{stroke:url(#Безымянный_градиент_12-106)}.cls-109{stroke:url(#Безымянный_градиент_12-107)}.cls-110{opacity:.59;fill:url(#linear-gradient)}.cls-111{fill:url(#Безымянный_градиент_12-109)}</style><clipPath id="clip-path" transform="translate(-30.71)"><path class="cls-1" d="M0 11.14h255.56V803.6H0z"/></clipPath><linearGradient id="Безымянный_градиент_12" x1="35.69" y1="403.6" x2="459.3" y2="403.6" gradientUnits="userSpaceOnUse"><stop offset="0" stop-color="#fff"/><stop offset="1" stop-color="#00e991"/></linearGradient><linearGradient id="Безымянный_градиент_12-2" x1="118.28" y1="646.45" x2="190.95" y2="646.45" xlink:href="#Безымянный_градиент_12"/><linearGradient id="Безымянный_градиент_12-3" x1="218.14" y1="379.92" x2="286.47" y2="379.92" xlink:href="#Безымянный_градиент_12"/><linearGradient id="Безымянный_градиент_12-4" x1="94.91" y1="708.73" x2="150.52" y2="708.73" xlink:href="#Безымянный_градиент_12"/><linearGradient id="Безымянный_градиент_12-5" x1="175.63" y1="356.06" x2="238.18" y2="356.06" xlink:href="#Безымянный_градиент_12"/><linearGradient id="Безымянный_градиент_12-6" x1="119.52" y1="708.48" x2="190.45" y2="708.48" xlink:href="#Безымянный_градиент_12"/><linearGradient id="Безымянный_градиент_12-7" x1="114.14" y1="195.37" x2="211.65" y2="195.37" xlink:href="#Безымянный_градиент_12"/><linearGradient id="Безымянный_градиент_12-8" x1="227.64" y1="491.92" x2="295.82" y2="491.92" xlink:href="#Безымянный_градиент_12"/><linearGradient id="Безымянный_градиент_12-9" x1="190.09" y1="619.94" x2="233.68" y2="619.94" xlink:href="#Безымянный_градиент_12"/><linearGradient id="Безымянный_градиент_12-10" x1="227.63" y1="462.46" x2="295.81" y2="462.46" xlink:href="#Безымянный_градиент_12"/><linearGradient id="Безымянный_градиент_12-11" x1="131.93" y1="619.09" x2="167.14" y2="619.09" xlink:href="#Безымянный_градиент_12"/><linearGradient id="Безымянный_градиент_12-12" x1="233.68" y1="611.5" x2="296.71" y2="611.5" xlink:href="#Безымянный_градиент_12"/><linearGradient id="Безымянный_градиент_12-13" x1="197.66" y1="534.19" x2="326.53" y2="534.19" xlink:href="#Безымянный_градиент_12"/><linearGradient id="Безымянный_градиент_12-14" x1="150.95" y1="708.77" x2="233.27" y2="708.77" xlink:href="#Безымянный_градиент_12"/><linearGradient id="Безымянный_градиент_12-15" x1="91.06" y1="621.4" x2="128.52" y2="621.4" xlink:href="#Безымянный_градиент_12"/><linearGradient id="Безымянный_градиент_12-16" x1="274.36" y1="188.43" x2="342.19" y2="188.43" xlink:href="#Безымянный_градиент_12"/><linearGradient id="Безымянный_градиент_12-17" x1="272.88" y1="239.97" x2="355.31" y2="239.97" xlink:href="#Безымянный_градиент_12"/><linearGradient id="Безымянный_градиент_12-18" x1="273.15" y1="274.54" x2="355.15" y2="274.54" xlink:href="#Безымянный_градиент_12"/><linearGradient id="Безымянный_градиент_12-19" x1="333.72" y1="183.07" x2="380.48" y2="183.07" xlink:href="#Безымянный_градиент_12"/><linearGradient id="Безымянный_градиент_12-20" x1="121.24" y1="265.09" x2="191.48" y2="265.09" xlink:href="#Безымянный_градиент_12"/><linearGradient id="Безымянный_градиент_12-21" x1="191.47" y1="235.54" x2="271.85" y2="235.54" xlink:href="#Безымянный_градиент_12"/><linearGradient id="Безымянный_градиент_12-22" x1="225.39" y1="698.79" x2="275.68" y2="698.79" xlink:href="#Безымянный_градиент_12"/><linearGradient id="Безымянный_градиент_12-23" x1="272.19" y1="598.95" x2="356.53" y2="598.95" xlink:href="#Безымянный_градиент_12"/><linearGradient id="Безымянный_градиент_12-24" x1="202.96" y1="681.45" x2="265.97" y2="681.45" xlink:href="#Безымянный_градиент_12"/><linearGradient id="Безымянный_градиент_12-25" x1="242.89" y1="531.09" x2="325.81" y2="531.09" xlink:href="#Безымянный_градиент_12"/><linearGradient id="Безымянный_градиент_12-26" x1="238.18" y1="379.49" x2="336.45" y2="379.49" xlink:href="#Безымянный_градиент_12"/><linearGradient id="Безымянный_градиент_12-27" x1="268.03" y1="363.68" x2="366.86" y2="363.68" xlink:href="#Безымянный_градиент_12"/><linearGradient id="Безымянный_градиент_12-28" x1="268.85" y1="274.3" x2="331.53" y2="274.3" xlink:href="#Безымянный_градиент_12"/><linearGradient id="Безымянный_градиент_12-29" x1="150.52" y1="708.55" x2="233.71" y2="708.55" xlink:href="#Безымянный_градиент_12"/><linearGradient id="Безымянный_градиент_12-30" x1="285.45" y1="447.35" x2="342.93" y2="447.35" xlink:href="#Безымянный_градиент_12"/><linearGradient id="Безымянный_градиент_12-31" x1="238.47" y1="105.31" x2="293.15" y2="105.31" xlink:href="#Безымянный_градиент_12"/><linearGradient id="Безымянный_градиент_12-32" x1="244.24" y1="163.43" x2="364.34" y2="163.43" xlink:href="#Безымянный_градиент_12"/><linearGradient id="Безымянный_градиент_12-33" x1="367.12" y1="454.3" x2="413.19" y2="454.3" xlink:href="#Безымянный_градиент_12"/><linearGradient id="Безымянный_градиент_12-34" x1="244.96" y1="704.21" x2="344.24" y2="704.21" xlink:href="#Безымянный_градиент_12"/><linearGradient id="Безымянный_градиент_12-35" x1="299.47" y1="682.65" x2="357.96" y2="682.65" xlink:href="#Безымянный_градиент_12"/><linearGradient id="Безымянный_градиент_12-36" x1="98.14" y1="580.06" x2="167.24" y2="580.06" xlink:href="#Безымянный_градиент_12"/><linearGradient id="Безымянный_градиент_12-37" x1="36.85" y1="631.3" x2="129.3" y2="631.3" xlink:href="#Безымянный_градиент_12"/><linearGradient id="Безымянный_градиент_12-38" x1="65.6" y1="228.66" x2="119.77" y2="228.66" xlink:href="#Безымянный_градиент_12"/><linearGradient id="Безымянный_градиент_12-39" x1="156.28" y1="211.7" x2="332.78" y2="211.7" xlink:href="#Безымянный_градиент_12"/><linearGradient id="Безымянный_градиент_12-40" x1="65.14" y1="221.37" x2="66.83" y2="221.37" xlink:href="#Безымянный_градиент_12"/><linearGradient id="Безымянный_градиент_12-41" x1="176.56" y1="105.69" x2="264.48" y2="105.69" xlink:href="#Безымянный_градиент_12"/><linearGradient id="Безымянный_градиент_12-42" x1="296.67" y1="658.21" x2="388.47" y2="658.21" xlink:href="#Безымянный_градиент_12"/><linearGradient id="Безымянный_градиент_12-43" x1="218.85" y1="427.17" x2="258.24" y2="427.17" xlink:href="#Безымянный_градиент_12"/><linearGradient id="Безымянный_градиент_12-44" x1="244.97" y1="681.45" x2="299.48" y2="681.45" xlink:href="#Безымянный_градиент_12"/><linearGradient id="Безымянный_градиент_12-45" x1="201.51" y1="666.56" x2="203.65" y2="666.56" xlink:href="#Безымянный_градиент_12"/><linearGradient id="Безымянный_градиент_12-46" x1="248.85" y1="426.08" x2="315.86" y2="426.08" xlink:href="#Безымянный_градиент_12"/><linearGradient id="Безымянный_градиент_12-47" x1="178.23" y1="522.26" x2="235.11" y2="522.26" xlink:href="#Безымянный_градиент_12"/><linearGradient id="Безымянный_градиент_12-48" x1="156.95" y1="503.06" x2="219.06" y2="503.06" xlink:href="#Безымянный_градиент_12"/><linearGradient id="Безымянный_градиент_12-49" x1="218.55" y1="496.13" x2="276.36" y2="496.13" xlink:href="#Безымянный_градиент_12"/><linearGradient id="Безымянный_градиент_12-50" x1="128.28" y1="532.6" x2="178.88" y2="532.6" xlink:href="#Безымянный_градиент_12"/><linearGradient id="Безымянный_градиент_12-51" x1="155.24" y1="490.08" x2="156.95" y2="490.08" xlink:href="#Безымянный_градиент_12"/><linearGradient id="Безымянный_градиент_12-52" x1="197.68" y1="610.17" x2="272.89" y2="610.17" xlink:href="#Безымянный_градиент_12"/><linearGradient id="Безымянный_градиент_12-53" x1="179.22" y1="427.29" x2="248.86" y2="427.29" xlink:href="#Безымянный_градиент_12"/><linearGradient id="Безымянный_градиент_12-54" x1="156.02" y1="458.54" x2="218.61" y2="458.54" xlink:href="#Безымянный_градиент_12"/><linearGradient id="Безымянный_градиент_12-55" x1="88.47" y1="620.33" x2="131.93" y2="620.33" xlink:href="#Безымянный_градиент_12"/><linearGradient id="Безымянный_градиент_12-56" x1="295.18" y1="86.6" x2="380.53" y2="86.6" xlink:href="#Безымянный_градиент_12"/><linearGradient id="Безымянный_градиент_12-57" x1="323.75" y1="105.29" x2="380.52" y2="105.29" xlink:href="#Безымянный_градиент_12"/><linearGradient id="Безымянный_градиент_12-58" x1="333.47" y1="161.81" x2="382.54" y2="161.81" xlink:href="#Безымянный_градиент_12"/><linearGradient id="Безымянный_градиент_12-59" x1="235.83" y1="41.08" x2="290.48" y2="41.08" xlink:href="#Безымянный_градиент_12"/><linearGradient id="Безымянный_градиент_12-60" x1="173.99" y1="123.95" x2="264.49" y2="123.95" xlink:href="#Безымянный_градиент_12"/><linearGradient id="Безымянный_градиент_12-61" x1="83.42" y1="184.89" x2="151.57" y2="184.89" xlink:href="#Безымянный_градиент_12"/><linearGradient id="Безымянный_градиент_12-62" x1="300.81" y1="335.45" x2="356.87" y2="335.45" xlink:href="#Безымянный_градиент_12"/><linearGradient id="Безымянный_градиент_12-63" x1="381.27" y1="492.46" x2="423.19" y2="492.46" xlink:href="#Безымянный_градиент_12"/><linearGradient id="Безымянный_градиент_12-64" x1="325.8" y1="538.03" x2="392.48" y2="538.03" xlink:href="#Безымянный_градиент_12"/><linearGradient id="Безымянный_градиент_12-65" x1="326.51" y1="505.93" x2="381.19" y2="505.93" xlink:href="#Безымянный_градиент_12"/><linearGradient id="Безымянный_градиент_12-66" x1="336.14" y1="336.85" x2="382.48" y2="336.85" xlink:href="#Безымянный_градиент_12"/><linearGradient id="Безымянный_градиент_12-67" x1="336.34" y1="391.42" x2="382.48" y2="391.42" xlink:href="#Безымянный_градиент_12"/><linearGradient id="Безымянный_градиент_12-68" x1="151.14" y1="145.55" x2="213.82" y2="145.55" xlink:href="#Безымянный_градиент_12"/><linearGradient id="Безымянный_градиент_12-69" x1="14.63" y1="163.67" x2="84.14" y2="163.67" xlink:href="#Безымянный_градиент_12"/><linearGradient id="Безымянный_градиент_12-70" x1="82.52" y1="395.62" x2="179.23" y2="395.62" xlink:href="#Безымянный_градиент_12"/><linearGradient id="Безымянный_градиент_12-71" x1="85.8" y1="343.63" x2="144.84" y2="343.63" xlink:href="#Безымянный_градиент_12"/><linearGradient id="Безымянный_градиент_12-72" x1="29.81" y1="268.42" x2="120.14" y2="268.42" xlink:href="#Безымянный_градиент_12"/><linearGradient id="Безымянный_градиент_12-73" x1="30.47" y1="451.35" x2="97.21" y2="451.35" xlink:href="#Безымянный_градиент_12"/><linearGradient id="Безымянный_градиент_12-74" x1="6.14" y1="511.45" x2="60.81" y2="511.45" xlink:href="#Безымянный_градиент_12"/><linearGradient id="Безымянный_градиент_12-75" x1="55.14" y1="106.96" x2="126.07" y2="106.96" xlink:href="#Безымянный_градиент_12"/><linearGradient id="Безымянный_градиент_12-76" x1="126.94" y1="126.99" x2="173.49" y2="126.99" xlink:href="#Безымянный_градиент_12"/><linearGradient id="Безымянный_градиент_12-77" x1="83.81" y1="137.83" x2="150.14" y2="137.83" xlink:href="#Безымянный_градиент_12"/><linearGradient id="Безымянный_градиент_12-78" x1="17.04" y1="214.35" x2="65.14" y2="214.35" xlink:href="#Безымянный_градиент_12"/><linearGradient id="Безымянный_градиент_12-79" x1="14.64" y1="155.88" x2="17.05" y2="155.88" xlink:href="#Безымянный_градиент_12"/><linearGradient id="Безымянный_градиент_12-80" x1="296.62" y1="604.91" x2="388.95" y2="604.91" xlink:href="#Безымянный_градиент_12"/><linearGradient id="Безымянный_градиент_12-81" x1="16.64" y1="183.48" x2="65.14" y2="183.48" xlink:href="#Безымянный_градиент_12"/><linearGradient id="Безымянный_градиент_12-82" x1="175.81" y1="44.39" x2="235.84" y2="44.39" xlink:href="#Безымянный_градиент_12"/><linearGradient id="Безымянный_градиент_12-83" x1="127.9" y1="456.41" x2="179.18" y2="456.41" xlink:href="#Безымянный_градиент_12"/><linearGradient id="Безымянный_градиент_12-84" x1="85.8" y1="395.55" x2="151" y2="395.55" xlink:href="#Безымянный_градиент_12"/><linearGradient id="Безымянный_градиент_12-85" x1="144.99" y1="398.82" x2="218.15" y2="398.82" xlink:href="#Безымянный_градиент_12"/><linearGradient id="Безымянный_градиент_12-86" x1="61.49" y1="675.53" x2="119.19" y2="675.53" xlink:href="#Безымянный_градиент_12"/><linearGradient id="Безымянный_градиент_12-87" x1="91.52" y1="531.99" x2="155.24" y2="531.99" xlink:href="#Безымянный_градиент_12"/><linearGradient id="Безымянный_градиент_12-88" x1="28.81" y1="559.82" x2="98.69" y2="559.82" xlink:href="#Безымянный_градиент_12"/><linearGradient id="Безымянный_градиент_12-89" x1="91.52" y1="469.35" x2="156.08" y2="469.35" xlink:href="#Безымянный_градиент_12"/><linearGradient id="Безымянный_градиент_12-90" x1="119.77" y1="311.65" x2="121.25" y2="311.65" xlink:href="#Безымянный_градиент_12"/><linearGradient id="Безымянный_градиент_12-91" x1="120.14" y1="312.96" x2="121.94" y2="312.96" xlink:href="#Безымянный_градиент_12"/><linearGradient id="Безымянный_градиент_12-92" x1="344.24" y1="682.46" x2="395.78" y2="682.46" xlink:href="#Безымянный_градиент_12"/><linearGradient id="Безымянный_градиент_12-93" x1="114.14" y1="264.2" x2="155.31" y2="264.2" xlink:href="#Безымянный_градиент_12"/><linearGradient id="Безымянный_градиент_12-94" x1="120.14" y1="314.96" x2="123.27" y2="314.96" xlink:href="#Безымянный_градиент_12"/><linearGradient id="Безымянный_градиент_12-95" x1="121.93" y1="286.7" x2="272.84" y2="286.7" xlink:href="#Безымянный_градиент_12"/><linearGradient id="Безымянный_градиент_12-96" x1="123.26" y1="349.76" x2="218.16" y2="349.76" xlink:href="#Безымянный_градиент_12"/><linearGradient id="Безымянный_градиент_12-97" x1="297.78" y1="765.91" x2="365.24" y2="765.91" xlink:href="#Безымянный_градиент_12"/><linearGradient id="Безымянный_градиент_12-98" x1="237.33" y1="761.5" x2="297.79" y2="761.5" xlink:href="#Безымянный_градиент_12"/><linearGradient id="Безымянный_градиент_12-99" x1="244.96" y1="753.62" x2="344.24" y2="753.62" xlink:href="#Безымянный_градиент_12"/><linearGradient id="Безымянный_градиент_12-100" x1="344.23" y1="731.7" x2="396.47" y2="731.7" xlink:href="#Безымянный_градиент_12"/><linearGradient id="Безымянный_градиент_12-101" x1="393.14" y1="622.56" x2="419.54" y2="622.56" xlink:href="#Безымянный_градиент_12"/><linearGradient id="Безымянный_градиент_12-102" x1="189.6" y1="761.5" x2="244.97" y2="761.5" xlink:href="#Безымянный_градиент_12"/><linearGradient id="Безымянный_градиент_12-103" x1="150.94" y1="753.98" x2="225.39" y2="753.98" xlink:href="#Безымянный_градиент_12"/><linearGradient id="Безымянный_градиент_12-104" x1="59.93" y1="754.23" x2="151.79" y2="754.23" xlink:href="#Безымянный_градиент_12"/><linearGradient id="Безымянный_градиент_12-105" x1="103.06" y1="773.79" x2="189.62" y2="773.79" xlink:href="#Безымянный_градиент_12"/><linearGradient id="Безымянный_градиент_12-106" x1="220.32" y1="747.63" x2="275.69" y2="747.63" xlink:href="#Безымянный_градиент_12"/><linearGradient id="Безымянный_градиент_12-107" x1="358.23" y1="624.87" x2="396.48" y2="624.87" xlink:href="#Безымянный_градиент_12"/><linearGradient id="linear-gradient" x1="2235.53" y1="2923.49" x2="3036.96" y2="2923.49" gradientTransform="rotate(90 2701.72 469.3)" gradientUnits="userSpaceOnUse"><stop offset="0" stop-color="#50504e"/><stop offset=".04" stop-color="#626261"/><stop offset=".19" stop-color="#a5a5a4"/><stop offset=".32" stop-color="#d6d6d5"/><stop offset=".42" stop-color="#f4f4f4"/><stop offset=".48" stop-color="#fff"/><stop offset="1"/></linearGradient><linearGradient id="Безымянный_градиент_12-109" x1="30.71" y1="404.56" x2="464.38" y2="404.56" xlink:href="#Безымянный_градиент_12"/></defs><title>Ресурс 6</title><g id="Слой_2" data-name="Слой 2"><g id="_1920" data-name="1920"><g class="cls-2" id="header"><path class="cls-3" d="M36.4 655l-.13.27 24.84 33.59c.8 1 5.76 4.74 33.09 23.59l-35.01 65.69L47.74 802l.9.43 11.57-24 72.9 18.14-.13.34.58-.14-2.5 6.26.93.36 2.76-6.91 84.15-20.23-22.75 25.64.75.65L220.42 776l47.1 27.37v.39l60.82-15.85.19.24.2-.25 68 15.88-20.88-73.95 50.62 31.8-30.21 38.93.79.6 29.49-38-3.78 41.29 1 .09 3.92-42.85.25-.32-.23-.14.06-62.32 23.09-73-26.5-79.71-.05-2.46-35.39 91.67L357.2 567l67-25.22-.53-.41-10-98 .09-.2-.1-.1V342l44 101.22-33.01 100.3 1 .31 33.17-100.68-45.14-103.69 17.59-77.56-16.51-65.41 13.49-184.17-1-.07-13.5 184.24v.08l16.49 65.34-17.19 76-26.66-65.71 27.32-80.53-32.64-139.88 39.82-43.06-.74-.67-39.54 42.76-25-42.67-.87.5 25 42.71L296 75.34l26.2-70.55-55.57 38.08-35-39.76-25.28 80.43-42.81-63.13c7.62-5.36 18.94-13.18 20-13.52l-.32-.94c-1.53.5-18.68 12.56-20.63 13.93l-.4.28 43.62 64.32-.69.35-.63-1.88-.69 2.55-47.23 23.78-24.09-40.87a.64.64 0 0 0 0-.2L161.28 23l-.85-.53-28.25 44.42c-1-2.59-4.7-9.54-16.84-29.53-8.85-14.56-18-29.08-18.06-29.22l-.85.52c13.65 21.71 33.67 54.45 35 59.06-6.29-1.72-61.65-20.07-68.69-22.4l32-34.6L94 10 61 45.77l.73.24c2.59.86 60.33 20.06 69.07 22.55l-44.73 35.61-22.25-56.33-.93.36 22.4 56.7-39.17 47.88L61.85 48.09v-.16L39.79 8.16l-.88.48 21.92 39.47-15.92 106-.4.1.32.43-.24 1.59.75-.91 1.94 2.6L59.36 269.8l.95-.1-.18.25-.35.48 90.35 44.26-34 49.66-34.42 26.74.08.06-20.11 22.42L61 274.68l53.73 88.27.86-.51L60 271.09l.67 143.59-.06.07v.14L36.37 520.42v.12L59 608zm1 .16l22.5-46.76 68.78-33.74-.62 1c-3.5 5.85-20.92 35-37.13 62.23L61.88 609l-.71.7 29.27 29.16c-13.77 23.1-26.53 44.57-29 48.82zm60.42-433.28l-1-1.6.19-.84 17.21-69.36L144.36 223l5.49 83.88-51.42-84 44.08.31v-1zm-1.3-.21l.12.2h-.17zm265-60.93l-56.84 57.31-2.19 1.2-58.9-12.72L222 262.94l-34.1-45.61 3.06-.43 52.55-11.12-.1.27zm-92.77-26.41l-.08.17-60.15-47.58 85.85-10.24zm26.53-57.19l27.8 44.19-53 12.49zm-25.86 58l-.11-.09 54.56-12.85c2.27.94 24.55 22.15 39.58 36.77l-118.38 45.39zm103.7 309.85l-46.26 49.4-10.14-64 50.07-30.24zm-5.29-44.64l44.77 43.07c-11.05 24-27.52 59-31 64.79-1-8.62-7.35-62.53-7.42-63.11L374 444zm-36.9 279.42L388 637.68l-13.4 89.93zm42.79 48.34L277 719.52l53.1-39.16zM330.26 679l-32.46-35.52c3.17 0 13.13-.6 45.18-2.91 18.66-1.34 37.5-2.75 43.8-3.22zm-.81.59l-52.91 39L296.92 644zM156.69 491.35l21.56 43.95-49 37.78 26.38-81.4zm-.67-.83l.11-.33.12.25zm.6-4.14l22.81-59.18c3.38 3.13 23.85 27 38.3 44.09-6 1.62-32.52 10-60.51 18.85l-.64-1.31.43-1.34.06-.19zm25.25-61.05h.4v-.19L247.93 384l-29.36 86.76c-3-3.56-10.73-12.66-18.47-21.67-14-16.31-18.48-21.2-20.06-22.62zm16.48 148l73.43-18 .58 2-38.7 107zm35.24 93.57h-.31l.21-.22zm15.84-283L315 429.63l-56.5 38.94c-1.91-4.71-6.38-52.28-9.06-84.72zm26.23 130.37l-40.22 8.21L220 472.5l-.09-.17-.32-.38 38.41-2.17zm-23.5-88.58c3.13 32.6 4.6 40.93 5.38 43.18l-38 2.14 29-85.68c.53 6.11 1.99 23.24 3.63 40.3zm-17.62 97.28L198.49 571v-.17l-.6.89L179 535.49l-.16-.3.13-.2c.1-.15 10.34-15.67 20.38-31.13 14.1-21.72 18.36-28.75 19.59-31.17l.16.19zm-56 10.82L157.65 491c29.34-9.31 55.56-17.56 60.45-18.88-2.76 5.46-24.46 38.79-39.51 61.6zm18.63 38.82h-.2l.11.29-34.28 50.66-.08.07-33.2-49.51 48.83-37.65zM190 666.14c-31.13.77-67.89 1.75-70.52 1.82h-.38l.46-.87 43-41.92zm-.22-2.12l-26.52-39.54.25-.24 33.66-49.68zm8.32-88.56l34.9 89.72c-4 0-21.86.43-42.31.94zm74.71-16.52c8.39 29.54 22.35 79 23.3 83.72l-61.62 22.2zm0-3.73l-.2-.69-.13-.46-73.58 18.07 36.49-48.68 40.41-8.25-3.44 38.71 1 .09 3.47-39h.22v-.08l47.8-18.25zm3.82-41.27l-17.4-43.81 65.9 25.3zm-17.23-44.81l56.29-38.8 10.19 64.32zm-9.66-86.28l.52-.33-.74-.1 19.41-51.88 47 98.51zm-1.14-.8l-.34-.24-40.86-28.1 60.6-23.57zM162 624.34l-42.17 41.14L129 576l.08-.77zm-43.2 41.37l-27.11-27c15.3-25.68 31.67-53.09 36.11-60.51zm.14 2.62L149.5 749c-12.84-8.73-35.08-23.92-53.93-36.92zm1.3.6c5.34-.14 39.85-1.06 69.42-1.79l-39.08 81.93zm70.53-1.82c19.81-.49 37.2-.9 41.75-.94l-81.4 84.35-.06-.16zm41.83.42l-7.67 64.68-72.41 18.3zm1.07-.51v.09l.15-.4 41 52.89L226 731.94zm.83-1.1l61.45-22.14-20.48 75zm62.41-24c-.88-4-5.07-19.77-23.49-84.56l.19-.53-.38-.13-.34-1.2 82.71 11.65zm-22.32-87.19l51.78-58.36 29.35 69.79zM317 429l-46.82-98.21L366.46 399v.08zm-47.36-99.81c26.35.28 57.17.55 61.59.32l34.29 67.61zm-.09-1l34.13-106.89 27.23 107.26c-5.14.18-44.91-.19-61.38-.37zm35.12-107l80.42 51.16L331.78 328zm-.47-1.48l.23-.74 67.39-10.75 13.47 63.08zM372.34 207l-.28.12-65.56 10.48 57.33-57.81.22-.23zm-7.21-47.12l45 31.63-36.87 15.1zm-64 60.07l-78 42.89 21.07-55.19zm-79.67 43.87l-68.61 48.59-.39-1 33.9-93.89.39-.05zm-30.7-47.93l-3.56.5-1-1.35-.57 1.57-39.76 5.57L182 168.55l59 36.74zm-9.39-48.26L145 221.81l-30.3-73.37.22-.9 66.79 19.11zm-36 55.61l39.89-5.58-33.39 92.47-.91-1.48zm5.92 87.83l.12.32-.23.63-.08-1.26zM152 313l-.18.13.11-.31zm.37 1l.52 1.35-1.21-.86zm.83-.59l69.21-49 80.17-44.08.29.06L268.23 329 207 352.83l15.64-85.67 44.81 59.51.8-.59-46.19-61.34-16.06 88-51.62-36.39zm52.07 40.09l.73.5.67.48 40.14 27.6-70.94-9.73L155 318zm42.12 29.65L182.12 424l-5.84-50.63zm-72.15-9.69l5.9 51.13-1.92 1.2-61.32-60.42 57.26 7.86zM156 485.14l-27.58-58.07.07-.15c5.58 0 23.09.14 36 .14 6.51 0 11.85 0 13.92-.1zm-.5 1.28l-.55 1.44.51 1-.64 2c-24.28 7.71-49.23 15.69-62.43 19.91l35.51-82.51zm-1.06 5.63l-25.75 79.45-36.41-59.61c17.17-5.5 40.34-12.89 62.19-19.83zm-25.72 81.42l-.16.12-68.19 33.47 31.29-94.27zm-66.6 115.06c1.51-2.71 14.75-25 29-48.95l27.41 27.31-23.8 44.66c-16.83-11.62-30.79-21.37-32.61-23.02zm71.34 107.07l-72.79-18.11L95.09 713l10.52 7.24c22 15.14 44.4 30.35 44.63 30.5l.36.24-.06.15-.47.48.25.09zm1.12-.13L151.25 752l67.3 23.24zm85.31-20.77l-67.2-23.21 72.12-18.23zm6-41.7l48.22-12.18L221 774zm-4.72 42.27l53.93-54-7.44 81.05zm47.48 27.18l7.46-81.25 51.57 65.86zm59.89-15.9l-51.72-66 97.18 8.58zm66.74 15.89L329.37 787l45.36-57.24zm31.39-41.83L376 728.76l50.73-26.06zm23.1-134.67l-22.15 69.86-3.19-146.2zm-26.32-77.11l3.28 150v2.75l-37.23-64.93zM389 637.94v-.12L425.8 702l-50.21 25.79zm-.78-1.69c-29.42 2.22-83 6.15-90.53 6.3l58.73-74.82.13.3v-.05zm-31.67-70.78l-29.15-69.31 49.35 13 .26-1-49.53-13 45.81-48.93c.95 8.09 6.95 59.25 7.41 63zm.91.4l24-55.79 40.78 31.42zm65.13-25.32L382 509.26c1.26-1.73 4.71-8.28 16.22-32.66 6.31-13.36 12.56-26.87 14.7-31.48zm-9.88-98.47l-45.11-43.37v-.14L412.69 341zm-.07-102.59l-45 57.35 19.54-120zm-25.83-63.66l-.42-.07-19.78 121.33-34.48-68 53.56-56zm-6.19-221.54l32 137.34-26.61 78.43-11.66-57.36-.88-5.06 38.75-15.88L365 158.61l.45-.45-.71.27zm-16.83 103.6c-9.6-9.34-34.94-33.81-39.38-36.5 2.23-4.11 33.56-42 55.34-68.06zM379.1 52.57c-3.55 4.25-15.66 18.74-27.58 33.2-20.64 25-26.28 32.45-27.73 34.83L296 76.38zM320.17 7.38L295 75.13l-27.72-31.5zM232.06 5.1l33.74 38.34-58.37 40zm-26.37 80.54l-.08.25 1.17-.8.47-.24v-.06l59.25-40.61 27.7 31.52L206 86.22l62.19 49.22-23.69 67.4-39.08-117.06zm-1.12.75l39.43 118-.46 1.3-61.11-38zm-1.14.39l-21.74 79.82-23.37-57v-.07zm-45.78 23.8L180 165.14l-64.88-18.57.17-.71zm-25.94-41.51l24.42 41.47-41.19 34.32-28.41-39.79zM46.2 154.81l.72-.17.14 1.33zm.47-1.13l39.16-47.89 28.48 39.91-.15.6-1.66-.48 1.11 2.7-17.54 70.69-.06.27-9.16-74.94-.5.06-.12-.48zm1.22.72l38-9.19 9.2 75.34-46.89-63zm.55 5.1l46.78 62.86-34.87 47.28zm12.84 110.56l34.58-46.86.24.33.15-.66h1L150 309l.31 4.69zM150.45 316l.06.95.59-1.64 2.47 1.74 21.21 55.16-57.4-7.88zm-34 49.38L178 426c-6.06.17-37 0-49.69-.07l-45-34.84zm-33.9 26.43l44.45 34.3h-.07l.45 1-35.79 83.06L61.75 415zM37.37 520.52l23.89-103.75L91 511.58l-.36.83h.11l-31.17 93.85z" transform="translate(-30.71)"/><path class="cls-4" d="M119.13 668h.38c2.63-.07 39.39-1 70.52-1.82l-27.46-41-43 41.92z" transform="translate(-30.71)"/><path class="cls-5" d="M218.83 382.43l.73.1-.52.33 66.16 46.2-46.96-98.51-19.41 51.88z"/><path class="cls-6" d="M149.5 749l-30.56-80.71-23.38 43.83c18.86 13 41.1 28.19 53.94 36.88z" transform="translate(-30.71)"/><path class="cls-7" d="M217.56 381.83v-.01l.34.24 19.42-51.92-60.63 23.6 40.87 28.09z"/><path class="cls-8" d="M189.65 667.14c-29.57.74-64.07 1.65-69.42 1.79l30.34 80.14z" transform="translate(-30.71)"/><path class="cls-9" d="M115.18 222.21l39.76-5.56.56-1.57 1.01 1.35 3.56-.5 50.26-10.64-59.04-36.74-36.11 53.66z"/><path class="cls-10" d="M228.52 470.13l17.41 43.81 48.49-18.51-65.9-25.3z"/><path class="cls-11" d="M198.13 575.46l-7.49 90.66c20.46-.51 38.35-.93 42.31-.94z" transform="translate(-30.71)"/><path class="cls-12" d="M284.99 430.34l-56.29 38.8 66.48 25.52-10.19-64.32z"/><path class="cls-13" d="M132.82 624.23l-.24.24 26.51 39.55 7.4-89.47-33.67 49.68z"/><path class="cls-14" d="M272.83 558.94l-38.32 105.92 61.62-22.2c-.94-4.66-14.9-54.18-23.3-83.72z" transform="translate(-30.71)"/><path class="cls-15" d="M277 514.86v.08h-.22l-3.47 39-1-.09 3.44-38.71-40.41 8.25-36.44 48.74 73.58-18.07.13.46.2.69 52-58.6z" transform="translate(-30.71)"/><path class="cls-16" d="M232.6 667.53l-80.07 83 72.41-18.3z" transform="translate(-30.71)"/><path class="cls-17" d="M118.8 665.71l9-87.52c-4.44 7.42-20.8 34.81-36.11 60.51z" transform="translate(-30.71)"/><path class="cls-18" d="M333.12 159.79l-57.33 57.81 65.56-10.45.28-.12-8.28-47.46-.23.22z"/><path class="cls-19" d="M341.09 208.19l-67.39 10.75-.23.74 81.1 51.59-13.48-63.08z"/><path class="cls-20" d="M273.94 221.15l27.13 106.87 53.29-55.71-80.42-51.16z"/><path class="cls-21" d="M379.45 191.54l-45.03-31.63 8.16 46.73 36.87-15.1z"/><path class="cls-22" d="M155.68 217.54l-33.9 93.89.38 1.01 68.61-48.58-34.71-46.37-.38.05z"/><path class="cls-23" d="M270.44 219.98l-56.95-12.3-21.06 55.2 78.01-42.9z"/><path class="cls-24" d="M233.84 666.71l-.15.4v-.09L226 731.94l48.85-12.34z" transform="translate(-30.71)"/><path class="cls-25" d="M272.89 555.47l.34 1.2.38.13-.19.53c18.42 64.79 22.62 80.6 23.49 84.56l58.69-74.77z" transform="translate(-30.71)"/><path class="cls-26" d="M265.23 643.79l-61.45 22.13 40.97 52.88 20.48-75.01z"/><path class="cls-27" d="M295.65 496.35l-51.77 58.36 81.13 11.43-29.36-69.79z"/><path class="cls-28" d="M239.45 330.79L286.28 429l49.51-29.91-.04-.08-96.3-68.22z"/><path class="cls-29" d="M269.63 329.19l95.87 67.93-34.29-67.61c-4.41.22-35.21-.04-61.58-.32z" transform="translate(-30.71)"/><path class="cls-30" d="M330.89 328.57l-27.23-107.26-34.13 106.88c16.47.18 56.24.55 61.36.38z" transform="translate(-30.71)"/><path class="cls-31" d="M232.52 666.17c-4.55 0-21.94.44-41.75.94l-39.71 83.25.06.16z" transform="translate(-30.71)"/><path class="cls-32" d="M286 430.33l10.14 64.02 46.26-49.4-6.33-44.86L286 430.33z"/><path class="cls-33" d="M264.55 77.14l-25.21 56.68 53.01-12.49-27.8-44.19z"/><path class="cls-34" d="M363.44 158.93c-15-14.62-37.31-35.83-39.58-36.77L269.3 135l.11.09-24.34 69.26z" transform="translate(-30.71)"/><path class="cls-35" d="M374 444l.12 1.07c.07.58 6.39 54.49 7.42 63.11 3.51-5.8 20-40.83 31-64.79l-44.72-43.09L374 444z" transform="translate(-30.71)"/><path class="cls-36" d="M246.32 719.52l96.69 8.6-43.6-47.75-53.09 39.15z"/><path class="cls-37" d="M357.29 637.68l-57.07 42.09 43.68 47.84 13.39-89.93z"/><path class="cls-38" d="M132.01 623.63l.08-.07 34.32-50.68-.11-.29.2-.05-18.86-36.07-48.83 37.66 33.2 49.5z"/><path class="cls-39" d="M61.17 609.7l.71-.7L91 638c16.21-27.2 33.63-56.37 37.13-62.23l.62-1L59.9 608.4l-22.46 46.8 24 32.49c2.44-4.26 15.2-25.72 29-48.82z" transform="translate(-30.71)"/><path class="cls-40" d="M67.72 222.88l51.42 83.97-5.49-83.88-30.11-72.9-17.21 69.37-.19.84.97 1.6 44.7.32v.99l-44.09-.31z"/><path class="cls-41" d="M160.25 216.9l-3.06.43 34.14 45.61 21.53-56.41 58.9 12.72 2.19-1.2 56.84-57.31-118.09 45.32.09-.28-52.54 11.12z"/><path class="cls-42" d="M65.81 221.67l-.04.2h.17l-.13-.2z"/><path class="cls-43" d="M237.94 134.5l.08-.17 25.64-57.65-85.85 10.24 60.13 47.58z"/><path class="cls-44" d="M297.8 643.48L330.26 679l56.52-41.68c-6.3.47-25.13 1.88-43.8 3.22-32.05 2.34-41.98 2.93-45.18 2.94z" transform="translate(-30.71)"/><path class="cls-45" d="M219.56 471l38-2.14c-.78-2.25-2.25-10.58-5.38-43.18-1.64-17.06-3.1-34.19-3.61-40.36z" transform="translate(-30.71)"/><path class="cls-46" d="M245.83 718.64l52.91-39.01L266.21 644l-20.38 74.64z"/><path class="cls-47" d="M202.88 666.85l-.09-.25-.22.21.31.04z"/><path class="cls-48" d="M249.44 383.85c2.68 32.44 7.15 80 9 84.72L315 429.63z" transform="translate(-30.71)"/><path class="cls-49" d="M218.91 472.69c-1.22 2.41-5.48 9.44-19.59 31.17-10 15.47-20.28 31-20.38 31.13l-.13.2.16.3 18.94 36.24.6-.89v.16l36.06-48.1-15.48-50z" transform="translate(-30.71)"/><path class="cls-50" d="M178.59 533.72c15.05-22.81 36.75-56.14 39.51-61.56-4.89 1.32-31.11 9.57-60.45 18.88z" transform="translate(-30.71)"/><path class="cls-51" d="M219.9 472.33l.09.17 15.45 49.92 40.22-8.21L258 469.78l-38.44 2.17z" transform="translate(-30.71)"/><path class="cls-52" d="M129.25 573.08l49-37.78-21.56-43.95-1.05.33z" transform="translate(-30.71)"/><path class="cls-53" d="M156 490.52l.23-.07-.12-.25z" transform="translate(-30.71)"/><path class="cls-54" d="M272.37 557.3l-.58-2-73.43 18 35.31 91z" transform="translate(-30.71)"/><path class="cls-55" d="M200.11 449.09c7.73 9 15.45 18.11 18.47 21.67L247.93 384l-65.69 41.1v.19h-.4l-1.84 1.18c1.63 1.42 6.11 6.31 20.11 22.62z" transform="translate(-30.71)"/><path class="cls-56" d="M156.56 488.83l.64 1.31c28-8.88 54.54-17.23 60.51-18.85-14.44-17.07-34.91-41-38.3-44.09l-22.81 59.18.44.93-.06.19z" transform="translate(-30.71)"/><path class="cls-57" d="M98.31 576.05l-9.2 89.43 42.18-41.14-32.9-49.07-.08.78z"/><path class="cls-58" d="M323.78 120.61c1.45-2.38 7.1-9.79 27.73-34.83 11.92-14.46 24-29 27.58-33.2L296 76.38z" transform="translate(-30.71)"/><path class="cls-59" d="M363.79 157.89l16-104.56c-21.79 26-53.12 63.95-55.34 68.06 4.41 2.69 29.74 27.17 39.34 36.5z" transform="translate(-30.71)"/><path class="cls-60" d="M334.04 158.43l.71-.28-.45.46 47.2 33.16-38.75 15.87.88 5.06 11.72 57.36 26.61-78.43-32.05-137.34-15.89 104.12.02.02z"/><path class="cls-61" d="M289.46 7.38l-52.88 36.25 27.72 31.5 25.16-67.75z"/><path class="cls-62" d="M237.52 135.44l-62.2-49.22 88.17-10.52-27.74-31.51L176.5 84.8l.04.06-.47.23-1.17.81.08-.26-.27.14 39.12 117.06 23.69-67.4z"/><path class="cls-63" d="M83.95 148.44l30.3 73.37 36.43-54.14.28-1.02-66.79-19.11-.22.9z"/><path class="cls-64" d="M301.41 329.1l34.48 67.99 19.76-121.32.42.07-1.1-2.72-53.56 55.98z"/><path class="cls-65" d="M382 509.26l40.62 31.29-9.7-95.43c-2.13 4.61-8.39 18.12-14.7 31.48-11.55 24.4-15 30.94-16.22 32.66z" transform="translate(-30.71)"/><path class="cls-66" d="M326.73 565.88l64.74-24.37-40.79-31.43-23.95 55.8z"/><path class="cls-67" d="M373.27 446.24l-45.81 48.93 49.53 13-.26 1-49.35-13 29.15 69.31 24.15-56.25c-.47-3.75-6.46-54.91-7.41-62.99z" transform="translate(-30.71)"/><path class="cls-68" d="M381.9 339.5l-25.42-62.64-19.53 119.99 44.95-57.35z"/><path class="cls-69" d="M336.88 398.71l45.1 43.38V341.02l-45.12 57.55.02.14z"/><path class="cls-70" d="M212.83 205.68l.46-1.3-39.43-117.99-22.14 81.27 61.11 38.02z"/><path class="cls-71" d="M55.64 144.6l.5-.06 9.15 74.94.07-.27 17.54-70.69-1.11-2.7 1.66.48.15-.61-28.48-39.9-39.16 47.89 39.56-9.56.12.48z"/><path class="cls-72" d="M178 426l-61.56-60.66-33.11 25.75 45 34.84c12.67.07 43.67.24 49.67.07z" transform="translate(-30.71)"/><path class="cls-73" d="M122.86 317.01l-2.47-1.74-.59 1.63-.06-.94-33.07 48.33 57.4 7.88-21.21-55.16z"/><path class="cls-74" d="M119.28 308.97l-52.73-86.1-1.01-.01-.15.66-.25-.32-34.58 46.86 89.03 43.6-.31-4.69z"/><path class="cls-75" d="M96.64 427.09l-.45-.95.06-.03-44.38-34.34-20.83 23.21 29.84 95.2 35.76-83.09z"/><path class="cls-76" d="M60.03 512.38l-.11.03.36-.83-29.73-94.81L6.66 520.52l22.21 85.74 31.16-93.88z"/><path class="cls-77" d="M125.43 110.55L101 69.07l-45.18 36 28.42 39.8 41.19-34.32z"/><path class="cls-78" d="M150.97 166.61l21.75-79.83-45.14 22.73.02.07 23.37 57.03z"/><path class="cls-79" d="M84.41 146.57l64.88 18.57-22.35-54.56-42.35 35.29-.18.7z"/><path class="cls-80" d="M17.74 159.5l11.89 110.14 34.89-47.28-46.78-62.86z"/><path class="cls-81" d="M15.49 154.81l.86 1.16-.14-1.33-.72.17z"/><path class="cls-82" d="M356.52 568l-.13-.3-58.73 74.82c7.56-.15 61.11-4.08 90.53-6.3L356.54 568z" transform="translate(-30.71)"/><path class="cls-83" d="M55.21 145.21l-38.02 9.19.34 3.15 46.89 63-9.21-75.34z"/><path class="cls-84" d="M201.35 5.1l-24.63 78.34 58.37-40L201.35 5.1z"/><path class="cls-85" d="M128.52 426.92l-.07.15L156 485.14 178.44 427c-2.07.08-7.41.1-13.92.1-12.91-.04-30.43-.1-36-.18z" transform="translate(-30.71)"/><path class="cls-86" d="M148.54 425.79l1.93-1.2-5.9-51.14-.09-.22-57.26-7.86 61.32 60.42z"/><path class="cls-87" d="M216.72 383.14l-71.16-9.76 5.85 50.62 65.31-40.86z"/><path class="cls-88" d="M118.57 666.89l-27.41-27.31c-14.3 24-27.53 46.24-29 48.95 1.82 1.65 15.78 11.4 32.62 23z" transform="translate(-30.71)"/><path class="cls-89" d="M128.71 571.51l25.75-79.45c-21.85 6.94-45 14.34-62.19 19.83z" transform="translate(-30.71)"/><path class="cls-90" d="M29.66 607.06l68.21-33.46.16-.13-37.09-60.68-31.28 94.27z"/><path class="cls-91" d="M92.41 510.8c13.21-4.23 38.16-12.2 62.43-19.91l.64-2-.51-1 .55-1.44-27.61-58.13z" transform="translate(-30.71)"/><path class="cls-92" d="M120.71 311.43l-.12-.32-.19-.31.08 1.27.23-.64z"/><path class="cls-93" d="M121.33 313.03l-.07-.17-.11.3.18-.13z"/><path class="cls-94" d="M395.09 702.04l-36.77-64.19-.04.12-.02-.03-13.39 89.9 50.22-25.8z"/><path class="cls-95" d="M154.56 217.7l-39.89 5.58 5.59 85.4.91 1.48 33.39-92.46z"/><path class="cls-96" d="M121.7 313.99l-.7.49 1.22.86-.52-1.35z"/><path class="cls-97" d="M191.35 264.74l46.19 61.34-.8.59-44.81-59.51-15.64 85.67L237.52 329l34.68-108.64-.29-.06-80.16 44.08-69.22 49.02 1.14 2.97 51.62 36.39 16.06-88.02z"/><path class="cls-98" d="M216.14 382.06L176 354.46l-.01.01-.67-.48-.73-.5h.01l-50.29-35.45 20.89 54.29 70.94 9.73z"/><path class="cls-99" d="M298.66 787.04l65.87 15.39-20.51-72.63-45.36 57.24z"/><path class="cls-100" d="M237.89 802.44l59.04-15.38-51.58-65.87-7.46 81.25z"/><path class="cls-101" d="M246.07 720.49l51.72 66.05 45.48-57.41-97.2-8.64z"/><path class="cls-102" d="M395.92 760.6l.05-57.89-50.73 26.05 50.68 31.84z"/><path class="cls-103" d="M419.02 625.93l-25.31-76.33 3.2 146.2 22.11-69.87z"/><path class="cls-104" d="M190.41 775.26l46.5 27.02 7.43-81.05-53.93 54.03z"/><path class="cls-105" d="M152.69 751.49l67.2 23.21 4.91-41.44z" transform="translate(-30.71)"/><path class="cls-106" d="M150.06 751.63l.47-.48.06-.15-.36-.24c-.22-.15-22.59-15.36-44.63-30.5L95.09 713l-34.42 64.49 72.79 18.11 16.85-43.88z" transform="translate(-30.71)"/><path class="cls-107" d="M103.87 795.47l83.97-20.19-67.3-23.24-16.67 43.43z"/><path class="cls-108" d="M225.85 733L221 774l53.07-53.18z" transform="translate(-30.71)"/><path class="cls-109" d="M395.98 698.83l-3.28-150.01-33.91 87.83 37.18 64.93.01-2.75z"/><path class="cls-110" d="M36.4 655l-.13.27 24.84 33.59c.8 1 5.76 4.74 33.09 23.59l-35.01 65.69L47.74 802l.9.43 11.57-24 72.9 18.14-.13.34.58-.14-2.5 6.26.93.36 2.76-6.91 84.15-20.23-22.75 25.64.75.65L220.42 776l47.1 27.37v.39l60.82-15.85.19.24.2-.25 68 15.88-20.88-73.95 50.62 31.8-30.21 38.93.79.6 29.49-38-3.78 41.29 1 .09 3.92-42.85.25-.32-.23-.14.06-62.32 23.09-73-26.5-79.71-.05-2.46-35.39 91.67L357.2 567l67-25.22-.53-.41-10-98 .09-.2-.1-.1V342l44 101.22-33.01 100.3 1 .31 33.17-100.68-45.14-103.69 17.59-77.56-16.51-65.41 13.49-184.17-1-.07-13.5 184.24v.08l16.49 65.34-17.19 76-26.66-65.71 27.32-80.53-32.64-139.88 39.82-43.06-.74-.67-39.54 42.76-25-42.67-.87.5 25 42.71L296 75.34l26.2-70.55-55.57 38.08-35-39.76-25.28 80.43-42.81-63.13c7.62-5.36 18.94-13.18 20-13.52l-.32-.94c-1.53.5-18.68 12.56-20.63 13.93l-.4.28 43.62 64.32-.69.35-.63-1.88-.69 2.55-47.23 23.78-24.09-40.87a.64.64 0 0 0 0-.2L161.28 23l-.85-.53-28.25 44.42c-1-2.59-4.7-9.54-16.84-29.53-8.85-14.56-18-29.08-18.06-29.22l-.85.52c13.65 21.71 33.67 54.45 35 59.06-6.29-1.72-61.65-20.07-68.69-22.4l32-34.6L94 10 61 45.77l.73.24c2.59.86 60.33 20.06 69.07 22.55l-44.73 35.61-22.25-56.33-.93.36 22.4 56.7-39.17 47.88L61.85 48.09v-.16L39.79 8.16l-.88.48 21.92 39.47-15.92 106-.4.1.32.43-.24 1.59.75-.91 1.94 2.6L59.36 269.8l.95-.1-.18.25-.35.48 90.35 44.26-34 49.66-34.42 26.74.08.06-20.11 22.42L61 274.68l53.73 88.27.86-.51L60 271.09l.67 143.59-.06.07v.14L36.37 520.42v.12L59 608zm1 .16l22.5-46.76 68.78-33.74-.62 1c-3.5 5.85-20.92 35-37.13 62.23L61.88 609l-.71.7 29.27 29.16c-13.77 23.1-26.53 44.57-29 48.82zm60.42-433.28l-1-1.6.19-.84 17.21-69.36L144.36 223l5.49 83.88-51.42-84 44.08.31v-1zm-1.3-.21l.12.2h-.17zm265-60.93l-56.84 57.31-2.19 1.2-58.9-12.72L222 262.94l-34.1-45.61 3.06-.43 52.55-11.12-.1.27zm-92.77-26.41l-.08.17-60.15-47.58 85.85-10.24zm26.53-57.19l27.8 44.19-53 12.49zm-25.86 58l-.11-.09 54.56-12.85c2.27.94 24.55 22.15 39.58 36.77l-118.38 45.39zm103.7 309.85l-46.26 49.4-10.14-64 50.07-30.24zm-5.29-44.64l44.77 43.07c-11.05 24-27.52 59-31 64.79-1-8.62-7.35-62.53-7.42-63.11L374 444zm-36.9 279.42L388 637.68l-13.4 89.93zm42.79 48.34L277 719.52l53.1-39.16zM330.26 679l-32.46-35.52c3.17 0 13.13-.6 45.18-2.91 18.66-1.34 37.5-2.75 43.8-3.22zm-.81.59l-52.91 39L296.92 644zM156.69 491.35l21.56 43.95-49 37.78 26.38-81.4zm-.67-.83l.11-.33.12.25zm.6-4.14l22.81-59.18c3.38 3.13 23.85 27 38.3 44.09-6 1.62-32.52 10-60.51 18.85l-.64-1.31.43-1.34.06-.19zm25.25-61.05h.4v-.19L247.93 384l-29.36 86.76c-3-3.56-10.73-12.66-18.47-21.67-14-16.31-18.48-21.2-20.06-22.62zm16.48 148l73.43-18 .58 2-38.7 107zm35.24 93.57h-.31l.21-.22zm15.84-283L315 429.63l-56.5 38.94c-1.91-4.71-6.38-52.28-9.06-84.72zm26.23 130.37l-40.22 8.21L220 472.5l-.09-.17-.32-.38 38.41-2.17zm-23.5-88.58c3.13 32.6 4.6 40.93 5.38 43.18l-38 2.14 29-85.68c.53 6.11 1.99 23.24 3.63 40.3zm-17.62 97.28L198.49 571v-.17l-.6.89L179 535.49l-.16-.3.13-.2c.1-.15 10.34-15.67 20.38-31.13 14.1-21.72 18.36-28.75 19.59-31.17l.16.19zm-56 10.82L157.65 491c29.34-9.31 55.56-17.56 60.45-18.88-2.76 5.46-24.46 38.79-39.51 61.6zm18.63 38.82h-.2l.11.29-34.28 50.66-.08.07-33.2-49.51 48.83-37.65zM190 666.14c-31.13.77-67.89 1.75-70.52 1.82h-.38l.46-.87 43-41.92zm-.22-2.12l-26.52-39.54.25-.24 33.66-49.68zm8.32-88.56l34.9 89.72c-4 0-21.86.43-42.31.94zm74.71-16.52c8.39 29.54 22.35 79 23.3 83.72l-61.62 22.2zm0-3.73l-.2-.69-.13-.46-73.58 18.07 36.49-48.68 40.41-8.25-3.44 38.71 1 .09 3.47-39h.22v-.08l47.8-18.25zm3.82-41.27l-17.4-43.81 65.9 25.3zm-17.23-44.81l56.29-38.8 10.19 64.32zm-9.66-86.28l.52-.33-.74-.1 19.41-51.88 47 98.51zm-1.14-.8l-.34-.24-40.86-28.1 60.6-23.57zM162 624.34l-42.17 41.14L129 576l.08-.77zm-43.2 41.37l-27.11-27c15.3-25.68 31.67-53.09 36.11-60.51zm.14 2.62L149.5 749c-12.84-8.73-35.08-23.92-53.93-36.92zm1.3.6c5.34-.14 39.85-1.06 69.42-1.79l-39.08 81.93zm70.53-1.82c19.81-.49 37.2-.9 41.75-.94l-81.4 84.35-.06-.16zm41.83.42l-7.67 64.68-72.41 18.3zm1.07-.51v.09l.15-.4 41 52.89L226 731.94zm.83-1.1l61.45-22.14-20.48 75zm62.41-24c-.88-4-5.07-19.77-23.49-84.56l.19-.53-.38-.13-.34-1.2 82.71 11.65zm-22.32-87.19l51.78-58.36 29.35 69.79zM317 429l-46.82-98.21L366.46 399v.08zm-47.36-99.81c26.35.28 57.17.55 61.59.32l34.29 67.61zm-.09-1l34.13-106.89 27.23 107.26c-5.14.18-44.91-.19-61.38-.37zm35.12-107l80.42 51.16L331.78 328zm-.47-1.48l.23-.74 67.39-10.75 13.47 63.08zM372.34 207l-.28.12-65.56 10.48 57.33-57.81.22-.23zm-7.21-47.12l45 31.63-36.87 15.1zm-64 60.07l-78 42.89 21.07-55.19zm-79.67 43.87l-68.61 48.59-.39-1 33.9-93.89.39-.05zm-30.7-47.93l-3.56.5-1-1.35-.57 1.57-39.76 5.57L182 168.55l59 36.74zm-9.39-48.26L145 221.81l-30.3-73.37.22-.9 66.79 19.11zm-36 55.61l39.89-5.58-33.39 92.47-.91-1.48zm5.92 87.83l.12.32-.23.63-.08-1.26zM152 313l-.18.13.11-.31zm.37 1l.52 1.35-1.21-.86zm.83-.59l69.21-49 80.17-44.08.29.06L268.23 329 207 352.83l15.64-85.67 44.81 59.51.8-.59-46.19-61.34-16.06 88-51.62-36.39zm52.07 40.09l.73.5.67.48 40.14 27.6-70.94-9.73L155 318zm42.12 29.65L182.12 424l-5.84-50.63zm-72.15-9.69l5.9 51.13-1.92 1.2-61.32-60.42 57.26 7.86zM156 485.14l-27.58-58.07.07-.15c5.58 0 23.09.14 36 .14 6.51 0 11.85 0 13.92-.1zm-.5 1.28l-.55 1.44.51 1-.64 2c-24.28 7.71-49.23 15.69-62.43 19.91l35.51-82.51zm-1.06 5.63l-25.75 79.45-36.41-59.61c17.17-5.5 40.34-12.89 62.19-19.83zm-25.72 81.42l-.16.12-68.19 33.47 31.29-94.27zm-66.6 115.06c1.51-2.71 14.75-25 29-48.95l27.41 27.31-23.8 44.66c-16.83-11.62-30.79-21.37-32.61-23.02zm71.34 107.07l-72.79-18.11L95.09 713l10.52 7.24c22 15.14 44.4 30.35 44.63 30.5l.36.24-.06.15-.47.48.25.09zm1.12-.13L151.25 752l67.3 23.24zm85.31-20.77l-67.2-23.21 72.12-18.23zm6-41.7l48.22-12.18L221 774zm-4.72 42.27l53.93-54-7.44 81.05zm47.48 27.18l7.46-81.25 51.57 65.86zm59.89-15.9l-51.72-66 97.18 8.58zm66.74 15.89L329.37 787l45.36-57.24zm31.39-41.83L376 728.76l50.73-26.06zm23.1-134.67l-22.15 69.86-3.19-146.2zm-26.32-77.11l3.28 150v2.75l-37.23-64.93zM389 637.94v-.12L425.8 702l-50.21 25.79zm-.78-1.69c-29.42 2.22-83 6.15-90.53 6.3l58.73-74.82.13.3v-.05zm-31.67-70.78l-29.15-69.31 49.35 13 .26-1-49.53-13 45.81-48.93c.95 8.09 6.95 59.25 7.41 63zm.91.4l24-55.79 40.78 31.42zm65.13-25.32L382 509.26c1.26-1.73 4.71-8.28 16.22-32.66 6.31-13.36 12.56-26.87 14.7-31.48zm-9.88-98.47l-45.11-43.37v-.14L412.69 341zm-.07-102.59l-45 57.35 19.54-120zm-25.83-63.66l-.42-.07-19.78 121.33-34.48-68 53.56-56zm-6.19-221.54l32 137.34-26.61 78.43-11.66-57.36-.88-5.06 38.75-15.88L365 158.61l.45-.45-.71.27zm-16.83 103.6c-9.6-9.34-34.94-33.81-39.38-36.5 2.23-4.11 33.56-42 55.34-68.06zM379.1 52.57c-3.55 4.25-15.66 18.74-27.58 33.2-20.64 25-26.28 32.45-27.73 34.83L296 76.38zM320.17 7.38L295 75.13l-27.72-31.5zM232.06 5.1l33.74 38.34-58.37 40zm-26.37 80.54l-.08.25 1.17-.8.47-.24v-.06l59.25-40.61 27.7 31.52L206 86.22l62.19 49.22-23.69 67.4-39.08-117.06zm-1.12.75l39.43 118-.46 1.3-61.11-38zm-1.14.39l-21.74 79.82-23.37-57v-.07zm-45.78 23.8L180 165.14l-64.88-18.57.17-.71zm-25.94-41.51l24.42 41.47-41.19 34.32-28.41-39.79zM46.2 154.81l.72-.17.14 1.33zm.47-1.13l39.16-47.89 28.48 39.91-.15.6-1.66-.48 1.11 2.7-17.54 70.69-.06.27-9.16-74.94-.5.06-.12-.48zm1.22.72l38-9.19 9.2 75.34-46.89-63zm.55 5.1l46.78 62.86-34.87 47.28zm12.84 110.56l34.58-46.86.24.33.15-.66h1L150 309l.31 4.69zM150.45 316l.06.95.59-1.64 2.47 1.74 21.21 55.16-57.4-7.88zm-34 49.38L178 426c-6.06.17-37 0-49.69-.07l-45-34.84zm-33.9 26.43l44.45 34.3h-.07l.45 1-35.79 83.06L61.75 415zM37.37 520.52l23.89-103.75L91 511.58l-.36.83h.11l-31.17 93.85z" transform="translate(-30.71)"/><path class="cls-111" d="M388 801.32a6.14 6.14 0 1 1 6.14 6.08 6.11 6.11 0 0 1-6.14-6.08zm40.32-34.12a6.08 6.08 0 1 0-6.14-6.08 6.11 6.11 0 0 0 6.15 6.08zM375 735.07a6.08 6.08 0 1 0-6.14-6.08 6.11 6.11 0 0 0 6.14 6.08zm-43.39 58.58a6.08 6.08 0 1 0-6.14-6.08 6.11 6.11 0 0 0 6.19 6.08zm-57.15-67.19a6.08 6.08 0 1 0-6.14-6.08 6.11 6.11 0 0 0 6.19 6.08zm54.91-40.26a6.08 6.08 0 1 0-6.14-6.08 6.11 6.11 0 0 0 6.19 6.08zm-32.74-37.12a6.08 6.08 0 1 0-6.14-6.08 6.11 6.11 0 0 0 6.19 6.08zm91.37-5.82a6.08 6.08 0 1 0-6.14-6.08 6.11 6.11 0 0 0 6.14 6.08zm39.25 63.63a6.08 6.08 0 1 0-6.14-6.08 6.11 6.11 0 0 0 6.15 6.08zm23-74.88a6.08 6.08 0 1 0-6.14-6.08 6.11 6.11 0 0 0 6.14 6.07zm-25.13-82.25a6.08 6.08 0 1 0-6.14-6.08 6.11 6.11 0 0 0 6.14 6.08zm-69.43 21.69a6.08 6.08 0 1 0-6.14-6.08 6.11 6.11 0 0 0 6.14 6.08zm-83.56-10.71a6.08 6.08 0 1 0-6.14-6.08 6.11 6.11 0 0 0 6.14 6.08zm53.11-59.65a6.08 6.08 0 1 0-6.14-6.08 6.11 6.11 0 0 0 6.15 6.08zm55.94 14.3a6.08 6.08 0 1 0-6.18-6.09 6.11 6.11 0 0 0 6.19 6.08zm32-66a6.08 6.08 0 1 0-6.14-6.08 6.11 6.11 0 0 0 6.15 6.04zm-47.33-46.23a6.08 6.08 0 1 0-6.14-6.08 6.11 6.11 0 0 0 6.14 6.04zm6.67 52.17a6.08 6.08 0 1 0-6.14-6.08 6.11 6.11 0 0 0 6.14 6.04zm-55.33-19.15a6.08 6.08 0 1 0-6.14-6.08 6.11 6.11 0 0 0 6.14 6.04zm-70-46.89a6.08 6.08 0 1 0-6.14-6.08 6.11 6.11 0 0 0 6.14 6.04zm20-53.56a6.08 6.08 0 1 0-6.14-6.08 6.11 6.11 0 0 0 6.18 6.04zm65.33-2a6.08 6.08 0 1 0-6.14-6.08 6.11 6.11 0 0 0 6.18 6.06zm80.63 12a6.08 6.08 0 1 0-6.14-6.08 6.11 6.11 0 0 0 6.18 6.01zm16.88-76.32a6.08 6.08 0 1 0-6.14-6.08 6.11 6.11 0 0 0 6.18 6.01zm28.16 179.91a6.08 6.08 0 1 0-6.14-6.08 6.11 6.11 0 0 0 6.19 6.02zm-72.38-169a6.08 6.08 0 1 0-6.14-6.08 6.11 6.11 0 0 0 6.18 6.05zm27.33-82.55a6.08 6.08 0 1 0-6.14-6.08 6.11 6.11 0 0 0 6.19 6.05zm-49.33-32.36a6.08 6.08 0 1 0-6.14-6.08 6.11 6.11 0 0 0 6.18 6.05zm8.34 48.33a6.08 6.08 0 1 0-6.14-6.08 6.11 6.11 0 0 0 6.19 6.05zm-67.12 10.71a6.08 6.08 0 1 0-6.14-6.08 6.11 6.11 0 0 0 6.19 6.05zm-60.84-13.12a6.08 6.08 0 1 0-6.14-6.08 6.11 6.11 0 0 0 6.19 6.04zm-22 58.67a6.08 6.08 0 1 0-6.19-6 6.11 6.11 0 0 0 6.19 6zm-35-45.24a6.08 6.08 0 1 0-6.14-6.08 6.11 6.11 0 0 0 6.14 6.13zM180.85 172a6.08 6.08 0 1 0-6.14-6.08 6.11 6.11 0 0 0 6.14 6.08zm24-79.25a6.08 6.08 0 1 0-6.14-6.08 6.11 6.11 0 0 0 6.14 6.07zm64.33 47.88a6.08 6.08 0 1 0-6.14-6.08 6.11 6.11 0 0 0 6.15 6.06zm54.67-12.88a6.08 6.08 0 1 0-6.14-6.08 6.11 6.11 0 0 0 6.14 6.07zm54.67-70a6.08 6.08 0 1 0-6.14-6.08 6.11 6.11 0 0 0 6.14 6.07zm48.67-43.26A6.08 6.08 0 1 0 421 8.4a6.11 6.11 0 0 0 6.19 6.08zm-106-2.31a6.08 6.08 0 1 0-6.19-6.1 6.11 6.11 0 0 0 6.19 6.09zm-24.67 68.67a6.08 6.08 0 1 0-6.14-6.08 6.11 6.11 0 0 0 6.14 6.08zm-30.67-29.72a6.08 6.08 0 1 0-6.14-6.13 6.11 6.11 0 0 0 6.14 6.13zm-34.66-37.64A6.08 6.08 0 1 0 225 7.41a6.11 6.11 0 0 0 6.19 6.08zm-68.34 12.88a6.08 6.08 0 1 0-6.14-6.08 6.11 6.11 0 0 0 6.14 6.08zm-30.33 46.55a6.08 6.08 0 1 0-6.14-6.08 6.11 6.11 0 0 0 6.14 6.08zm27.33 43.59a6.08 6.08 0 1 0-6.14-6.08 6.11 6.11 0 0 0 6.14 6.08zm-43 36.65a6.08 6.08 0 1 0-6.14-6.08 6.11 6.11 0 0 0 6.14 6.08zm-30.16-40.78a6.08 6.08 0 1 0-6.14-6.08 6.11 6.11 0 0 0 6.14 6.08zm.5 36.16a6.08 6.08 0 1 0-6.19-6.09 6.11 6.11 0 0 0 6.19 6.09zM61.85 51.63a6.08 6.08 0 1 0-6.14-6.08 6.11 6.11 0 0 0 6.14 6.08zm36.67-37.15a6.08 6.08 0 1 0-6.14-6.08 6.11 6.11 0 0 0 6.14 6.08zM45.19 160.43a6.08 6.08 0 1 0-6.19-6.09 6.11 6.11 0 0 0 6.19 6.09zm100 66.7A6.08 6.08 0 1 0 139 221a6.11 6.11 0 0 0 6.19 6.12zm-84.67 49.2a6.08 6.08 0 1 0-6.14-6.08 6.11 6.11 0 0 0 6.14 6.07zm90.33 44.25a6.08 6.08 0 1 0-6.14-6.08 6.11 6.11 0 0 0 6.14 6.07zm56.67 36.32a6.08 6.08 0 1 0-6.14-6.08 6.11 6.11 0 0 0 6.14 6.07zm-89.67 11.23a6.08 6.08 0 1 0-6.14-6.08 6.11 6.11 0 0 0 6.14 6.07zm57.33 10.57a6.08 6.08 0 1 0-6.18-6.1 6.11 6.11 0 0 0 6.19 6.08zm4 53.82a6.08 6.08 0 1 0-6.14-6.08 6.11 6.11 0 0 0 6.15 6.06zm-50-1.65a6.08 6.08 0 1 0-6.14-6.08 6.11 6.11 0 0 0 6.15 6.06zm-47.66-34.69a6.08 6.08 0 1 0-6.14-6.08 6.11 6.11 0 0 0 6.14 6.08zm-23 24.76a6.08 6.08 0 1 0-6.14-6.08 6.11 6.11 0 0 0 6.14 6.09zm30.33 96.76a6.08 6.08 0 1 0-6.14-6.08 6.11 6.11 0 0 0 6.14 6.08zm65.67-22.78a6.08 6.08 0 1 0-6.14-6.08 6.11 6.11 0 0 0 6.14 6.07zm64.33-17.34a6.08 6.08 0 1 0-6.14-6.08 6.11 6.11 0 0 0 6.14 6.08zm39-3.8a6.08 6.08 0 1 0-6.14-6.08 6.11 6.11 0 0 0 6.14 6.08zm16 46.23a6.08 6.08 0 1 0-6.14-6.08 6.11 6.11 0 0 0 6.14 6.07zm-41.33 7.92a6.08 6.08 0 1 0-6.14-6.08 6.11 6.11 0 0 0 6.14 6.08zM197.68 579a6.08 6.08 0 1 0-6.14-6.08 6.11 6.11 0 0 0 6.14 6.08zm-21.83-36.56a6.08 6.08 0 1 0-6.14-6.08 6.11 6.11 0 0 0 6.14 6.1zm-45.33 36.32a6.08 6.08 0 1 0-6.14-6.08 6.11 6.11 0 0 0 6.14 6.1zm-69.33 35.35A6.08 6.08 0 1 0 55 608a6.11 6.11 0 0 0 6.19 6.11zm59.67 58.78a6.08 6.08 0 1 0-6.14-6.08 6.11 6.11 0 0 0 6.13 6.08zm71-1.32a6.08 6.08 0 1 0-6.14-6.08 6.11 6.11 0 0 0 6.13 6.07zm43.5.21a6.08 6.08 0 1 0-6.14-6.08 6.11 6.11 0 0 0 6.13 6.07zM162 630.17a6.08 6.08 0 1 0-6.14-6.08 6.11 6.11 0 0 0 6.14 6.08zm-122.32 31.7a6.08 6.08 0 1 0-6.14-6.08 6.11 6.11 0 0 0 6.14 6.08zm52.17-19.69a6.08 6.08 0 1 0-6.14-6.08 6.11 6.11 0 0 0 6.14 6.08zm2 76.61a6.08 6.08 0 1 0-6.14-6.08 6.11 6.11 0 0 0 6.14 6.07zm56.67 37.64a6.08 6.08 0 1 0-6.14-6.08 6.11 6.11 0 0 0 6.14 6.07zm71.6 25a6.08 6.08 0 1 0-6.12-6.13 6.11 6.11 0 0 0 6.12 6.08zm47.73 27.73a6.08 6.08 0 1 0-6.15-6.16 6.11 6.11 0 0 0 6.14 6.12zm-137.92-8.26a6.08 6.08 0 1 0-6.14-6.08 6.11 6.11 0 0 0 6.13 6.04zM61.59 693.29a6.08 6.08 0 1 0-6.14-6.08 6.11 6.11 0 0 0 6.14 6.08zm-.67 89.81a6.08 6.08 0 1 0-6.14-6.1 6.11 6.11 0 0 0 6.14 6.1zM36.85 526.61a6.08 6.08 0 1 0-6.14-6.08 6.11 6.11 0 0 0 6.14 6.08zM96 226.63a6.08 6.08 0 1 0-6.14-6.08 6.11 6.11 0 0 0 6.14 6.08z" transform="translate(-30.71)"/></g></g></g></svg>