<svg xmlns="http://www.w3.org/2000/svg" viewBox="0 0 35 35"><defs><style>.cls-1{fill:#fff}</style></defs><title>Ресурс 10</title><g id="Слой_2" data-name="Слой 2"><g id="_1280" data-name="1280"><g id="Футер"><ellipse class="cls-1" cx="17.52" cy="17.44" rx="5.18" ry="5.02"/><path class="cls-1" d="M25.54 17.72a7.89 7.89 0 0 1-8 7.77 7.89 7.89 0 0 1-8-7.77 7.54 7.54 0 0 1 .33-2.21h-2.4v10.9a1 1 0 0 0 1 1h18a1 1 0 0 0 1-1v-10.9h-2.26a7.55 7.55 0 0 1 .33 2.21zM23.39 12.57h2.91a1.16 1.16 0 0 0 1.16-1.16V8.63a1.16 1.16 0 0 0-1.16-1.16h-2.91a1.16 1.16 0 0 0-1.16 1.16v2.78a1.16 1.16 0 0 0 1.16 1.16z"/><path class="cls-1" d="M17.5 0A17.5 17.5 0 1 0 35 17.5 17.5 17.5 0 0 0 17.5 0zm9.59 30.4H7.92a3.23 3.23 0 0 1-3.32-3.31V7.91A3.23 3.23 0 0 1 7.92 4.6h19.17a3.23 3.23 0 0 1 3.31 3.31v19.18a3.23 3.23 0 0 1-3.31 3.31z"/></g></g></g></svg>