<svg width="24" height="22" viewBox="0 0 24 22" xmlns="http://www.w3.org/2000/svg"><title>home</title><path d="M22.89 9.8l-3.53-3.53V2.19a1.335 1.335 0 0 0-2.67 0V3.6L14.07 1a3.51 3.51 0 0 0-4.86 0L.39 9.8a1.336 1.336 0 0 0 1.89 1.89l8.82-8.83a.79.79 0 0 1 1.08 0L21 11.69a1.336 1.336 0 1 0 1.89-1.89zM12.11 5.4a.66.66 0 0 0-.93 0l-7.76 7.75a.66.66 0 0 0-.19.46v5.66a2.4 2.4 0 0 0 2.4 2.4h3.84v-6h4.34v6h3.84a2.4 2.4 0 0 0 2.4-2.4v-5.65a.65.65 0 0 0-.19-.46L12.11 5.4z" fill="#FFF" fill-rule="evenodd"/></svg>