<svg width="35" height="35" viewBox="0 0 35 35" xmlns="http://www.w3.org/2000/svg"><title>insta</title><g fill="#FFF" fill-rule="evenodd"><ellipse cx="17.52" cy="17.44" rx="5.18" ry="5.02"/><path d="M25.54 17.72a7.89 7.89 0 0 1-8 7.77 7.89 7.89 0 0 1-8-7.77c0-.749.11-1.494.33-2.21h-2.4v10.9a1 1 0 0 0 1 1h18a1 1 0 0 0 1-1v-10.9h-2.26a7.55 7.55 0 0 1 .33 2.21zM23.39 12.57h2.91a1.16 1.16 0 0 0 1.16-1.16V8.63c0-.64-.52-1.16-1.16-1.16h-2.91c-.64 0-1.16.52-1.16 1.16v2.78a1.16 1.16 0 0 0 1.16 1.16z"/><path d="M17.5 0C7.835 0 0 7.835 0 17.5S7.835 35 17.5 35 35 27.165 35 17.5A17.5 17.5 0 0 0 17.5 0zm9.59 30.4H7.92a3.23 3.23 0 0 1-3.32-3.31V7.91A3.23 3.23 0 0 1 7.92 4.6h19.17a3.23 3.23 0 0 1 3.31 3.31v19.18a3.23 3.23 0 0 1-3.31 3.31z"/></g></svg>