<svg width="69" height="75" viewBox="0 0 69 75" xmlns="http://www.w3.org/2000/svg"><title>leafs</title><g fill="none" fill-rule="evenodd"><path d="M4.7 32C-3 48.57 1.8 59.24 10.31 63.22c8.51 3.98 19.49 1.54 27.24-15S45.81 0 45.81 0 12.45 15.45 4.7 32z" fill="#60D4F8"/><path d="M10.31 63.22l21.73-44.03M5.24 60.8l16.99-34.43M2.02 56.32l10.14-20.54-.58-5.26M12.904 29.772a1.85 1.85 0 1 0-2.617-2.616 1.85 1.85 0 0 0 2.617 2.616zM24.55 26.477a1.85 1.85 0 1 0-2.617-2.616 1.85 1.85 0 0 0 2.617 2.616zM19.38 57.47l16.99-34.44M38.691 23.152a1.85 1.85 0 1 0-2.616-2.616 1.85 1.85 0 0 0 2.616 2.616zM34.67 18.045a1.85 1.85 0 1 0-3.28-1.714 1.85 1.85 0 0 0 3.28 1.714z" fill="#000"/><path d="M16.12 37.3C0 45.94-2.49 57.39 2 65.67c4.49 8.28 14.7 12.89 30.81 4.25s35.4-33.69 35.4-33.69-35.98-7.56-52.09 1.07zM1.2 62.45c1.53-1.06 3.2-2.16 5-3.28" fill="#000"/><path d="M10 57a104.07 104.07 0 0 1 10.19-5 119.85 119.85 0 0 1 19.14-6l1.33-.32M42.79 45.23c2.29-.51 4.27-.9 5.88-1.19" fill="#000"/></g></svg>