<svg width="161" height="58" viewBox="0 0 161 58" xmlns="http://www.w3.org/2000/svg"><title>logo_header</title><g fill="none" fill-rule="evenodd"><path d="M68.5 6.67L54.15 34.38l29.97 1.08L68.5 6.67z" fill="#57F7D8"/><path d="M36.33 28.83l3.92 19.75 10.19-6.12-14.11-13.63z" fill="#15EDC3"/><path d="M160.59 41.06v-5.65l-5.36-7.68-8.72 6.41 14.08 6.92z" fill="#07DDE2"/><path d="M140.51 19.72l6 14.42 8.72-6.41-14.72-8.01z" fill="#6EF6F9"/><path d="M128.58 19.02l.08-.37 11.85 1.07 6 14.42-17.93-15.12z" fill="#72F7F3"/><path d="M160.59 41.06l-2.36 3.02-7.48-3.75 9.84.73z" fill="#28EAF9"/><path d="M158.23 43.71v.91l2.29 1.62-1.82 2.21-4.63-6.43 4.16 1.69zM150.75 40.33l-4.24-6.19 14.08 6.92-9.84-.73z" fill="#28EAF9"/><path d="M149.81 38.97l-12.77-1.73 2.87-8.67 6.6 5.57 3.3 4.83z" fill="#4BECF9"/><path d="M158.7 48.45l-5.15 1.71-24.97.76 25.49-8.9 4.63 6.43z" fill="#13E4EA"/><path d="M137.04 37.24l-8.46 13.68 25.49-8.9-3.32-1.69-.94-1.36-12.77-1.73z" fill="#00EAFC"/><path d="M141.04 50.1l-2.91 5.22-5.6 2.52-3.95-6.92 12.46-.82z" fill="#03D3D8"/><path d="M132.53 57.84l-7.99-.88-4.04-14.35 8.08 8.31 3.95 6.92z" fill="#11E4F4"/><path d="M124.54 56.96l-5.45-5.91-3.3-3.66h6.06l2.69 9.57z" fill="#00F9FF"/><path d="M139.91 28.57l-13.05-.84 10.18 9.51 2.87-8.67z" fill="#06EFE3"/><path d="M129.58 18.98L143.3 31l-15.8-1.01-10.02-7.89 11.7-2.99.4-.13-9.78-2.62-15.4-7.09 13.08 12.83 12.1-3.12z" fill="#0ADDB4"/><path d="M126.52 27.47l2.06 23.45 8.46-13.68-10.52-9.77z" fill="#03D8DD"/><path d="M126.52 27.47l-7.93 10.97 1.91 4.17 8.08 8.31-2.06-23.45z" fill="#2BF2F7"/><path d="M118.59 21.23v17.21l7.93-10.97-7.93-6.24z" fill="#66EDED"/><path d="M118.59 38.44l-7.56-5.35 4.76 14.3h6.06l-1.35-4.78-1.91-4.17z" fill="#35F9F3"/><path d="M107.44 50.1l2.36-.18 2.11 1.28 1.15 1.1 1.61-.13.87-1.25 3.55.13-3.3-3.66-4.11-4.11-4.24 6.82z" fill="#40F0F4"/><path d="M111.03 33.09l4.76 14.3-11.45-9.79 6.69-4.51z" fill="#29E5DB"/><path d="M118.68 21.43l-.09 17.01-7.56-5.35 7.56-11.86-7.56 11.86-3.23-22.45 10.88 10.79z" fill="#7AF9E1"/><path d="M105.43 36.87l2.01 13.23 4.24-6.82-6.25-6.41z" fill="#00FFD4"/><path d="M111.03 33.09l-11.66 7.83 9.48-22.99 2.18 15.16z" fill="#41F7DD"/><path d="M107.44 50.1l-15.54.29 7.47-9.47 6.06-4.05 2.01 13.23z" fill="#05E2B7"/><path d="M107.8 10.64L95.77 4.29l13.08 13.64-1.05-7.29z" fill="#5FF9E6"/><path d="M99.37 40.92l-6.06-22.27 15.54-.72-9.48 22.99z" fill="#3BFFDE"/><path d="M95.77 4.29l-2.46 14.36 15.54-.72L95.77 4.29z" fill="#14EDCD"/><path d="M95.77 4.29L79.43.65l13.88 18 2.46-14.36z" fill="#00FFD4"/><path d="M99.37 40.92l-7.47 9.47-10.75-17.91 18.22 8.44z" fill="#14EDC3"/><path d="M81.15 32.48l12.16-13.83 6.06 22.27-18.22-8.44z" fill="#45E5C6"/><path d="M79.43.65L69.4 12.69l23.91 5.96-13.88-18z" fill="#7AF9E1"/><path d="M81.15 32.48L69.4 12.69l23.91 5.96-12.16 13.83z" fill="#0AEFC3"/><path d="M91.9 50.39l-20.79.26 10.04-18.17L91.9 50.39z" fill="#05E2A3"/><path d="M79.43.65L68.38 0 56.29.65 69.4 12.69 79.43.65z" fill="#26F9E4"/><path d="M58.61 31.75l16.46 11.74 6.08-11.01-22.54-.73z" fill="#1AFCC1"/><path d="M71.11 50.65l-12.5-18.9 16.46 11.74-3.96 7.16z" fill="#14EFB0"/><path d="M58.61 31.75l-6.92-19.56 17.71.5-10.79 19.06z" fill="#0AF2C5"/><path d="M56.29.65l-11.56.95 7.13 11.09H69.4L56.29.65z" fill="#14EFB0"/><path d="M51.86 12.69l-11.92.95 18.67 18.11-6.75-19.06z" fill="#5BEFD3"/><path d="M44.73 1.6L31.07 3.36l8.87 10.28 11.92-.95L44.73 1.6z" fill="#2BF9D1"/><path d="M39.94 13.64l18.67 18.11-13.1-1.38-1.22-.13-7.72-.81 3.37-15.79z" fill="#59F7D9"/><path d="M71.11 50.65l-12.5-18.9-10.3-1.09 22.8 19.99z" fill="#3AEFCC"/><path d="M48.31 30.66l1.92 11.95h11.71L48.31 30.66z" fill="#3AEFCC"/><path d="M71.11 50.65l-20.33.25-.55-8.29h11.71l9.17 8.04z" fill="#28EAC4"/><path d="M36.57 29.43l13.66 13.18-1.92-11.95-11.74-1.23z" fill="#3AEFCC"/><path d="M50.23 42.61l-14.04 8.44 14.59-.15-.55-8.29z" fill="#0CE2B8"/><path d="M31.03 3.32l5.51 26.11 3.38-15.81-8.89-10.3z" fill="#15EDC3"/><path d="M31.07 3.36l-5.83.31-8.36 1.15 3.35 1.51-.33 1.29-3.16 3.67 14.33-7.93z" fill="#1AFCC1"/><path d="M16.74 11.29l5.7 3.65 12.8 8.19-4.17-19.77-14.33 7.93z" fill="#14EFB0"/><path d="M19.26 25.67l15.98-2.54-18.5-11.84 2.52 14.38z" fill="#10DD9E"/><path d="M16.74 11.29l-7.88 9.17 10.4 5.21-2.52-14.38z" fill="#05E292"/><path d="M35.24 23.13l1.27 6.31 1.33 6.58-18.58-10.35 15.98-2.54z" fill="#14EDAF"/><path d="M36.19 51.05l-3.62 4.36L27 57.84l-4.55-10.45 13.74 3.66z" fill="#0AE8A3"/><path d="M37.84 36.02L22.45 47.39l13.74 3.66 4.17-2.51-2.52-12.52z" fill="#0AE0B7"/><path d="M27 57.84l-6.87-1.13-5.84-5.79 8.16-3.53L27 57.84z" fill="#0BD38B"/><path d="M19.26 25.67l8.28 17.96 10.3-7.61-18.58-10.35z" fill="#0CE2A5"/><path d="M8.86 20.46v12.02l10.4-6.81-10.4-5.21z" fill="#0FEAA1"/><path d="M27.54 43.63L8.86 32.48l10.4-6.81 8.28 17.96z" fill="#0FEFA4"/><path d="M8.86 32.48l5.43 18.44 8.16-3.53 5.09-3.76L8.86 32.48z" fill="#1AE299"/><path d="M8.86 20.46l-5.77 6.01-2.31 3.82 8.08 2.19V20.46z" fill="#0AE8A3"/><path d="M.78 30.29L0 36.02l.73 5.67 8.13-9.21-8.08-2.19z" fill="#05E298"/><path d="M14.29 50.92l-4.5-.02-3.72-3.51 4.71-8.4 3.51 11.93z" fill="#07D88D"/><path d="M8.86 32.48l1.92 6.51-4.71 8.4-3.37-.56-2.09-1.88.12-3.26 8.13-9.21z" fill="#21D889"/><text fill="#000" font-family="Helvetica" font-size="25.14"><tspan x="51.77" y="24.24">N</tspan></text><path d="M95.77 27.96H39.4" stroke="#05AA8B" stroke-width="2" fill="#000"/><path d="M34.28 32h2.84A3.93 3.93 0 0 0 41 28.09v-.33a3.93 3.93 0 0 0-3.92-3.92h-2.8V32z" fill="#05AA8B"/><path d="M36.12 25.91h-6.75M36.12 30.05h-6.75" stroke="#05AA8B" stroke-width="2" fill="#000"/></g></svg>