<svg width="260" height="94" viewBox="0 0 260 94" xmlns="http://www.w3.org/2000/svg"><title>logo_footer</title><g fill="none" fill-rule="evenodd"><path d="M111.06 10.78L87.95 55.41l48.27 1.73-25.16-46.36z" fill="#57F7D8"/><path d="M59.26 46.47l6.31 31.8 17.78-8.81-24.09-22.99z" fill="#15EDC3"/><path d="M259.36 66.16v-9.09l-8.63-12.37-14.05 10.31 22.68 11.15z" fill="#07DDE2"/><path d="M227.02 31.8l9.66 23.21 14.05-10.31-23.71-12.9z" fill="#6EF6F9"/><path d="M207.81 30.66l.12-.58 19.09 1.72 9.66 23.21-28.87-24.35z" fill="#72F7F3"/><path d="M259.36 66.16l-3.81 4.86-12.05-6.03 15.86 1.17z" fill="#28EAF9"/><path d="M255.55 70.42v1.46l3.69 2.62-2.92 3.57-7.46-10.37 6.69 2.72zM243.5 64.99l-6.82-9.98 22.68 11.15-15.86-1.17z" fill="#28EAF9"/><path d="M242 62.79L221.43 60l4.61-13.96 10.64 8.97 5.32 7.78z" fill="#4BECF9"/><path d="M256.32 78.07l-8.3 2.75-40.21 1.21 41.05-14.33 7.46 10.37z" fill="#13E4EA"/><path d="M221.43 60l-13.62 22.03 42.92-14.65-7.23-2.39-1.5-2.2L221.43 60z" fill="#00EAFC"/><path d="M227.87 80.72l-4.68 8.4-9.02 4.07-6.36-11.16 20.06-1.31z" fill="#03D3D8"/><path d="M214.17 93.19l-12.87-1.43-6.49-23.11 13 13.38 6.36 11.16z" fill="#11E4F4"/><path d="M201.3 91.76l-8.77-9.52-5.31-5.88h9.75l4.33 15.4z" fill="#00F9FF"/><path d="M226.04 46.04l-22.69-1.34L221.43 60l4.61-13.96z" fill="#06EFE3"/><path d="M209.08 30.28l-15.41-3.89-24.79-11.42 21.39 19.83 18.81-4.52 22.43 19.67-25.45-1.62-15.79-13.53" fill="#0ADDB4"/><path d="M204.49 44.27l3.32 37.76L221.43 60l-16.94-15.73z" fill="#03D8DD"/><path d="M204.49 44.27l-12.76 17.67 3.08 6.71 13 13.38-3.32-37.76z" fill="#2BF2F7"/><path d="M191.73 61.94l-12.18-8.61 7.67 23.03h9.75l-2.16-7.71-3.08-6.71z" fill="#35F9F3"/><path d="M173.77 80.72l3.8-.3 3.39 2.07 1.87 1.77 2.59-.21 1.39-2.02 5.72.21-5.31-5.88-6.62-6.62-6.83 10.98z" fill="#40F0F4"/><path d="M179.55 53.33l7.67 23.03-18.44-15.77 10.77-7.26z" fill="#29E5DB"/><path d="M191.87 34.55l-.14 27.39-12.18-8.61 12.18-19.11-12.18 19.11-5.2-36.16 17.52 17.38z" fill="#7AF9E1"/><path d="M170.53 59.41l3.24 21.31 6.83-10.98-10.07-10.33z" fill="#00FFD4"/><path d="M182.52 55.43l-21.74 10.51 15.26-37.04 6.48 26.53z" fill="#41F7DD"/><path d="M173.77 80.72l-25.02.46 12.03-15.24 9.75-6.53 3.24 21.31z" fill="#05E2B7"/><path d="M174.35 17.17L154.98 6.95l21.06 21.95-1.69-11.73z" fill="#5FF9E6"/><path d="M160.78 65.94l-9.76-35.86 25.02-1.18-15.26 37.04z" fill="#3BFFDE"/><path d="M154.98 6.95l-3.96 23.13 25.02-1.18-21.06-21.95z" fill="#14EDCD"/><path d="M154.98 6.95l-26.31-5.86 22.35 28.99 3.96-23.13z" fill="#00FFD4"/><path d="M160.78 65.94l-12.03 15.24-17.31-28.83 29.34 13.59z" fill="#14EDC3"/><path d="M131.44 52.35l19.58-22.27 9.76 35.86-29.34-13.59z" fill="#45E5C6"/><path d="M128.67 1.09l-16.15 19.38 38.5 9.61-22.35-28.99z" fill="#7AF9E1"/><path d="M131.44 52.35l-18.92-31.88 38.5 9.61-19.58 22.27z" fill="#0AEFC3"/><path d="M148.75 81.18l-33.48.42 16.17-29.25 17.31 28.83z" fill="#05E2A3"/><path d="M128.67 1.09L110.87.04 91.4 1.09l21.12 19.38 16.15-19.38z" fill="#26F9E4"/><path d="M95.14 51.16l26.5 18.91 9.8-17.72-36.3-1.19z" fill="#1AFCC1"/><path d="M115.27 81.6L95.14 51.16l26.5 18.91-6.37 11.53z" fill="#14EFB0"/><path d="M95.14 51.16l-11.15-31.5 28.53.81-17.38 30.69z" fill="#0AF2C5"/><path d="M91.4 1.09L72.79 2.62l11.49 17.85h28.24L91.4 1.09z" fill="#14EFB0"/><path d="M84.28 20.47l-19.21 1.54 30.07 29.15-10.86-30.69z" fill="#5BEFD3"/><path d="M72.79 2.62l-22 2.84 14.28 16.55 19.21-1.54L72.79 2.62z" fill="#2BF9D1"/><path d="M63.74 20.47l31.4 30.69-21.1-2.22-1.96-.21-12.44-1.31 4.1-26.95z" fill="#59F7D9"/><path d="M115.27 81.6L95.14 51.16l-16.59-1.75 36.72 32.19z" fill="#3AEFCC"/><path d="M78.55 49.41l3.09 19.24h18.86L78.55 49.41z" fill="#3AEFCC"/><path d="M115.27 81.6l-32.75.41-.88-13.36h18.86l14.77 12.95z" fill="#28EAC4"/><path d="M59.64 47.42l22 21.23-3.09-19.24-18.91-1.99z" fill="#3AEFCC"/><path d="M81.64 68.65l-22.6 13.59 23.48-.23-.88-13.36z" fill="#0CE2B8"/><path d="M50.74 5.39l9.09 43.42 5.21-26.84-14.3-16.58z" fill="#15EDC3"/><path d="M50.79 5.46l-9.39.48L27.94 7.8l5.4 2.43-.53 2.09-5.09 5.9L50.79 5.46z" fill="#1AFCC1"/><path d="M27.72 18.22l9.17 5.87L57.5 37.28 50.79 5.46 27.72 18.22z" fill="#14EFB0"/><path d="M31.77 41.37l25.73-4.09-29.78-19.06 4.05 23.15z" fill="#10DD9E"/><path d="M27.72 18.22L15.03 32.99l16.74 8.38-4.05-23.15z" fill="#05E292"/><path d="M57.5 37.28l2.06 10.16 2.14 10.6-29.93-16.67 25.73-4.09z" fill="#14EDAF"/><path d="M59.04 82.24l-5.83 7.02-8.97 3.93-7.33-16.83 22.13 5.88z" fill="#0AE8A3"/><path d="M61.7 58.04L36.91 76.36l22.13 5.88 6.71-4.04-4.05-20.16z" fill="#0AE0B7"/><path d="M44.24 93.19l-11.06-1.83-9.41-9.33 13.14-5.67 7.33 16.83z" fill="#0BD38B"/><path d="M31.77 41.37L45.11 70.3 61.7 58.04 31.77 41.37z" fill="#0CE2A5"/><path d="M15.03 32.99v19.36l16.74-10.98-16.74-8.38z" fill="#0FEAA1"/><path d="M45.11 70.3L15.03 52.35l16.74-10.98L45.11 70.3z" fill="#0FEFA4"/><path d="M15.03 52.35l8.74 29.68 13.14-5.67 8.2-6.06-30.08-17.95z" fill="#1AE299"/><path d="M15.03 32.99l-9.3 9.68-3.72 6.14 13.02 3.54V32.99z" fill="#0AE8A3"/><path d="M2.01 48.81L.76 58.04l1.17 9.13 13.1-14.82-13.02-3.54z" fill="#05E298"/><path d="M23.77 82.03l-7.25-.02-5.99-5.65 7.58-13.54 5.66 19.21z" fill="#07D88D"/><path d="M15.03 52.35l3.08 10.47-7.58 13.54-5.42-.91-3.37-3.02.19-5.26 13.1-14.82z" fill="#21D889"/><path d="M191.65 34.33l.08 27.61 12.76-17.67-12.84-9.94z" fill="#66EDED"/></g></svg>