<svg width="35" height="35" viewBox="0 0 35 35" xmlns="http://www.w3.org/2000/svg"><title>twitter</title><path d="M17.5 0C7.835 0 0 7.835 0 17.5S7.835 35 17.5 35 35 27.165 35 17.5A17.5 17.5 0 0 0 17.5 0zm10.58 12.83v.62a15.06 15.06 0 0 1-15.19 15.21 15.15 15.15 0 0 1-8.19-2.4.13.13 0 0 1-.05-.15.13.13 0 0 1 .13-.11c.404.057.812.09 1.22.1a10.44 10.44 0 0 0 6.22-2 5.43 5.43 0 0 1-4.71-3.75.13.13 0 0 1 .15-.17 5.21 5.21 0 0 0 1.8 0A5.45 5.45 0 0 1 5.67 15v-.07a.13.13 0 0 1 .07-.11.13.13 0 0 1 .13 0 5.19 5.19 0 0 0 1.89.61 5.43 5.43 0 0 1-1.31-7 .13.13 0 0 1 .1-.06.13.13 0 0 1 .11 0 15 15 0 0 0 10.66 5.48 5.49 5.49 0 0 1-.1-1.07 5.43 5.43 0 0 1 9.34-3.77 10.47 10.47 0 0 0 3.25-1.26A.157.157 0 0 1 30 8a5.42 5.42 0 0 1-1.91 2.68 10.44 10.44 0 0 0 2.45-.74.13.13 0 0 1 .16.19 10.82 10.82 0 0 1-2.62 2.7z" fill="#FFF" fill-rule="evenodd"/></svg>